<svg xmlns="http://www.w3.org/2000/svg" xmlns:xlink="http://www.w3.org/1999/xlink" viewBox="0 0 1920 420.89"><defs><style>.cls-1{fill:#2f2f2f;}.cls-2{fill:#ed6c30;}.cls-3{fill:#fff;}.cls-4{fill:#757f3f;}.cls-5{fill:#bdcf46;}.cls-6{opacity:0.39;fill:url(#Jaune_vert);}.cls-7{fill:url(#Rouge_orangé);}.cls-8{fill:url(#Violet_radial);}</style><linearGradient id="Jaune_vert" y1="210.44" x2="1920" y2="210.44" gradientUnits="userSpaceOnUse"><stop offset="0.01" stop-color="#e8f3dd"/><stop offset="0.45" stop-color="#d5e8bf"/><stop offset="1" stop-color="#d1e397"/></linearGradient><linearGradient id="Rouge_orangé" x1="926.48" y1="57.16" x2="1561.46" y2="57.16" gradientUnits="userSpaceOnUse"><stop offset="0.01" stop-color="#feede5"/><stop offset="0.45" stop-color="#fde1d4"/><stop offset="1" stop-color="#fbc8b4"/></linearGradient><radialGradient id="Violet_radial" cx="960" cy="235.93" r="682.4" gradientTransform="translate(0 -232.49) scale(1 1.69)" gradientUnits="userSpaceOnUse"><stop offset="0.01" stop-color="#e2e5f4"/><stop offset="0.45" stop-color="#c7cee9"/><stop offset="1" stop-color="#a8b5dc"/></radialGradient></defs><title>bacckground</title><g id="Calque_2" data-name="Calque 2"><g id="bacckground"><g id="croco"><path class="cls-1" d="M1805.92,203.37s14.82-11.62,25.18-28.17l-16.1-5.6-12.58,17.61Z"/><path class="cls-1" d="M1841.1,148.88s.12,9.3-4.68,16.93l-13.86-10.08,4.79-11.37Z"/><path class="cls-1" d="M1770.67,218s11.24,1.13,20.87-4.69l-25.46-28-28.5,11.21,1.28,18.07Z"/><path class="cls-2" d="M1548.8,235.52a68.74,68.74,0,0,0,16.53-13.38c4.28-4.91,7.72-10.51,12.39-15.11,5.28-5.15,10.29-7.67,17.4-9.57,11.36-3.07,18.58,6,28.91,8.25,9,2,17.44,1.61,26.49.55,7.47-.86,14.7-2.9,22.36-1.93s16.23,7.33,18.1,14.92c2.72,11.12-4.75,17.67-13.51,23.05-3.48,2.13-7.15,4.55-11,5.87-2.4.8-5,.73-7.39,1.57-3.68,1.22-7.08,3.41-10.63,5a67.53,67.53,0,0,1-11,4.09c-3.61,1-7.18,2-10.93,2.18q-4.93.18-9.9.45a96,96,0,0,0-9.6.73,38.62,38.62,0,0,0-8.81,2.68,55.66,55.66,0,0,0-6,2.94c-4.19,2.32-8.59,4.6-12.6,7.2-3.69,2.34-8.69,2.74-13,3.25-9.94,1.17-20.31.3-29.3-4.36-5.81-3-12.24-7.43-15.79-13a8.73,8.73,0,0,1-1.4-7,5.93,5.93,0,0,0,.42-1.51,3.29,3.29,0,0,1,.15-1.31,9.83,9.83,0,0,1,1.86-2.48c1.2-1.36,2.85-1.78,4.44-2.47A196.57,196.57,0,0,0,1548.8,235.52Z"/><path class="cls-3" d="M1580.53,232.93a5.24,5.24,0,0,0,1.92-2.64c1-2.71,1.8-5.46,2.6-8.23a41.36,41.36,0,0,0,1.19-4.82,1.94,1.94,0,0,0-.45-1.49c-.33-.46-.55-.5-1.21-.55a2.92,2.92,0,0,0-1.09.28,6.19,6.19,0,0,1-1.67.09c-1.75,0-3.46.42-5.16.53-2.06.09-4.1.49-6.13.7-1.17.13-1.87.27-1.49,1.44a12.54,12.54,0,0,0,.78,2c.31.79.54,1.62.91,2.42a30.44,30.44,0,0,0,2.61,4.43c1.16,1.75,1.91,3.83,3.46,5.31A2.91,2.91,0,0,0,1580.53,232.93Z"/><path class="cls-3" d="M1617.34,248.1a26.67,26.67,0,0,1,3.91,8.08c.26,1.09-.54,1.32-1.32,1.89a6.64,6.64,0,0,1-2.51,1.34c-2,.28-4,.24-5.9.58a6.74,6.74,0,0,1-1.8.31,11.62,11.62,0,0,1-1.64-.33c-.59-.12-1.51-.3-1.67-.89-.07-.32.16-.78.2-1.11.08-.68.07-1.33.21-2.05.59-3,1.12-12,5.48-12.27,1.25-.09,2.84,1.72,3.6,2.56C1616.37,246.78,1616.86,247.41,1617.34,248.1Z"/><path class="cls-3" d="M1644.54,216.69c-.91,2-2,6.23-5,4.89-1.26-.56-1.93-2-2.72-3-3.08-4.17-7.74-10.64-2.82-15,2-1.78,5.55-1.77,8.07-1.35,2,.3,6.25,1.33,5.83,4.1A42.26,42.26,0,0,1,1644.54,216.69Z"/><path class="cls-4" d="M1853.83,198a1.9,1.9,0,0,0,.21-1.16c-.24-2.17-1.73-3.93-2.56-5.94-.94-2.42-.71-5.23-.74-7.78-.06-2.16-.11-4.33-.29-6.49-.47-5.07-1.55-10.43-4.88-14.45a11.66,11.66,0,0,0-1.13-1.21,19.19,19.19,0,0,0-5.47-3.13c-1.1-.5-4.46-1.6-4.42-3.18,0-2.2,2.59-1.61,4-1.58,5.3.08,1.38-20.72.82-23.35-3.47-15.66-11.3-30.59-24.86-39.65-16.18-10.82-35.28-16.94-54.52-19-9.52-1-19.09-1.56-28.68-1.72-8.89-.13-18.31-.56-27.12,1-2.08.34-10.33,1.76-6.94,5.65,1.84,2.11,4,2.24,6.67,2.68,22.26,3.93,45.51,7.19,65.45,18.64,4.36,2.53,9.41,5.5,11.12,10.62.55,1.62.74,4-.24,5.54s-2.35.85-3.67.58c-1.9-.38-3.76-.89-5.63-1.32a9.88,9.88,0,0,0-1.53-.31c-2.75-.13-4.24,2.73-6.28,4.12s-2.84,1.91-5.61,1.47a59.25,59.25,0,0,1-6.15-1.37c-1.78-.49-3.3-1.27-5.13-1.36-2.47-.1-4.24,1.89-6.15,3.21-2.53,1.73-3.8,3.32-7,3.26-4.22-.06-9.07-3-13.22-2.17-4.58,1-6.68,6.41-11,7.83-1.85.58-3.82.1-5.63-.4-3-.82-5.88-1.49-8.92-2.1a11.24,11.24,0,0,0-2.9-.16c-2.24.14-4.51,2.4-6.22,3.68-2.91,2.24-5.36,5.44-9.14,6.16-10,1.94-20-1.91-28.55-7-4.58-2.71-9.76-5.2-15.17-5.25a24.29,24.29,0,0,0-16.61,6.43c-5.31,4.84-6.05,11.37-10.21,16.75-3.72,4.79-8.63,8.5-13.75,11.7-4.76,3-10.29,6.72-15.68,8.38-10.37,3.15-21,5-31.35,8-3,.88-6.06,1.61-9.16,2.31-1.13-.12-2.24-.26-3.35-.48a73.22,73.22,0,0,0-11.14-1.72,19.92,19.92,0,0,0-6.51.79c-7.77,2.22-12.21,9.19-13.34,16.9-.06.44-.09.88-.12,1.32-1.63,7.7,6.31,14.85,11.64,19.22a64.4,64.4,0,0,0,18.08,10.53c17.78,6.44,38,2.1,56-.87,10.45-1.74,20.9-3.28,31.31-5.25,7.53-1.43,14.91-3.53,22.34-5.56,5.62-1.53,11.64-3.57,17.44-3.75a24.09,24.09,0,0,1,7.66.69c10.93,3.25,9.29,14.78,4.2,22.18-4.29,6.21-15.88,8.93-22.64,11.43-9.7,3.6-19.64,6.44-29.24,10.28-16.81,6.7-34.57,14.55-52.52,17.36-10.65,1.64-19.67-.11-29.81-3-6-1.67-16.83-5.72-13.88-13.88a11.67,11.67,0,0,1,.86-1.78c.31-.56.82-1,.85-1.74.2-2-2.14-.34-2.86.19-2.82,2.06-3.94,5.16-4.2,8.55s.69,7.83,3.15,10.39c16.66,17.46,43.74,17.82,65.5,12.64,6.68-1.57,13.2-3.67,19.82-5.45a176.47,176.47,0,0,1,28.74-4.87c23-2.32,47.09-.72,67.82-13.18,5.28-3.17,9.48-7.67,13.76-12,2-2,3.92-3.66,6.82-3.92s5.94-1.19,9-1.27a10.11,10.11,0,0,1,4.58.72c3.89,1.93,3.71,6.59,4.06,10.32a22.13,22.13,0,0,1-.17,3,15.44,15.44,0,0,1-.87,4.8,18.65,18.65,0,0,0-1.28,3.75,4.55,4.55,0,0,0,1.24,4.27c1.2,1.14,3.36,1.51,5,1.58a26.87,26.87,0,0,0,6.39-.51,21.36,21.36,0,0,1,2.67-.22,27.38,27.38,0,0,1,8.89.83c2.34.61,5,1.23,7.44.43,1.77-.6,2.44-2.28,3.4-3.71a8.77,8.77,0,0,1,2.9-2.74c1.19-.66,2.69-.86,3.48-2.05,1.85-2.65,0-4.95-1.58-7-1.23-1.67-1.43-3.5-1.63-5.55a26.72,26.72,0,0,1-.17-3.36c.09-3.09-.54-6.23-.7-9.34a66.47,66.47,0,0,0-1.25-10.63,22.32,22.32,0,0,0-7-11.49,17.93,17.93,0,0,0-6.41-3.63c-1-.35-4.91-1.15-3.9-3a2.65,2.65,0,0,1,2-1.06c3.61-.62,7.44.95,10.49,2.74a19.62,19.62,0,0,1,3.81,3.2c.77.74,1.25,1.7,2,2.44s1.2,1.38,1.81,2.09c2.79,3.27,9,.71,12.14-.56,1.18-.46,2.32-1,3.5-1.53,10.3-5.13,18.95-12.26,22.94-23.29.48-1.38,1.08-2.72,1.6-4.07.43-1.17.7-2.09,2.19-2.1,3.13,0,3.52,4.17,3.61,6.51a20.05,20.05,0,0,1-.4,6c-.46,1.78-1.66,4-.16,5.56,2.08,2.21,6.56,1.18,9.16.91a10.3,10.3,0,0,1,1.57,0c2.51.14,4.84,1.08,7.2,1.75a14.82,14.82,0,0,0,4.76.81,4.11,4.11,0,0,0,2.68-1c.79-.74.93-1.83,1.47-2.7a4.63,4.63,0,0,1,2.34-1.77C1851.57,199.49,1853.22,199.09,1853.83,198Z"/><path class="cls-1" d="M1666.69,162.77a12.51,12.51,0,0,0,4.63,15.44c5,3,11.07,1,13.51-4.54s.37-12.45-4.65-15.44S1669.11,157.27,1666.69,162.77Z"/><path class="cls-1" d="M1540.22,202.57c.81,3.93-3.55,6.7-6.94,4.79-4.81-2.67-1.17-11.22,4.32-8.2A5,5,0,0,1,1540.22,202.57Z"/><path class="cls-1" d="M1516.52,189.13a4.38,4.38,0,0,0,.82,7.49c4,1.89,7.32-3.07,5.21-6.65C1521.06,187.38,1518.39,187.6,1516.52,189.13Z"/><path class="cls-5" d="M1713.15,143.27a1.12,1.12,0,0,0-1.22-1l-8.91.49a1.2,1.2,0,0,0-1.06.82,1.13,1.13,0,0,0,.42,1.28l10.16,8.16a1.19,1.19,0,0,0,.51.24h.06a1.17,1.17,0,0,0,1.38-.93,1,1,0,0,0-.1-.75Z"/><path class="cls-5" d="M1738.43,147a1,1,0,0,0,.49.21h.06a1.19,1.19,0,0,0,1.41-.92,1.32,1.32,0,0,0-.06-.65l-.4-7.49a1.15,1.15,0,0,0-1.35-1.08l-8.16,1.19a1.17,1.17,0,0,0-1,.86,1.19,1.19,0,0,0,.42,1.24Z"/><path class="cls-5" d="M1764.28,132.32a1.07,1.07,0,0,0-.42-.84,1.16,1.16,0,0,0-.93-.24l-8.15,1.19a1.18,1.18,0,0,0-1,.86,1.21,1.21,0,0,0,.43,1.24l8.59,6.64a1.09,1.09,0,0,0,.49.21h0a1.18,1.18,0,0,0,1.41-.92,1.21,1.21,0,0,0-.06-.65Z"/><path class="cls-5" d="M1786.87,126.44a1.06,1.06,0,0,0-.44-.84,1.13,1.13,0,0,0-.9-.27l-8.18,1.19a1.17,1.17,0,0,0-1,.86,1.2,1.2,0,0,0,.42,1.24l8.57,6.63a1,1,0,0,0,.49.21h.05a1.15,1.15,0,0,0,1.39-.92,1.18,1.18,0,0,0,0-.65Z"/><path class="cls-5" d="M1804.13,152l-.53-8.83a1.15,1.15,0,0,0-1.17-1.11l-6.62-.06a1.17,1.17,0,0,0-.94,1.91l7.16,9.23a1.25,1.25,0,0,0,.72.45h0a1.18,1.18,0,0,0,1.39-.92A1.12,1.12,0,0,0,1804.13,152Z"/><path class="cls-5" d="M1780.66,150.05a1.23,1.23,0,0,0-.39-.83,1.16,1.16,0,0,0-.86-.28l-7.28.61a1.23,1.23,0,0,0-1,.74,1.18,1.18,0,0,0,.23,1.23l7.77,8.51a1.2,1.2,0,0,0,.65.39h.08a1.19,1.19,0,0,0,1.42-.92,1.32,1.32,0,0,0-.07-.65Z"/><path class="cls-5" d="M1759.06,156.3a1.27,1.27,0,0,0-.42-.87,1.23,1.23,0,0,0-.92-.27l-7.55,1a1.2,1.2,0,0,0-1,.79,1.24,1.24,0,0,0,.23,1.22l7.91,8.26a1.14,1.14,0,0,0,.62.35h.06a1.2,1.2,0,0,0,1.37-1.57Z"/><path class="cls-5" d="M1735.67,162.49a1.47,1.47,0,0,0-.33-.85,1.4,1.4,0,0,0-.85-.36l-8.49-.08a1.18,1.18,0,0,0-1.06.68,1.14,1.14,0,0,0,.14,1.26l8.34,9.92a1.16,1.16,0,0,0,.67.38h.06a1.17,1.17,0,0,0,1.38-.93,1,1,0,0,0,0-.6Z"/></g><path class="cls-6" d="M0,306.42c0,160.45,373.23,122.66,489.33,64,10.68-5.4,37.45-20.06,77.34-30.67,83.52-22.22,153.09-7.68,173.33-4,162.44,29.55,365.92-54.9,621.33-50.67,240.47,4,335.1,164.63,454.67,100,66.74-36.07,95.68-29.39,104-50.66V0H0Z"/><path class="cls-7" d="M926.67,0C921,33.11,1043.58,81.7,1120,100c222.75,53.33,447.5-56.35,441.33-100C1480.89,3.7,982.52.74,926.67,0Z"/><path class="cls-8" d="M1920,334.67c-50.55-58.33-132.4-142.58-241.33-210.14C1410.26-42,1168.66-2.14,1073.33,36.4c-26.17,10.58-46.92,19.76-64.46,28-14.48,6.79-20.57,10.25-46.77,23.06,0,0-26.31,12.85-48.84,23.43-38.21,18-100.17,35.29-146.59,47.54-228.91,60.42-403.76,37.9-469.34,27.11C176.28,165.62,75.15,127.72,0,92.89V0H1920Z"/></g></g></svg>