<svg xmlns="http://www.w3.org/2000/svg" xmlns:xlink="http://www.w3.org/1999/xlink" version="1.1"  x="0px" y="0px" width="32" height="32" viewBox="0 0 38 38" style="enable-background:new 0 0 38 38;" xml:space="preserve" viewbox="0 0 32 32">

<circle id="268154867_shock_x5F_color_grid" class="stshockcolor" cx="19" cy="19" r="11" style="fill: rgb(28, 139, 154);" data-st="fill:#85DED8;;"></circle>
<path class="st0" d="M36,19c0,9.374-7.626,17-17,17c-8.303,0-15.299-6.011-16.724-14h2.025C5.691,28.847,11.743,34,19,34  c8.284,0,15-6.716,15-15S27.284,4,19,4S4,10.716,4,19c0,0.338,0.028,0.668,0.05,1H2v-1C2,9.626,9.626,2,19,2S36,9.626,36,19z M18,12  v6h-6v2h6v6h2v-6h6v-2h-6v-6H18z" style="opacity:0.8;fill:#231F20;;"></path>
</svg>