<svg xmlns="http://www.w3.org/2000/svg" xmlns:xlink="http://www.w3.org/1999/xlink" version="1.1"  x="0px" y="0px" viewBox="0 0 38 38" style="enable-background:new 0 0 38 38;" xml:space="preserve" width="32" height="32" viewbox="0 0 32 32">

<path class="st0" d="M25,0c-2.8,0-8.8,6.9-11.9,13.6C11.2,17.7,10,21,10,24.9c0,2.2,0.6,4,1.2,5.1H10l0,2h1.5c-0.8,2.9-1.2,5-1.4,6  h2c0.3-1.2,0.7-3.3,1.5-6c1.6,0,3.4-0.1,5.4-0.8c1-0.3,2-0.7,2.9-1.2v-2.3c-1.1,0.6-2.3,1.1-3.6,1.6C17,29.8,15.7,30,14.2,30  c0.3-0.9,0.5-1.9,0.8-3c2.4-8.1,5.8-15,9.8-20l-1.6-1.3c-4.2,5.1-7.7,12.3-10.1,20.7c-0.2,0.6-0.3,1.2-0.5,1.8  c-0.3-0.9-0.6-2-0.6-3.4c0-3.5,1.1-6.6,2.9-10.5C18.2,7.4,23.7,2,25,2c1.2,0,3,1.1,3,3.9c0,2.7-0.9,5.6-2.9,9.7L25,15.8  c-1.8,7.3-4.3,8.6-7.9,9.8l0.6,1.9c4.6-1.5,7.3-3.7,9.1-11.1C29.1,12,30,8.9,30,5.9C30,1.8,27.1,0,25,0z" style="fill:#231F20;;"></path>
</svg>