<svg xmlns="http://www.w3.org/2000/svg" xmlns:xlink="http://www.w3.org/1999/xlink" version="1.1"  x="0px" y="0px" viewBox="0 0 38 38" style="enable-background:new 0 0 38 38;" xml:space="preserve" width="32" height="32" viewbox="0 0 32 32">

<path class="st0" d="M36,32H2V6h10v22h-2V8H4v22h30V8h-6v20h-2V8h-6v20h-2V6h18V32z M31,12.5c-0.8,0-1.5-0.7-1.5-1.5  s0.7-1.5,1.5-1.5s1.5,0.7,1.5,1.5S31.8,12.5,31,12.5z M23,12.5c-0.8,0-1.5-0.7-1.5-1.5s0.7-1.5,1.5-1.5s1.5,0.7,1.5,1.5  S23.8,12.5,23,12.5z M15,12.5c-0.8,0-1.5-0.7-1.5-1.5s0.7-1.5,1.5-1.5s1.5,0.7,1.5,1.5S15.8,12.5,15,12.5z M7,12.5  c-0.8,0-1.5-0.7-1.5-1.5S6.2,9.5,7,9.5s1.5,0.7,1.5,1.5S7.8,12.5,7,12.5z" style="fill:#231F20;;"></path>
</svg>