<svg xmlns="http://www.w3.org/2000/svg" xmlns:xlink="http://www.w3.org/1999/xlink" version="1.1"  x="0px" y="0px" width="32" height="32" viewBox="0 0 64 64" style="enable-background:new 0 0 64 64;" xml:space="preserve" viewbox="0 0 32 32">

<g>
	<defs>
		<circle id="57129446_SVGID_1__grid" cx="32" cy="32" r="26"></circle>
	</defs>
	<use xlink:href="#57129446_SVGID_1__grid" class="stshockcolor" style="fill: rgb(15, 74, 82); overflow: visible;" data-st="fill:#75A2D9;;overflow:visible;"></use>
	<clipPath id="57129446_SVGID_2__grid">
		<use xlink:href="#57129446_SVGID_1__grid" style="overflow:visible;"></use>
	</clipPath>
	<polygon class="st0" points="6,58 6,47.011 58,16.989 58,58  " style="opacity:0.2;clip-path:url(#57129446_SVGID_2__grid);fill:#020200;;"></polygon>
</g>
<g>
	<path class="st3" d="M36,48c0,2.209-1.791,4-4,4s-4-1.791-4-4s1.791-4,4-4S36,45.791,36,48z M41.526,20.728   c-1.47-2.544-3.842-4.365-6.68-5.125c-2.836-0.76-5.802-0.37-8.347,1.099c-1.003,0.579-2.247,1.297-3.5,2.021v6.929   c2.228-1.286,5.51-3.182,6.5-3.753c1.157-0.668,2.505-0.846,3.794-0.5c1.29,0.346,2.368,1.173,3.036,2.33   c0.668,1.156,0.845,2.503,0.5,3.793c-0.346,1.29-1.174,2.369-2.33,3.036L29,33.732V42h6v-4.803l2.5-1.443   c2.545-1.469,4.364-3.841,5.125-6.679C43.386,26.236,42.995,23.271,41.526,20.728z" style="fill:#DEDCD9;;"></path>
	<g class="st1" style="opacity:0.5;;">
		<path class="st2" d="M36,48c0,2.209-1.791,4-4,4s-4-1.791-4-4s1.791-4,4-4S36,45.791,36,48z M41.526,20.728    c-1.47-2.544-3.842-4.365-6.68-5.125c-2.836-0.76-5.802-0.37-8.347,1.099c-1.003,0.579-2.247,1.297-3.5,2.021v6.929    c2.228-1.286,5.51-3.182,6.5-3.753c1.157-0.668,2.505-0.846,3.794-0.5c1.29,0.346,2.368,1.173,3.036,2.33    c0.668,1.156,0.845,2.503,0.5,3.793c-0.346,1.29-1.174,2.369-2.33,3.036L29,33.732V42h6v-4.803l2.5-1.443    c2.545-1.469,4.364-3.841,5.125-6.679C43.386,26.236,42.995,23.271,41.526,20.728z" style="fill:#FFFFFF;;"></path>
	</g>
</g>
</svg>