<svg xmlns="http://www.w3.org/2000/svg" xmlns:xlink="http://www.w3.org/1999/xlink" version="1.1"  x="0px" y="0px" width="32" height="32" viewBox="0 0 38 38" style="enable-background:new 0 0 38 38;" xml:space="preserve" viewbox="0 0 32 32">

<path class="st0" d="M35,26c-1.131,0-2.118,0.153-3,0.409v-6.104l2.47,1.543C34.635,21.951,34.818,22,34.999,22  c0.333,0,0.659-0.166,0.849-0.47c0.293-0.469,0.15-1.086-0.317-1.378L30,16.695V11c0-0.553-0.447-1-1-1h-4c-0.553,0-1,0.447-1,1  c0,0.552,0.447,1,1,1h3v3.445l-8.47-5.294c-0.324-0.202-0.736-0.202-1.06,0l-16,10.001c-0.469,0.292-0.611,0.909-0.318,1.378  s0.911,0.612,1.378,0.317L19,12.179l11,6.875V27c0,0.083,0.028,0.157,0.047,0.235c-1.514,0.84-2.679,1.982-3.754,3.058  c-0.763,0.764-1.489,1.484-2.293,2.085V25c0-0.553-0.447-1-1-1h-8c-0.552,0-1,0.447-1,1v8.234c-0.929-0.326-1.736-0.72-2.553-1.129  c-1.044-0.522-2.108-1.052-3.447-1.45V21.41l-2,1.25v7.557C5.123,30.082,4.142,30,3,30H2v2h1c3.764,0,5.604,0.92,7.553,1.895  C12.623,34.93,14.764,36,19,36c4.414,0,6.695-2.28,8.707-4.293C29.696,29.718,31.414,28,35,28h1v-2H35z M16,33.751V26h6v7.479  C21.148,33.8,20.182,34,19,34C17.829,34,16.86,33.903,16,33.751 M22,19c0-1.654-1.346-3-3-3c-1.654,0-3,1.346-3,3  c0,1.654,1.346,3,3,3C20.654,22,22,20.654,22,19 M18,19c0-0.551,0.449-1,1-1s1,0.449,1,1s-0.449,1-1,1S18,19.551,18,19 M27,8  c-0.553,0-1-0.448-1-1c0-1.414,0.747-2.162,1.293-2.707C27.783,3.803,28,3.562,28,3c0-0.552,0.447-1,1-1s1,0.448,1,1  c0,1.414-0.747,2.162-1.293,2.707C28.217,6.197,28,6.438,28,7C28,7.552,27.553,8,27,8" style="fill:#231F20;;"></path>
</svg>