<svg  data-name="Layer 1" xmlns="http://www.w3.org/2000/svg" viewBox="0 0 32 32" width="32" height="32" viewbox="0 0 32 32"><title>Off Icons - Iconshock</title><path id="shock_color" class="stshockcolor" d="M28.15,18.42A12.15,12.15,0,1,1,11.31,7.22,1.28,1.28,0,0,1,13.1,8.39a1.25,1.25,0,0,1-.75,1.16,9.59,9.59,0,0,0,4,18.45,9.69,9.69,0,0,0,9.27-9.42,9.57,9.57,0,0,0-5.93-9,1.25,1.25,0,0,1-.75-1.16,1.29,1.29,0,0,1,1.79-1.18A12.16,12.16,0,0,1,28.15,18.42ZM16,18.41a1.28,1.28,0,0,0,1.28-1.27V2.71a1.28,1.28,0,0,0-2.56,0V17.14A1.28,1.28,0,0,0,16,18.41Z" fill="#acf0f2"></path><path d="M20.69,7.21A1.29,1.29,0,0,0,18.9,8.39a1.25,1.25,0,0,0,.75,1.16,9.57,9.57,0,0,1,5.93,9A9.69,9.69,0,0,1,16.31,28a9.59,9.59,0,0,1-4-18.45,1.25,1.25,0,0,0,.75-1.16,1.28,1.28,0,0,0-1.79-1.17,12.14,12.14,0,1,0,9.38,0Z" fill="#fff" opacity="0.5"></path><path d="M16,18.91a1.78,1.78,0,0,0,1.78-1.77V2.71a1.78,1.78,0,0,0-3.56,0V17.14A1.78,1.78,0,0,0,16,18.91Zm-.78-16.2a.78.78,0,0,1,1.56,0V17.14a.78.78,0,0,1-1.56,0Zm5.66,4A1.8,1.8,0,0,0,18.4,8.39,1.73,1.73,0,0,0,19.46,10a9,9,0,0,1,5.62,8.57A9.18,9.18,0,0,1,16.3,27.5a9.09,9.09,0,0,1-9.38-9.08A9.06,9.06,0,0,1,12.54,10,1.73,1.73,0,0,0,13.6,8.39a1.79,1.79,0,0,0-2.48-1.64,12.64,12.64,0,1,0,9.76,0ZM16,30.06A11.64,11.64,0,0,1,11.5,7.68a.7.7,0,0,1,.31-.07.77.77,0,0,1,.44.14.77.77,0,0,1-.09,1.34A10.09,10.09,0,0,0,16.33,28.5a10.19,10.19,0,0,0,9.75-9.91,10,10,0,0,0-6.24-9.5.77.77,0,0,1-.09-1.34.77.77,0,0,1,.75-.07A11.64,11.64,0,0,1,16,30.06Z" fill="#4d5152"></path></svg>