<svg xmlns="http://www.w3.org/2000/svg" xmlns:xlink="http://www.w3.org/1999/xlink" version="1.1"  x="0px" y="0px" width="32" height="32" viewBox="0 0 32 32" style="enable-background:new 0 0 32 32;" xml:space="preserve" viewbox="0 0 32 32">

<path class="st0" d="M18.887,17.06c0.382-0.64,0.67-1.33,0.859-2.06H22v-4h-2.254c-0.189-0.73-0.478-1.42-0.859-2.059l1.601-1.601  L17.66,4.513L16.06,6.114c-0.64-0.382-1.33-0.67-2.06-0.86V3h-4v2.254c-0.73,0.19-1.42,0.478-2.059,0.86L6.34,4.513L3.513,7.34  l1.601,1.601C4.732,9.58,4.444,10.27,4.254,11H2v4h2.254c0.19,0.73,0.479,1.42,0.86,2.06L3.513,18.66l2.827,2.827l1.601-1.601  C8.58,20.269,9.27,20.557,10,20.746V23h4v-2.254c0.73-0.189,1.42-0.478,2.06-0.859l1.601,1.601l2.827-2.827L18.887,17.06z   M16.192,18.605l-0.341,0.229c-0.738,0.496-1.564,0.841-2.453,1.025L13,19.942V22h-2v-2.058l-0.398-0.082  c-0.889-0.185-1.714-0.529-2.453-1.025l-0.342-0.229L6.34,20.073L4.927,18.66l1.467-1.468l-0.229-0.341  c-0.495-0.738-0.84-1.564-1.026-2.454L5.056,14H3v-2h2.056l0.083-0.398c0.186-0.89,0.531-1.715,1.026-2.454l0.229-0.341L4.927,7.34  L6.34,5.927l1.467,1.468l0.342-0.229c0.738-0.496,1.564-0.841,2.453-1.025L11,6.057V4h2v2.057l0.398,0.083  c0.889,0.184,1.714,0.529,2.453,1.025l0.341,0.229l1.468-1.468l1.413,1.413l-1.468,1.467l0.229,0.342  c0.496,0.738,0.841,1.564,1.025,2.453L18.942,12H21v2h-2.058l-0.082,0.398c-0.185,0.889-0.529,1.714-1.025,2.453l-0.229,0.341  l1.468,1.468l-1.413,1.413L16.192,18.605z M12,10c-1.654,0-3,1.346-3,3s1.346,3,3,3s3-1.346,3-3S13.654,10,12,10z M12,15  c-1.103,0-2-0.897-2-2s0.897-2,2-2s2,0.897,2,2S13.103,15,12,15z M30,24v-1h-2.04c-0.08-0.59-0.31-1.13-0.67-1.59l1.45-1.45  l-0.7-0.7l-1.45,1.45c-0.46-0.36-1-0.59-1.59-0.67V18h-1v2.04c-0.59,0.08-1.13,0.31-1.59,0.67l-1.45-1.45l-0.7,0.7l1.45,1.45  c-0.36,0.46-0.59,1-0.67,1.59H19v1h2.04c0.08,0.59,0.31,1.13,0.67,1.59l-1.45,1.45l0.7,0.7l1.45-1.45c0.46,0.36,1,0.59,1.59,0.67V29  h1v-2.04c0.59-0.08,1.13-0.31,1.59-0.67l1.45,1.45l0.7-0.7l-1.45-1.45c0.36-0.46,0.59-1,0.67-1.59H30z M24.5,26  c-1.38,0-2.5-1.12-2.5-2.5s1.12-2.5,2.5-2.5s2.5,1.12,2.5,2.5S25.88,26,24.5,26z" style="fill-rule:evenodd;clip-rule:evenodd;;"></path>
</svg>