<svg xmlns="http://www.w3.org/2000/svg" xmlns:xlink="http://www.w3.org/1999/xlink" version="1.1"  x="0px" y="0px" width="32" height="32" viewBox="0 0 64 64" style="enable-background:new 0 0 64 64;" xml:space="preserve" viewbox="0 0 32 32">

<path class="st3" d="M45.417,6c-0.97,0-1.539,0.317-2.14,0.863L21.655,26.521c-0.611,0.556-0.818,1.43-0.52,2.2  C21.433,29.492,22.174,30,23,30h13.453c0.715,0,1.375-0.381,1.732-1L50.377,7.884c0.224-0.389,0.224-0.867,0-1.256  C50.152,6.239,49.737,6,49.288,6H45.417z" style="fill:#C1C1BC;;"></path>
<g>
	<defs>
		<path id="573570766_SVGID_1_" d="M51.911,23C47.911,23,20,23,16,23s-7,1-9,5c-3,1-5,2-5,4s4,5,14,5s22,0,26,0    c4.402,0,12.47-5.167,17.414-8.022c3.662-2.115,0.321-4.486,0.321-4.486l4.147-7.183c0.156-0.27,0.156-0.603,0-0.873    C63.728,16.166,63.438,16,63.127,16h-2.689c-0.674,0-1.069,0.221-1.486,0.6L51.911,23z"></path>
	</defs>
	<use xlink:href="#573570766_SVGID_1_" style="overflow:visible;fill:#C1C1BC;"></use>
	<clipPath id="573570766_SVGID_2_">
		<use xlink:href="#573570766_SVGID_1_" style="overflow:visible;"></use>
	</clipPath>
	<g class="st2" style="clip-path:url(#573570766_SVGID_2_);;">
		<path class="stshockcolor" d="M14.124,37H63v-4c-6.21,0-39.361,0-42.841,0C17.358,33,15.573,34.214,14.124,37z" style="fill:#75A2D9;;" data-st="fill:#75A2D9;;"></path>
		<path class="st1" d="M5,44.105c2.598-4.5,4.619-7,6.159-9.668c1.54-2.666,3.521-4.438,7-4.438C22,30,64,30,64,30V16H2v28L5,44.105    z" style="opacity:0.3;fill:#FFFFFF;;"></path>
	</g>
</g>
<path class="st3" d="M61.561,38.042c-0.461,0-0.732-0.151-1.018-0.411l-9.263-8.328c-0.314-0.286-0.244-1.281,0.64-1.281  l5.987,0.036c0.34,0,0.891,0.217,1.055,0.5l4.958,8.588c0.106,0.185,0.106,0.412,0,0.598c-0.106,0.185-0.305,0.299-0.518,0.299  H61.561z" style="fill:#C1C1BC;;"></path>
<g>
	<path class="st3" d="M48.417,57c-0.97,0-1.539-0.317-2.14-0.863L24.655,36.479c-0.611-0.556-0.818-1.43-0.52-2.2   C24.433,33.508,25.174,33,26,33h13.453c0.715,0,1.375,0.381,1.732,1l12.191,21.115c0.224,0.389,0.224,0.867,0,1.256   C53.152,56.761,52.737,57,52.288,57H48.417z" style="fill:#C1C1BC;;"></path>
	<path class="st1" d="M48.417,57c-0.97,0-1.539-0.317-2.14-0.863L24.655,36.479c-0.611-0.556-0.818-1.43-0.52-2.2   C24.433,33.508,25.174,33,26,33h13.453c0.715,0,1.375,0.381,1.732,1l12.191,21.115c0.224,0.389,0.224,0.867,0,1.256   C53.152,56.761,52.737,57,52.288,57H48.417z" style="opacity:0.3;fill:#FFFFFF;;"></path>
</g>
<path class="st0" d="M14.134,30h-3l1.732-3h3L14.134,30z M23,27h-3l-1.732,3h3L23,27z M30,27h-3l-1.732,3h3L30,27z M37,27h-3  l-1.732,3h3L37,27z M44,27h-3l-1.732,3h3L44,27z M51,27h-3l-1.732,3h3L51,27z" style="opacity:0.6;fill:#FFFFFF;;"></path>
</svg>