<svg xmlns="http://www.w3.org/2000/svg" xmlns:xlink="http://www.w3.org/1999/xlink" version="1.1"  x="0px" y="0px" width="32" height="32" viewBox="0 0 38 38" enable-background="new 0 0 38 38" xml:space="preserve" viewbox="0 0 32 32">
<path fill="#231F20" d="M12,30v2h14v-2H12z M27,0H11C9.43,0,6.58,0.86,6.09,4h2.04C8.64,2.14,10.57,2.01,11,2h16  c2.82,0,2.99,2.5,3,3v27.99C29.99,33.5,29.82,36,27,36H11c-2.82,0-2.99-2.5-3-3V20h14v-2H8v-4h14v-2H8V8h14V6H6v27  c0,1.73,1.04,5,5,5h16c3.96,0,5-3.27,5-5V5C32,3.27,30.96,0,27,0z"></path>
</svg>