<svg xmlns="http://www.w3.org/2000/svg" xmlns:xlink="http://www.w3.org/1999/xlink" version="1.1"  x="0px" y="0px" width="32" height="32" viewBox="0 0 38 38" enable-background="new 0 0 38 38" xml:space="preserve" viewbox="0 0 32 32">
<path fill="#231F20" d="M38,17c0,8.271-8.523,15-19,15c-0.649,0-1.291-0.026-1.923-0.077L11,38v-9.556  c0.645,0.264,1.309,0.504,2,0.704v4.023l3.347-3.347C17.213,29.93,18.095,30,19,30c9.374,0,17-5.832,17-13c0-7.168-7.626-13-17-13  S2,9.832,2,17c0,4.307,2.766,8.117,7,10.48v2.242C3.608,27.074,0,22.372,0,17C0,8.729,8.523,2,19,2S38,8.729,38,17z"></path>
</svg>