<svg xmlns="http://www.w3.org/2000/svg" xmlns:xlink="http://www.w3.org/1999/xlink" version="1.1"  x="0px" y="0px" width="32" height="32" viewBox="0 0 32 32" style="enable-background:new 0 0 32 32;" xml:space="preserve" viewbox="0 0 32 32">

<path id="2662293588_shock_x5F_color_grid" class="stshockcolor" d="M5.498,27.5l0.055-0.55c0.415-4.165,3.267-7.681,7.266-8.957l0.29-0.093L16,20.793  l2.893-2.893l0.29,0.093c3.998,1.276,6.851,4.792,7.265,8.957l0.056,0.55H5.498z M21.5,10c0-3.033-2.468-5.5-5.5-5.5  c-3.033,0-5.5,2.467-5.5,5.5s2.467,5.5,5.5,5.5C19.032,15.5,21.5,13.033,21.5,10z" style="fill: rgb(255, 255, 255);" data-st="fill:#AAAAAA;;"></path>
<path class="st1" d="M18.76,17.36L16,20.12l-2.76-2.76C8.5,18.59,5,22.88,5,28h22C27,22.88,23.5,18.59,18.76,17.36z M12.97,18.47  L16,21.5l3.03-3.03c3.729,1.19,6.52,4.511,6.92,8.53H6.05C6.45,22.98,9.24,19.66,12.97,18.47z M16,4c-3.31,0-6,2.69-6,6s2.69,6,6,6  c3.31,0,6-2.69,6-6S19.31,4,16,4z M16,15c-2.76,0-5-2.24-5-5s2.24-5,5-5s5,2.24,5,5S18.76,15,16,15z" style="fill:#4D5152;;"></path>
</svg>