<svg xmlns="http://www.w3.org/2000/svg" width="17.145" height="17.177" viewBox="0 0 17.145 17.177">
    <path fill="none" stroke="#fff" stroke-linecap="round" stroke-linejoin="round" stroke-width="1.5px" d="M18.812 14.736V17.1a1.573 1.573 0 0 1-1.712 1.569 15.567 15.567 0 0 1-6.788-2.415 15.339 15.339 0 0 1-4.72-4.72 15.567 15.567 0 0 1-2.415-6.82A1.573 1.573 0 0 1 4.74 3H7.1a1.573 1.573 0 0 1 1.573 1.353 10.1 10.1 0 0 0 .551 2.21 1.573 1.573 0 0 1-.354 1.66l-1 1a12.586 12.586 0 0 0 4.72 4.72l1-1a1.573 1.573 0 0 1 1.66-.354 10.1 10.1 0 0 0 2.21.551 1.573 1.573 0 0 1 1.352 1.596z" transform="translate(-2.417 -2.25)"/>
</svg>
