<svg xmlns="http://www.w3.org/2000/svg" width="12.743" height="15.876" viewBox="0 0 12.743 15.876">
    <defs>
        <style>
            .cls-1{fill:#fff;stroke:#fff;stroke-width:.2px}
        </style>
    </defs>
    <g id="Icon_ionic-ios-notifications-outline" transform="translate(-6.665 -3.83)">
        <path id="Path_6491" d="M17.86 28.336a.507.507 0 0 0-.5.4.982.982 0 0 1-.2.427.741.741 0 0 1-.631.231.753.753 0 0 1-.631-.231.982.982 0 0 1-.2-.427.507.507 0 0 0-.5-.4.511.511 0 0 0-.5.623 1.751 1.751 0 0 0 1.822 1.454 1.747 1.747 0 0 0 1.822-1.454.513.513 0 0 0-.5-.623z" class="cls-1" transform="translate(-3.51 -10.806)"/>
        <path id="Path_6492" d="M19.142 15.539c-.6-.8-1.791-1.262-1.791-4.823 0-3.655-1.614-5.125-3.119-5.477-.141-.035-.243-.082-.243-.231v-.114a.961.961 0 0 0-.94-.964h-.024a.961.961 0 0 0-.94.964v.114c0 .145-.1.2-.243.231-1.508.357-3.119 1.822-3.119 5.477 0 3.561-1.187 4.024-1.791 4.823a.778.778 0 0 0 .623 1.246h10.976a.778.778 0 0 0 .611-1.246zm-1.528.227H8.477a.172.172 0 0 1-.129-.286 4.746 4.746 0 0 0 .823-1.309 8.879 8.879 0 0 0 .56-3.456 6.009 6.009 0 0 1 .819-3.4 2.514 2.514 0 0 1 1.516-1.081 1.373 1.373 0 0 0 .729-.411.31.31 0 0 1 .466-.008 1.419 1.419 0 0 0 .739.419 2.514 2.514 0 0 1 1.516 1.081 6.009 6.009 0 0 1 .819 3.4 8.879 8.879 0 0 0 .56 3.456 4.8 4.8 0 0 0 .842 1.328.162.162 0 0 1-.123.268z" class="cls-1"/>
    </g>
</svg>
