<svg xmlns="http://www.w3.org/2000/svg" xmlns:xlink="http://www.w3.org/1999/xlink" viewBox="0 0 1921.67 534.38"><defs><style>.cls-1{fill:#2f2f2f;}.cls-2{fill:#ed6c30;}.cls-3{fill:#fff;}.cls-4{fill:#757f3f;}.cls-5{fill:#bdcf46;}.cls-6{opacity:0.39;fill:url(#Jaune_vert);}.cls-7{fill:url(#Rouge_orangé);}.cls-8{fill:url(#Vert_hiver);}</style><linearGradient id="Jaune_vert" y1="267.19" x2="1921.67" y2="267.19" gradientUnits="userSpaceOnUse"><stop offset="0.01" stop-color="#e8f3dd"/><stop offset="0.45" stop-color="#d5e8bf"/><stop offset="1" stop-color="#d1e397"/></linearGradient><linearGradient id="Rouge_orangé" x1="926.48" y1="57.16" x2="1561.46" y2="57.16" gradientUnits="userSpaceOnUse"><stop offset="0.01" stop-color="#feede5"/><stop offset="0.45" stop-color="#fde1d4"/><stop offset="1" stop-color="#fbc8b4"/></linearGradient><linearGradient id="Vert_hiver" y1="133.27" x2="1920" y2="133.27" gradientUnits="userSpaceOnUse"><stop offset="0" stop-color="#ecf3f3"/><stop offset="0.5" stop-color="#cfdfdf"/><stop offset="1" stop-color="#bcd2d3"/></linearGradient></defs><title>bacckground (2)</title><g id="Calque_2" data-name="Calque 2"><g id="bacckground"><g id="croco"><path class="cls-1" d="M1870.6,271.09a111.52,111.52,0,0,0,22.71-25.41l-14.52-5.05-11.35,15.88Z"/><path class="cls-1" d="M1902.32,222s.11,8.39-4.21,15.27l-12.51-9.09,4.33-10.25Z"/><path class="cls-1" d="M1838.81,284.27s10.14,1,18.83-4.23l-23-25.24L1809,264.9l1.15,16.29Z"/><path class="cls-2" d="M1638.76,300.08A61.89,61.89,0,0,0,1653.65,288c3.86-4.42,7-9.47,11.18-13.62,4.76-4.65,9.28-6.92,15.7-8.64,10.23-2.76,16.74,5.4,26.06,7.44,8.12,1.78,15.72,1.46,23.88.5,6.74-.77,13.26-2.62,20.17-1.74s14.63,6.62,16.31,13.46c2.46,10-4.27,15.93-12.18,20.78-3.13,1.92-6.44,4.1-10,5.29-2.16.73-4.49.66-6.66,1.42-3.32,1.1-6.39,3.08-9.58,4.56a61.54,61.54,0,0,1-9.92,3.68,44.9,44.9,0,0,1-9.85,2q-4.46.16-8.93.41a85.68,85.68,0,0,0-8.65.66,34.76,34.76,0,0,0-8,2.42,49.3,49.3,0,0,0-5.42,2.64c-3.77,2.1-7.74,4.15-11.36,6.5-3.33,2.11-7.83,2.47-11.71,2.93-9,1-18.31.27-26.42-3.93-5.23-2.69-11-6.7-14.23-11.75a7.83,7.83,0,0,1-1.26-6.3,5.23,5.23,0,0,0,.37-1.37,3.06,3.06,0,0,1,.14-1.18,8.89,8.89,0,0,1,1.68-2.23c1.08-1.23,2.57-1.61,4-2.23A178.17,178.17,0,0,0,1638.76,300.08Z"/><path class="cls-3" d="M1667.36,297.74a4.74,4.74,0,0,0,1.74-2.38c.87-2.45,1.62-4.92,2.34-7.42a40,40,0,0,0,1.08-4.35,1.75,1.75,0,0,0-.42-1.34c-.29-.42-.49-.45-1.08-.5a2.58,2.58,0,0,0-1,.26,5.75,5.75,0,0,1-1.5.08c-1.58,0-3.13.38-4.66.48-1.86.08-3.69.44-5.52.63-1.06.12-1.69.24-1.34,1.29a11,11,0,0,0,.69,1.81c.29.71.49,1.46.83,2.18a28.29,28.29,0,0,0,2.35,4c1,1.57,1.73,3.45,3.12,4.79A2.62,2.62,0,0,0,1667.36,297.74Z"/><path class="cls-3" d="M1700.55,311.42a24.11,24.11,0,0,1,3.54,7.29c.23,1-.49,1.18-1.2,1.7a6.12,6.12,0,0,1-2.26,1.21c-1.77.25-3.58.22-5.33.52a6.05,6.05,0,0,1-1.62.28,10.61,10.61,0,0,1-1.47-.29c-.54-.11-1.36-.28-1.51-.81a3.58,3.58,0,0,1,.18-1c.07-.61.06-1.2.19-1.85.54-2.67,1-10.82,4.94-11.06,1.13-.08,2.57,1.54,3.24,2.31C1699.68,310.23,1700.12,310.8,1700.55,311.42Z"/><path class="cls-3" d="M1725.08,283.1c-.82,1.83-1.78,5.62-4.54,4.41-1.13-.5-1.74-1.76-2.45-2.74-2.78-3.75-7-9.59-2.54-13.49,1.83-1.6,5-1.59,7.28-1.21,1.76.27,5.63,1.2,5.26,3.7A38.09,38.09,0,0,1,1725.08,283.1Z"/><path class="cls-4" d="M1913.8,266.23a1.79,1.79,0,0,0,.19-1.05c-.21-2-1.56-3.54-2.31-5.35-.85-2.19-.64-4.72-.66-7-.06-1.95-.1-3.9-.27-5.85-.42-4.57-1.39-9.41-4.4-13a10.35,10.35,0,0,0-1-1.09,17.18,17.18,0,0,0-4.93-2.83c-1-.45-4-1.43-4-2.86,0-2,2.33-1.45,3.58-1.43,4.78.07,1.25-18.69.74-21.06-3.12-14.11-10.18-27.58-22.41-35.75-14.59-9.75-31.82-15.27-49.16-17.16-8.59-.93-17.22-1.4-25.86-1.54-8-.12-16.52-.51-24.45.85-1.88.3-9.32,1.59-6.27,5.1,1.66,1.89,3.65,2,6,2.41,20.07,3.54,41,6.48,59,16.81,3.93,2.28,8.49,5,10,9.58a6.34,6.34,0,0,1-.22,5c-.81,1.27-2.12.76-3.31.52-1.72-.35-3.39-.81-5.08-1.2a9.35,9.35,0,0,0-1.38-.27c-2.48-.12-3.82,2.46-5.66,3.71s-2.57,1.73-5.06,1.33a54,54,0,0,1-5.55-1.24,20.64,20.64,0,0,0-4.62-1.23c-2.23-.09-3.82,1.71-5.55,2.9-2.28,1.56-3.42,3-6.36,2.94-3.8-.06-8.17-2.75-11.91-2-4.14.89-6,5.78-10,7.06a9,9,0,0,1-5.07-.36c-2.68-.74-5.31-1.34-8-1.89a10.36,10.36,0,0,0-2.61-.15c-2,.13-4.07,2.16-5.61,3.32-2.62,2-4.84,4.9-8.25,5.56-9.05,1.74-18-1.72-25.74-6.29-4.13-2.44-8.8-4.69-13.68-4.73a21.89,21.89,0,0,0-15,5.8c-4.78,4.36-5.45,10.25-9.2,15.1a46.69,46.69,0,0,1-12.4,10.55c-4.29,2.69-9.28,6.06-14.14,7.55-9.35,2.85-18.91,4.51-28.27,7.2-2.71.8-5.46,1.46-8.26,2.08a30.28,30.28,0,0,1-3-.43,68.09,68.09,0,0,0-10-1.56,18.2,18.2,0,0,0-5.87.72c-7,2-11,8.28-12,15.24,0,.39-.08.79-.11,1.19-1.47,6.94,5.69,13.39,10.5,17.33a57.67,57.67,0,0,0,16.3,9.49c16,5.81,34.26,1.9,50.51-.78,9.41-1.56,18.84-2.95,28.22-4.73,6.79-1.29,13.45-3.18,20.15-5,5.06-1.38,10.5-3.22,15.73-3.38a21.67,21.67,0,0,1,6.9.63c9.86,2.93,8.38,13.32,3.79,20-3.87,5.61-14.32,8.05-20.42,10.31-8.74,3.24-17.7,5.81-26.36,9.27-15.15,6-31.17,13.12-47.36,15.65-9.6,1.49-17.73-.09-26.87-2.65-5.38-1.51-15.18-5.16-12.52-12.52a10.8,10.8,0,0,1,.77-1.61,3.69,3.69,0,0,0,.77-1.56c.18-1.81-1.93-.31-2.58.16-2.54,1.86-3.56,4.66-3.79,7.72s.63,7,2.84,9.36c15,15.75,39.44,16.07,59.06,11.4,6-1.41,11.91-3.31,17.88-4.92a159.58,159.58,0,0,1,25.91-4.39c20.69-2.08,42.47-.65,61.15-11.88,4.76-2.85,8.55-6.91,12.41-10.83,1.83-1.85,3.54-3.3,6.15-3.53s5.36-1.07,8.12-1.15a9.3,9.3,0,0,1,4.14.65c3.51,1.74,3.34,5.94,3.65,9.31a19.35,19.35,0,0,1-.14,2.74,14,14,0,0,1-.79,4.33,17.09,17.09,0,0,0-1.16,3.38,4.11,4.11,0,0,0,1.12,3.85,7.43,7.43,0,0,0,4.48,1.43A24.85,24.85,0,0,0,1820,329a17.27,17.27,0,0,1,2.4-.2,24.3,24.3,0,0,1,8,.75c2.11.55,4.52,1.1,6.71.38,1.59-.54,2.2-2.05,3.06-3.34a8,8,0,0,1,2.62-2.48c1.07-.59,2.42-.77,3.14-1.84,1.66-2.39,0-4.47-1.43-6.34a9.44,9.44,0,0,1-1.47-5,25.31,25.31,0,0,1-.15-3c.08-2.78-.48-5.62-.63-8.42a59.22,59.22,0,0,0-1.13-9.58,20,20,0,0,0-6.3-10.36,16,16,0,0,0-5.77-3.28c-1-.31-4.43-1-3.52-2.69a2.42,2.42,0,0,1,1.76-1c3.26-.56,6.71.86,9.46,2.47a18,18,0,0,1,3.43,2.88c.7.67,1.13,1.54,1.8,2.2s1.09,1.26,1.64,1.9c2.51,2.94,8.07.63,10.95-.51,1.06-.42,2.09-.89,3.15-1.39,9.29-4.62,17.09-11.05,20.69-21,.43-1.25,1-2.45,1.44-3.67.39-1.06.63-1.89,2-1.9,2.83,0,3.18,3.76,3.26,5.87a18.09,18.09,0,0,1-.36,5.45c-.42,1.61-1.5,3.58-.14,5,1.87,2,5.91,1.06,8.25.83a8.43,8.43,0,0,1,1.42,0,29.71,29.71,0,0,1,6.49,1.57,13.67,13.67,0,0,0,4.29.74,3.81,3.81,0,0,0,2.42-.9c.72-.67.84-1.65,1.32-2.44a4.26,4.26,0,0,1,2.11-1.59C1911.77,267.58,1913.25,267.23,1913.8,266.23Z"/><path class="cls-1" d="M1745.06,234.48a11.27,11.27,0,0,0,4.17,13.92,8.41,8.41,0,0,0,12.19-4.09c2.18-5,.33-11.23-4.2-13.93A8.37,8.37,0,0,0,1745.06,234.48Z"/><path class="cls-1" d="M1631,270.36c.72,3.55-3.2,6-6.26,4.32-4.34-2.4-1-10.12,3.9-7.39A4.53,4.53,0,0,1,1631,270.36Z"/><path class="cls-1" d="M1609.64,258.24a4,4,0,0,0,.74,6.76c3.62,1.7,6.61-2.77,4.71-6C1613.74,256.67,1611.33,256.87,1609.64,258.24Z"/><path class="cls-5" d="M1787,216.9a1,1,0,0,0-1.1-.9l-8,.43a1.08,1.08,0,0,0-1,.74,1,1,0,0,0,.37,1.16l9.17,7.36a1.49,1.49,0,0,0,.46.22h.05a1.07,1.07,0,0,0,1.25-.84,1,1,0,0,0-.09-.67Z"/><path class="cls-5" d="M1809.75,220.28a1.09,1.09,0,0,0,.44.19h0a1.05,1.05,0,0,0,1.21-1.42l-.36-6.76a1,1,0,0,0-.38-.75,1,1,0,0,0-.83-.22l-7.35,1.07a1.06,1.06,0,0,0-.89.78,1,1,0,0,0,.38,1.11Z"/><path class="cls-5" d="M1833.05,207a1,1,0,0,0-.38-.76,1,1,0,0,0-.83-.22l-7.36,1.08a1,1,0,0,0-.88.78A1.06,1.06,0,0,0,1824,209l7.75,6a1,1,0,0,0,.44.19h0a1.06,1.06,0,0,0,1.27-.83,1.09,1.09,0,0,0-.06-.59Z"/><path class="cls-5" d="M1853.43,201.72a1,1,0,0,0-.41-.76,1,1,0,0,0-.81-.24l-7.37,1.07a1.06,1.06,0,0,0-.89.78,1.09,1.09,0,0,0,.39,1.11l7.72,6a1,1,0,0,0,.44.18h0a1,1,0,0,0,1.25-.83,1.07,1.07,0,0,0,0-.59Z"/><path class="cls-5" d="M1869,224.75l-.47-8a1,1,0,0,0-1.06-1l-6-.06a1.05,1.05,0,0,0-.85,1.72l6.45,8.33a1.19,1.19,0,0,0,.65.4h0a1.05,1.05,0,0,0,1.25-.83A1,1,0,0,0,1869,224.75Z"/><path class="cls-5" d="M1847.83,223a1.09,1.09,0,0,0-.36-.75,1.07,1.07,0,0,0-.78-.26l-6.56.55a1.12,1.12,0,0,0-.92.68,1.05,1.05,0,0,0,.21,1.1l7,7.68a1.06,1.06,0,0,0,.58.34h.08a1.07,1.07,0,0,0,1.27-.83,1.09,1.09,0,0,0-.06-.59Z"/><path class="cls-5" d="M1828.34,228.64a1.09,1.09,0,0,0-.37-.78,1.08,1.08,0,0,0-.83-.24l-6.81.85a1.09,1.09,0,0,0-.87.71,1.12,1.12,0,0,0,.21,1.1l7.13,7.46a1.11,1.11,0,0,0,.57.31h.05a1.07,1.07,0,0,0,1.27-.83,1.14,1.14,0,0,0,0-.58Z"/><path class="cls-5" d="M1807.26,234.23a1.34,1.34,0,0,0-.3-.77,1.29,1.29,0,0,0-.77-.33l-7.65-.07a1.09,1.09,0,0,0-1,.62,1,1,0,0,0,.13,1.13l7.51,8.94a1.08,1.08,0,0,0,.61.35h.05a1,1,0,0,0,1.25-.83.89.89,0,0,0,0-.54Z"/></g><path class="cls-6" d="M0,306.42C0,466.87,189.28,557.34,321.33,529.33c44-9.33,209.45-124.05,249.34-134.66,83.52-22.23,182.42,22.53,202.66,26.22,162.45,29.55,332.59-140,588-135.81,240.47,4,335.1,164.63,454.67,100,66.74-36.07,97.34,5.52,105.67-15.75,0,0-1.67-289.58-1.67-369.33H0Z"/><path class="cls-7" d="M926.67,0C921,33.11,1043.58,81.7,1120,100c222.75,53.33,447.5-56.35,441.33-100C1480.89,3.7,982.52.74,926.67,0Z"/><path class="cls-8" d="M1657.33,186.49c20.47-4.68,82.08-19.64,150.61,3.25,54.51,18.21,91.42,53,112.06,76.05V0H0V92.89c223.69,115.65,411,152,537.33,164.44C862.52,289.43,1464.06,230.65,1657.33,186.49Z"/></g></g></svg>