<svg id="Calque_1" data-name="Calque 1" xmlns="http://www.w3.org/2000/svg" viewBox="0 0 4394 780"><defs><style>.cls-1{font-size:507px;font-family:OpenSans-ExtraBold, Open Sans;font-weight:800;}.cls-1,.cls-2{fill:#0f4a52;}</style></defs><title>Plan de travail 1</title><text class="cls-1" transform="translate(622.61 578.05)">StudentGator</text><g id="layer101"><path class="cls-2" d="M242.84,773.18c-5.93-5.49-13.17-26.39-15.18-30.81-10.08-22.27-21-44-31.47-66.06l-31.71-66.76L101,476l-33-69.43C49.42,367.35,27.63,328.7,18.43,285.7,2.89,213.08,25.06,133.44,75.89,79.3S204.8-2,278.26,8.93c36.26,5.4,70.95,20,100.66,41.42A238,238,0,0,1,419.8,87.72c18.56,21.47,34.77,47.76,43.64,74.71a244.54,244.54,0,0,1-2.85,160.14c-2.79,7.5-6.53,13.87-10.44,20.76-3.09,5.44-4.43,11.59-7.09,17.26q-7.19,15.32-14.39,30.62-14.73,31.26-29.57,62.49c-20.91,44-42,88-62.79,132l-12,25.39-24,50.77-29.11,61.47q-7.29,15.36-14.56,30.73c-1.42,3-7.34,20.4-11.06,20.48A4,4,0,0,1,242.84,773.18Zm62-411.44a82.5,82.5,0,0,0,10.54-2.3c23.35-6.87,42.19-26.71,48.79-50.13,4.47-15.86,3.66-32.65,3.55-49.13,0-2.58,0-5.29,1.28-7.55,1.39-2.49,4-4,6.53-5.34L451,206.18,260.76,101.72c-2.6-1.43-5.36-2.9-8.32-2.77-2.51.1-4.81,1.33-7,2.54l-97.31,53.35c-31,17-63.78,32.53-93.66,51.47A207.57,207.57,0,0,0,81.88,221l-.72,98.13c-.07,10.18.41,21.67,8,28.48,2,1.77,7-11,7.44-12.3,3-9.41,1-20.34.79-30.2q-.3-19,.15-38c.22-9.19-2.45-27.59,2.54-35.35,6.77,1.37,13,4.81,18.91,8.27,1.77,1,17,8.9,17,10.11-1,22.77-1.79,46.46,7.33,67.35a76.38,76.38,0,0,0,48.56,42.34c11.27,3.18,23.11,3.69,34.82,3.89,17.47.31,35,0,52.42-.36C287.69,363.23,296.39,363,304.88,361.74Z"/><path class="cls-2" d="M200.65,350.54C180.86,347.26,164.47,335.36,155,317a80.17,80.17,0,0,1-8.49-33.51c-.17-4.37-1.48-28.32,6.37-24.11l95,51a7.11,7.11,0,0,0,8.64.22l99.76-53c3.89,18.86,3.17,39.07-4.72,56.64a66.75,66.75,0,0,1-22.06,27.07c-12.19,8.6-24.54,9.3-39.06,10.36a543.28,543.28,0,0,1-84.33-.44C204.26,351.06,202.44,350.83,200.65,350.54Z"/><path class="cls-2" d="M247.2,280.92l-.26-.14q-46.14-24.24-92.06-48.89-11-5.89-22-11.83c-7.93-4.28-34.14-12.64-14.28-21.93,17.65-8.25,34.91-17.12,51.84-26.8l72.47-39.46c3.1-1.69,6.38-3.43,9.92-3.39s6.52,1.71,9.49,3.34L391,202.26c1.46.8,3.09,1.85,3.25,3.51.18,2-1.84,3.39-3.59,4.33L258.86,280.82a13,13,0,0,1-5.66,2A12.59,12.59,0,0,1,247.2,280.92Z"/></g></svg>