<svg xmlns="http://www.w3.org/2000/svg" width="98.963" height="33.472" viewBox="0 0 98.963 33.472">
    <defs>
        <style>
            .cls-1{fill:#007569}.cls-2{fill:#6ac2b3}.cls-3{fill:#afd14c}
        </style>
    </defs>
    <g id="aacsb-accredited-vector-logo" transform="translate(-20.3 -220.9)">
        <path id="Path_6060" d="M264.6 389.251l2.392-6.351h1.386l2.392 6.351h-1.4l-.379-1.089h-2.623l-.379 1.089zm3.052-4.751l-.874 2.474h1.765l-.874-2.474z" class="cls-1" transform="translate(-203.999 -135.275)"/>
        <g id="Group_1515" transform="translate(20.3 220.9)">
            <path id="Path_6061" d="M306.5 382a2.945 2.945 0 0 1 3.085 2.491h-1.4a1.606 1.606 0 0 0-1.683-1.237c-1.171 0-1.815.808-1.815 2.062s.66 2.062 1.815 2.062a1.594 1.594 0 0 0 1.683-1.237h1.4a2.945 2.945 0 0 1-3.085 2.491 3.318 3.318 0 0 1 0-6.632" class="cls-1" transform="translate(-256.615 -355.424)"/>
            <path id="Path_6062" d="M349.2 382a2.945 2.945 0 0 1 3.085 2.491h-1.4a1.606 1.606 0 0 0-1.683-1.237c-1.171 0-1.815.808-1.815 2.062s.66 2.062 1.815 2.062a1.594 1.594 0 0 0 1.683-1.237h1.4a2.945 2.945 0 0 1-3.085 2.491 3.119 3.119 0 0 1-3.2-3.3 3.156 3.156 0 0 1 3.2-3.332" class="cls-1" transform="translate(-292.27 -355.424)"/>
            <path id="Path_6063" d="M392.645 389.251l-1.188-2.409H390.2v2.409h-1.3V382.9h2.887a1.909 1.909 0 0 1 2.128 2 1.824 1.824 0 0 1-1.122 1.815l1.386 2.557h-1.534zm-.874-5.163h-1.584v1.551h1.584a.71.71 0 0 0 .808-.759.718.718 0 0 0-.808-.792" class="cls-1" transform="translate(-328.093 -356.175)"/>
            <path id="Path_6064" d="M430.986 389.168H426.4V382.8h4.586v1.2h-3.266v1.336h3.134v1.2h-3.134v1.419h3.266z" class="cls-1" transform="translate(-359.407 -356.092)"/>
            <path id="Path_6065" d="M462 389.251V382.9h2.277a3.188 3.188 0 1 1 0 6.368H462zm2.244-5.163h-.94v3.959h.94a1.98 1.98 0 1 0 0-3.959" class="cls-1" transform="translate(-389.134 -356.175)"/>
            <path id="Rectangle_1422" d="M0 0H1.303V6.351H0z" class="cls-1" transform="translate(79.349 26.708)"/>
            <path id="Path_6066" d="M518.9 384.037h-1.749v5.13h-1.3v-5.13H514.1V382.8h4.8z" class="cls-1" transform="translate(-432.64 -356.092)"/>
            <path id="Path_6067" d="M550.686 389.168H546.1V382.8h4.586v1.2h-3.266v1.336h3.134v1.2h-3.134v1.419h3.266z" class="cls-1" transform="translate(-459.361 -356.092)"/>
            <path id="Path_6068" d="M580.3 389.251V382.9h2.277a3.188 3.188 0 1 1 0 6.368H580.3zm2.244-5.163h-.94v3.959h.94a1.98 1.98 0 1 0 0-3.959" class="cls-1" transform="translate(-487.919 -356.175)"/>
            <path id="Path_6069" d="M157.8 286.3v10.789l10.772 10.772V286.3z" class="cls-2" transform="translate(-135.117 -275.511)"/>
            <path id="Path_6070" d="M48.578 220.9H27l10.789 10.789h10.789z" class="cls-3" transform="translate(-25.895 -220.9)"/>
            <path id="Rectangle_1423" d="M0 0H10.789V10.789H0z" class="cls-1" transform="translate(22.683)"/>
            <path id="Path_6071" d="M31.072 249.261v-10.789L20.3 227.7v21.561z" class="cls-2" transform="translate(-20.3 -226.578)"/>
            <path id="Path_6072" d="M85.6 369.189h21.578L96.389 358.4H85.6z" class="cls-3" transform="translate(-74.828 -335.717)"/>
            <path id="Rectangle_1424" d="M0 0H10.789V10.789H0z" class="cls-1" transform="translate(0 22.683)"/>
            <path id="Path_6073" d="M260.7 299.313l5-13.313h2.887l5.015 13.313h-2.953l-.808-2.293h-5.477l-.808 2.293zm6.384-9.931l-1.831 5.2h3.712l-1.831-5.2z" class="cls-1" transform="translate(-221.042 -275.261)"/>
            <path id="Path_6074" d="M335.4 299.313L340.415 286h2.885l5.015 13.313h-2.953l-.808-2.293h-5.477l-.808 2.293zm6.384-9.931l-1.831 5.2h3.712l-1.831-5.2z" class="cls-1" transform="translate(-283.419 -275.261)"/>
            <path id="Path_6075" d="M497.154 294.182c0-2.623-7.126-.561-7.126-5.774 0-2.244 1.782-4.108 4.867-4.108 3.118 0 4.883 2.046 4.949 4.454h-2.689a2.075 2.075 0 0 0-2.309-2.013c-1.287 0-2.128.643-2.128 1.5 0 2.656 7.209.561 7.209 5.856 0 2.376-2.1 4.075-5.279 4.075-3.7 0-5.064-2.293-5.147-4.487h2.722c.083 1.089.858 2.046 2.59 2.046 1.468-.016 2.342-.577 2.342-1.551" class="cls-1" transform="translate(-412.098 -273.841)"/>
            <path id="Path_6076" d="M558.2 299.313V286h5.625c3.052 0 4.421 1.633 4.421 3.662a3.086 3.086 0 0 1-1.864 2.953 3.052 3.052 0 0 1 2.046 2.953c0 2.293-1.485 3.778-4.372 3.778H558.2zm2.656-10.822v2.887h2.953c1.056 0 1.683-.495 1.683-1.452 0-.792-.495-1.452-1.683-1.452h-2.953zm0 5.328v3.035h3.134c1.171 0 1.683-.577 1.683-1.518 0-.907-.528-1.518-1.683-1.518h-3.134z" class="cls-1" transform="translate(-469.465 -275.261)"/>
            <path id="Path_6077" d="M418.664 293.687a3.413 3.413 0 0 1-3.266 1.864c-2.442 0-3.811-1.683-3.811-4.322s1.369-4.322 3.811-4.322a3.372 3.372 0 0 1 3.53 2.606h2.92a6.148 6.148 0 0 0-6.45-5.213 6.933 6.933 0 0 0 0 13.857 6.162 6.162 0 0 0 6.285-4.471z" class="cls-1" transform="translate(-344.627 -273.841)"/>
        </g>
    </g>
</svg>
