<svg xmlns="http://www.w3.org/2000/svg" width="47.797" height="33.471" viewBox="0 0 47.797 33.471">
    <defs>
        <style>
            .cls-1{fill:#56585a}.cls-2{fill:#a9233e}
        </style>
    </defs>
    <g id="efmd-equis-accredited-logo-vector" transform="translate(37 -71.1)">
        <path id="Path_6038" d="M152.4 250.985c.5-.9 2.35-2.115 6.339-2.417s6.239.971 6.473 1.714c-3.655.234-12.813.7-12.813.7" class="cls-1" transform="translate(-176.721 -165.546)"/>
        <path id="Path_6039" d="M-25.258 285.191l-11.742 5.8c.576-1.74 2.249-3.387 5.469-4.96s5.77-1.419 6.273-.843" class="cls-1" transform="translate(0 -199.377)"/>
        <path id="Path_6040" d="M134.55 83.8c1.781-3.588 5.831-12.7 5.831-12.7-.9.06-3.354 2.236-4.96 6.36s-1.138 5.8-.87 6.339" class="cls-1" transform="translate(-159.808)"/>
        <path id="Path_6041" d="M163.028 347.8h5.114l-.261 1.366h-3.394l-.449 2.142h3.033l-.274 1.366h-3.046l-.509 2.437h3.434l-.3 1.372H161.2z" class="cls-2" transform="translate(-184.932 -258.177)"/>
        <path id="Path_6042" d="M271.128 356.07l-1.272-1.506c-.147.013-.288.013-.435.013a3.326 3.326 0 0 1-3.421-3.608 5.785 5.785 0 0 1 1.366-3.755 4.548 4.548 0 0 1 3.568-1.613c2.35 0 3.622 1.366 3.622 3.682a5.8 5.8 0 0 1-1.453 3.843 3.991 3.991 0 0 1-1.727 1.131l1.828 1.814zm-3.314-5c0 1.131.569 2.142 1.828 2.142 1.988 0 3.1-2.39 3.1-4.117a1.874 1.874 0 0 0-1.854-2.129c-2.022 0-3.073 2.35-3.073 4.1" class="cls-2" transform="translate(-282.716 -256.124)"/>
        <path id="Path_6043" d="M410.157 347.8l-.884 4.117c-.288 1.218-.743 3.347 1.185 3.347 1.794 0 2.129-1.633 2.437-3.059l.944-4.4h1.714l-1.158 5.248c-.5 2.229-1.54 3.581-3.956 3.581-2.838 0-3.535-1.64-3.019-4.117l1-4.713z" class="cls-2" transform="translate(-414.523 -258.177)"/>
        <path id="Path_6044" d="M525.734 347.8h1.814l-1.827 8.682H523.9z" class="cls-2" transform="translate(-523.352 -258.177)"/>
        <path id="Path_6045" d="M575.046 347.414a4.122 4.122 0 0 0-1.807-.448c-.623 0-1.453.248-1.453 1 0 1.392 2.959 1.305 2.959 3.722 0 2.129-1.667 2.9-3.568 2.9a7.5 7.5 0 0 1-2.477-.482l.449-1.479a5.178 5.178 0 0 0 2.129.6c.83 0 1.654-.422 1.654-1.359 0-1.566-2.959-1.319-2.959-3.635 0-1.828 1.566-2.624 3.233-2.624a6.009 6.009 0 0 1 2.249.388z" class="cls-2" transform="translate(-565.153 -256.124)"/>
        <path id="Path_6046" d="M389.413 191.826h-1.928v1.245h2.149v.971H386.3V188.8h3.227v.971h-2.042v1.091h1.928z" class="cls-1" transform="translate(-394.963 -109.821)"/>
        <path id="Path_6047" d="M448.3 188.8h3.2v.971h-2.015v1.2h1.881v.964h-1.881v2.109H448.3z" class="cls-1" transform="translate(-452.813 -109.821)"/>
        <path id="Path_6048" d="M512.345 192.033c-.027-.629-.047-1.386-.047-2.156h-.013c-.174.669-.388 1.413-.589 2.028l-.636 2.048h-.924l-.562-2.022c-.174-.623-.341-1.359-.475-2.055h-.013c-.027.71-.054 1.52-.087 2.169l-.1 1.995h-1.1l.335-5.242h1.58l.509 1.754c.174.6.328 1.252.442 1.868h.033c.141-.609.321-1.292.5-1.881l.556-1.74h1.546l.281 5.242h-1.151z" class="cls-1" transform="translate(-508.33 -109.821)"/>
        <path id="Path_6049" d="M607.707 188.314a9.307 9.307 0 0 1 1.593-.114 3.368 3.368 0 0 1 2.156.542 2.343 2.343 0 0 1 .884 1.995 2.685 2.685 0 0 1-.864 2.122 3.818 3.818 0 0 1-2.43.676 9.835 9.835 0 0 1-1.346-.08v-5.141zm1.178 4.271a1.965 1.965 0 0 0 .415.027 1.63 1.63 0 0 0 1.787-1.834 1.5 1.5 0 0 0-1.667-1.667 2.76 2.76 0 0 0-.536.047z" class="cls-1" transform="translate(-601.542 -109.261)"/>
        <path id="Path_6050" d="M169.125 533.2h.656l.475 2.477h-.629l-.12-.623h-.91l-.328.623h-.469zm.308 1.466l-.161-.864h-.007l-.455.864z" class="cls-1" transform="translate(-191.09 -431.166)"/>
        <path id="Path_6051" d="M229.3 532.876a1.875 1.875 0 0 0-.736-.167 1.1 1.1 0 0 0-.957 1.165.566.566 0 0 0 .6.609 3.471 3.471 0 0 0 .823-.174l-.094.455a4.482 4.482 0 0 1-1 .134.9.9 0 0 1-1.024-.944 1.713 1.713 0 0 1 1.714-1.654 3.28 3.28 0 0 1 .77.1z" class="cls-1" transform="translate(-246.234 -430.326)"/>
        <path id="Path_6052" d="M283.4 532.876a1.875 1.875 0 0 0-.736-.167 1.1 1.1 0 0 0-.957 1.165.566.566 0 0 0 .6.609 3.471 3.471 0 0 0 .823-.174l-.094.455a4.482 4.482 0 0 1-1 .134.9.9 0 0 1-1.024-.944 1.713 1.713 0 0 1 1.714-1.654 3.383 3.383 0 0 1 .777.1z" class="cls-1" transform="translate(-296.712 -430.326)"/>
        <path id="Path_6053" d="M334.9 533.2h1.1c.489 0 .649.254.649.482a1 1 0 0 1-.656.857l.482 1.131h-.689l-.341-.991h-.228l-.2.991h-.617zm.388 1.118h.134a.563.563 0 0 0 .562-.515c0-.181-.167-.187-.308-.187-.08 0-.174.007-.248.013z" class="cls-1" transform="translate(-346.538 -431.166)"/>
        <path id="Path_6054" d="M387.5 533.2h1.68l-.08.408h-1.024l-.12.6h.817l-.067.375h-.817l-.141.676h1.1l-.08.415H387z" class="cls-1" transform="translate(-395.616 -431.166)"/>
        <path id="Path_6055" d="M436.7 533.2h1.279c.7 0 .917.368.917.844a1.522 1.522 0 0 1-1.587 1.627h-1.1zm.254 2.042a1.1 1.1 0 0 0 .208.027 1.077 1.077 0 0 0 1.031-1.145c0-.455-.328-.509-.562-.509h-.355z" class="cls-1" transform="translate(-441.523 -431.166)"/>
        <path id="Path_6056" d="M495.089 533.2h.663l-.5 2.477h-.652z" class="cls-1" transform="translate(-496.013 -431.166)"/>
        <path id="Path_6057" d="M532.71 533.608h-.91l.087-.408h2.47l-.08.408h-.9l-.415 2.069h-.662z" class="cls-1" transform="translate(-530.723 -431.166)"/>
        <path id="Path_6058" d="M584.4 533.2h1.68l-.087.408h-1.018l-.12.6h.817l-.074.375h-.817l-.134.676h1.1l-.087.415h-1.76z" class="cls-1" transform="translate(-579.335 -431.166)"/>
        <path id="Path_6059" d="M633.589 533.2h1.279c.7 0 .917.368.917.844a1.52 1.52 0 0 1-1.58 1.627h-1.1zm.254 2.042a1.1 1.1 0 0 0 .208.027 1.077 1.077 0 0 0 1.031-1.145c0-.455-.328-.509-.562-.509h-.355z" class="cls-1" transform="translate(-625.242 -431.166)"/>
    </g>
</svg>
