<svg xmlns="http://www.w3.org/2000/svg" width="33.472" height="33.472" viewBox="0 0 33.472 33.472">
    <g>
        <path fill="#4460a0" fill-rule="evenodd" d="M217.878 193.472h-16.031a1.847 1.847 0 0 1-1.847-1.848v-29.777a1.847 1.847 0 0 1 1.847-1.847h29.777a1.847 1.847 0 0 1 1.847 1.847v29.777a1.847 1.847 0 0 1-1.847 1.847h-8.53V180.51h4.351l.651-5.051h-5v-3.225c0-1.463.407-2.459 2.5-2.459h2.675v-4.518a35.829 35.829 0 0 0-3.9-.2c-3.857 0-6.5 2.354-6.5 6.677v3.726h-4.362v5.051h4.362v12.962z" transform="translate(-200 -160)"/>
    </g>
</svg>
