<svg xmlns="http://www.w3.org/2000/svg" width="143.708" height="40" viewBox="0 0 143.708 40">
    <defs>
        <style>
            .cls-2{fill:#3e474f}
        </style>
    </defs>
    <g id="Financial_Times_corporate_logo_1_" transform="translate(-46.607 -47.965)">
        <path id="FT-Pink" fill="#fcd0af" d="M0 40V0h40v40H0z" transform="rotate(-90 67.286 20.679)"/>
        <path id="FT" d="M-76.119-669.541c0 1.889.5 2.1 2.656 2.18v.691h-8.555v-.691c1.78-.08 2.284-.291 2.284-2.18v-12.327c0-1.889-.5-2.1-2.231-2.18v-.691h15.091l.107 3.984h-.744c-.637-2.019-1.329-2.656-4.863-2.656h-2.738c-.822 0-1.008.186-1.008.93v5.714h1.348c2.817 0 3.428-.507 3.773-2.394h.691v6.378H-71c-.371-2.126-1.435-2.656-3.773-2.656h-1.348v5.9zm26.334-15.2h-15.836l-.368 3.986h.908c.58-1.952 1.432-2.658 3.338-2.658h2.232v13.869c0 1.889-.5 2.1-2.55 2.18v.691h8.715v-.691c-2.046-.08-2.551-.291-2.551-2.18v-13.866h2.231c1.907 0 2.76.706 3.339 2.658h.907z" class="cls-2" transform="translate(132.957 738.38)"/>
        <path id="FinancialTimes" d="M-103.057-468.142c0 1.15.31 1.278 1.621 1.331v.41h-5.217v-.41c1.084-.053 1.394-.181 1.394-1.331v-7.52c0-1.156-.31-1.283-1.365-1.331v-.421h9.212l.062 2.428h-.45c-.389-1.23-.809-1.619-2.966-1.619h-1.671c-.5 0-.616.112-.616.57v3.483h1.883c1.718 0 2.09-.309 2.3-1.459h.422v3.893h-.422c-.227-1.3-.876-1.624-2.3-1.624h-1.883v3.6zm10.863 0c0 1.15.306 1.278 1.621 1.331v.41h-5.449v-.41c1.317-.053 1.621-.181 1.621-1.331v-7.52c0-1.156-.3-1.283-1.621-1.331v-.421h5.449v.421c-1.315.048-1.621.176-1.621 1.331v7.52zm12.985-7.211c0-1.07-.293-1.507-1.494-1.64v-.421h3.89v.421c-1.2.133-1.49.57-1.49 1.64v9.224h-.551l-7.52-8.691v6.369c0 1.07.289 1.507 1.49 1.64v.41h-3.892v-.41c1.2-.133 1.492-.57 1.492-1.64v-7.418a2.11 2.11 0 0 0-1.492-1.124v-.421h3l6.567 7.589zm5.883 5.006l1.654-4.362 1.639 4.362zm7.895 3.946v-.41c-.826.016-1.036-.341-1.458-1.379l-3.876-9.485h-.535l-4.038 9.826a1.547 1.547 0 0 1-1.346 1.038v.41h3.5v-.41c-.762 0-1.134-.165-1.134-.7a10.09 10.09 0 0 1 .631-2.029h3.99a10 10 0 0 1 .664 2.029c0 .533-.4.7-1.167.7v.41zm10.684-8.952c0-1.07-.291-1.507-1.489-1.64v-.421h3.89v.421c-1.2.133-1.493.57-1.493 1.64v9.224h-.55l-7.523-8.691v6.369c0 1.07.291 1.507 1.492 1.64v.41h-3.892v-.41c1.2-.133 1.494-.57 1.494-1.64v-7.418a2.116 2.116 0 0 0-1.494-1.124v-.421h3l6.565 7.589v-5.528zm13.919 6.364a5.222 5.222 0 0 1-4.947 2.86c-3.582 0-5.706-2.354-5.706-5.874a5.727 5.727 0 0 1 5.821-5.672 16.151 16.151 0 0 1 3.031.65c.323 0 .42-.176.683-.65h.549l.228 3.68h-.487c-.651-1.7-1.8-2.934-3.729-2.934-2.595 0-3.728 2.807-3.728 4.926 0 2.972 1.279 4.963 4.021 4.963a4.747 4.747 0 0 0 3.826-2.285zm5.338.847c0 1.15.31 1.278 1.622 1.331v.41h-5.448v-.41c1.315-.053 1.623-.181 1.623-1.331v-7.52c0-1.156-.308-1.283-1.623-1.331v-.421h5.448v.421c-1.312.048-1.622.176-1.622 1.331zm6.137-2.2l1.654-4.362 1.638 4.362zm7.9 3.946v-.41c-.828.016-1.038-.341-1.458-1.379l-3.876-9.485h-.534l-4.038 9.826a1.548 1.548 0 0 1-1.346 1.038v.41h3.5v-.41c-.761 0-1.133-.165-1.133-.7a9.958 9.958 0 0 1 .632-2.029h3.988a10 10 0 0 1 .664 2.029c0 .533-.405.7-1.167.7v.41h4.768zm.963 0v-.41c1.054-.048 1.362-.181 1.362-1.331v-7.52c0-1.156-.308-1.283-1.362-1.331v-.421h5.09v.421c-1.215.048-1.525.176-1.525 1.331v7.733c0 .666.2.889 1.427.889 1.978 0 3.145-.357 4.086-2.3h.422l-.745 2.94zm-83.743 17.372c1.252-.053 1.558-.181 1.558-1.331v-8.462h-1.36c-1.281 0-1.785.517-2.141 2.008h-.487l.26-2.817h9.661l.26 2.817h-.489c-.354-1.491-.857-2.008-2.136-2.008h-1.363v8.462c0 1.15.308 1.278 1.554 1.331v.41h-5.317zm12.71-1.331c0 1.15.31 1.278 1.623 1.326v.415h-5.449v-.415c1.317-.048 1.623-.176 1.623-1.326v-7.525c0-1.15-.306-1.278-1.623-1.326v-.426h5.449v.426c-1.313.048-1.623.176-1.623 1.326zm13.195-9.272h3.794v.421c-1.054.048-1.36.176-1.36 1.326v7.525c0 1.15.306 1.278 1.36 1.331v.41H-79.5v-.41c1.086-.053 1.4-.181 1.4-1.331v-7.749h-.034l-3.68 9.628h-.5l-3.6-9.628h-.033v7.44c0 1.07.291 1.507 1.491 1.64v.41h-3.89v-.41c1.2-.133 1.49-.57 1.49-1.64v-7.488c0-.762-.323-1.054-1.49-1.054v-.421h4l2.933 7.647 3.079-7.647zm5.359 11.013v-.41c1.052-.053 1.36-.181 1.36-1.331v-7.525c0-1.15-.308-1.278-1.36-1.326v-.421h9.207l.065 2.428h-.452c-.391-1.23-.813-1.619-2.968-1.619h-1.668c-.505 0-.616.112-.616.565v3.488h1.878c1.718 0 2.091-.309 2.3-1.459h.422v3.888h-.422c-.229-1.294-.876-1.619-2.3-1.619H-69.4v3.813c0 .66.193.889 2.139.889 1.976 0 3.145-.357 4.085-2.306h.421l-.745 2.945h-9.467zm11.645-3.462h.424c.468 1.459 1.864 2.982 3.487 2.982a1.744 1.744 0 0 0 1.9-1.832c0-2.53-5.706-3-5.706-6.14a3.069 3.069 0 0 1 3.16-2.822c1.654 0 2.236.58 2.969.58.308 0 .5-.24.583-.58h.422v3.5h-.422a3.379 3.379 0 0 0-3.081-2.753 1.505 1.505 0 0 0-1.687 1.544c0 2.247 5.709 2.317 5.709 6.188a3.163 3.163 0 0 1-3.406 3.062c-1.945 0-2.447-.676-3.21-.676-.289 0-.487.192-.55.549h-.586v-3.6z" class="cls-2" transform="translate(201.308 531.318)"/>
    </g>
</svg>
