<svg xmlns="http://www.w3.org/2000/svg" width="175.876" height="40" viewBox="0 0 175.876 40">
    <defs>
        <style>
            .cls-3{fill:#cc543f}.cls-4{fill:#cf614c}.cls-5{fill:#fac5b0}.cls-7{fill:#ebb8a8}.cls-8{fill:#ebbdae}.cls-9{fill:#fff}.cls-11{fill:#c7513d}.cls-12{fill:#cf664f}.cls-13{fill:#c55e47}.cls-15{fill:#bf4c3a}.cls-17,.cls-18{fill:none;stroke:#c7513d;stroke-linejoin:round;stroke-width:.176px}.cls-18{stroke-linecap:round}
        </style>
    </defs>
    <g id="g27366" transform="translate(-135.172 -31.984)">
        <path id="path12074" fill="#f0634c" d="M135.172 71.984h175.876v-40H135.172zm0 0"/>
        <path id="path12078" fill="#faccba" d="M221.22 54.137h-1.013v.469a7.808 7.808 0 0 1 .776.346c.17.082.258.127.258.127a12.363 12.363 0 0 1 2.3 1.612c.445.406.712.634.974.873a10.526 10.526 0 0 1 1.073 1.021 22.4 22.4 0 0 0-2.6-2.657 23.913 23.913 0 0 1-1.765-1.791m.763 1.174c-.013-.011-.125-.11-.348-.286s-.593-.456-1.079-.793l-.019-.054.045-.034h.148l.03.009a9.172 9.172 0 0 1 1.29 1.092v.069h-.069m4.327 3.921c.028.047.052.09.071.125l.026.021c-.032-.049-.064-.1-.1-.146" transform="translate(-38.238 -9.961)"/>
        <path id="path12082" d="M222.437 54.137h-.037c.43.477 1.066 1.135 1.673 1.688-.58-.568-1.169-1.165-1.634-1.688m4.684 5.039l.064.1-.011.067h-.026c.047.028.095.056.14.077l-.028-.052c-.024-.043-.052-.092-.086-.148l-.054-.041" class="cls-3" transform="translate(-39.223 -9.961)"/>
        <path id="path12084" d="M222.345 54.137h-.064a22.923 22.923 0 0 0 1.7 1.718 18.512 18.512 0 0 1 3.085 3.321l.054.041a11.485 11.485 0 0 0-1.971-2.3c-.346-.329-.737-.7-1.133-1.088-.606-.552-1.243-1.21-1.672-1.688" class="cls-3" transform="translate(-39.17 -9.961)"/>
        <path id="path12086" d="M220.207 55.18v.269a9.8 9.8 0 0 1 1.281.563 15.831 15.831 0 0 1 2.769 2.027c1 .97 1.234 1.221 1.464 1.481.024.015.133.09.267.176a1.109 1.109 0 0 0 .1.062l-.277-.316a20.767 20.767 0 0 0-2.459-2.262 11.408 11.408 0 0 0-1.533-1.157c-.443-.284-.752-.447-.755-.447a3.061 3.061 0 0 0-.288-.15c-.138-.067-.325-.15-.565-.245" class="cls-3" transform="translate(-38.238 -10.43)"/>
        <path id="path12090" d="M221.581 54.137h-.129c.464.522 1.053 1.12 1.634 1.688l.088.08a19.94 19.94 0 0 1 3.136 3.328 11.19 11.19 0 0 0-2.025-2.39c-.834-.789-1.93-1.842-2.7-2.7m-1.374.473v.1c.241.095.428.178.565.245a3.061 3.061 0 0 1 .288.15s.312.163.755.447a11.408 11.408 0 0 1 1.533 1.157 20.953 20.953 0 0 1 2.459 2.262l.278.316a1.109 1.109 0 0 1-.1-.062c-.133-.086-.243-.161-.267-.176-.23-.26-.46-.512-1.464-1.481a15.96 15.96 0 0 0-2.769-2.027 9.813 9.813 0 0 0-1.281-.563v.1c.374.142.658.264.858.357.256.118.374.187.374.187s.4.224.939.587a13.655 13.655 0 0 1 1.81 1.427c1.01.974 1.234 1.219 1.464 1.479l.009.006a5.849 5.849 0 0 0 .729.441l.054-.011.011-.052s-.022-.052-.073-.148l-.191-.14c.034.056.062.105.086.148l.028.052c-.043-.021-.09-.049-.14-.077h.026l.011-.067c-.022-.032-.043-.064-.064-.1l-.222-.161a18.7 18.7 0 0 0-1.4-1.451c-.312-.256-.606-.473-1.094-.922a12.52 12.52 0 0 0-2.309-1.619l-.125-.071c-.176-.082-.439-.2-.776-.342m5.639 4.332" class="cls-3" transform="translate(-38.238 -9.961)"/>
        <path id="path12094" d="M221.348 54.137h-.129a23.911 23.911 0 0 0 1.765 1.791 22.406 22.406 0 0 1 2.6 2.657 10.528 10.528 0 0 0-1.073-1.021 18.7 18.7 0 0 1 1.4 1.451l.221.161a18.512 18.512 0 0 0-3.085-3.321 22.932 22.932 0 0 1-1.7-1.718m-1.141.469c.338.142.6.26.776.342a7.805 7.805 0 0 0-.776-.346m2.878 1.219c.4.387.787.759 1.133 1.088a11.485 11.485 0 0 1 1.971 2.3l.191.14-.071-.125a20.032 20.032 0 0 0-3.136-3.328l-.088-.08" class="cls-3" transform="translate(-38.238 -9.961)"/>
        <path id="path12098" d="M221 54.141h-.148l-.045.034.019.054c.488.338.845.608 1.079.793s.335.275.348.286h.069v-.069a9.3 9.3 0 0 0-1.29-1.092l-.03-.009" class="cls-4" transform="translate(-38.506 -9.963)"/>
        <path id="path12102" d="M154.126 40.59h-8v2.7h.991c.529 0 .608.247.608.638v6.077c0 .436-.232.587-.666.587h-.933v2.691h13.223v-5.522h-3.192v2.182a.653.653 0 0 1-.677.641h-2.307a.6.6 0 0 1-.643-.563V43.93c0-.462.142-.638.608-.638h.985v-2.7" class="cls-5" transform="translate(-4.927 -3.87)"/>
        <path id="path12106" d="M185.84 40.59h-13.152v2.7h.75c.529 0 .591.256.591.666v6.1c0 .381-.252.537-.632.537h-.709v2.691h13.152V49.2h-3.293v.692a.662.662 0 0 1-.714.7h-3v-2.547h3.1v-2.461h-3.1v-2.292h2.867c.641 0 .847.284.847.7v.677h3.293V40.59" class="cls-5" transform="translate(-16.87 -3.87)"/>
        <path id="path12110" d="M221.94 40.59h-11.8c.271.153.589.348.931.587a6.738 6.738 0 0 1 1.629 1.969l.006.019.017.241-.028.039a4.587 4.587 0 0 1 .254.5v3.814c.028.006.054.009.082.013l.041.049v.213l-.019.037-.041.009a12.61 12.61 0 0 1-2.881-1.169v3.154a.515.515 0 0 1-.544.537h-1.107v2.691h8.377v-2.698h-1.047c-.658 0-.877-.209-.877-.714v-.89c-.1-.041-.213-.082-.331-.123l-.032-.047v-.372l.022-.039.045-.006c.095.034.185.067.271.1v-.479h1.021l-.1-.112-.009-.054.045-.028h.232l.037.017.172.2h1.387v-2.464h-2.76v-2.292h2.982a.657.657 0 0 1 .733.684v.692h3.291V40.59m-12.266 0h-.073v.01a5.457 5.457 0 0 1 .654.329c-.2-.133-.357-.221-.464-.277l-.116-.058m-.808 0h-.082a7.019 7.019 0 0 0 .746.271h.006c.009 0 .013 0 .015-.015-.069-.021-.327-.105-.686-.256m2.279.97c.114.1.221.2.325.3-.1-.105-.213-.2-.325-.3" class="cls-5" transform="translate(-32.965 -3.87)"/>
        <path id="path12112" fill="#fdebe1" d="M221.182 54.1h-1.021v.479l.026.009v-.469h1.013l-.017-.019" transform="translate(-38.217 -9.945)"/>
        <path id="path12114" d="M222.2 53.926h-.1c.03.032.058.064.086.1h.064a.146.146 0 0 0 .017.019h.039l-.1-.116" class="cls-7" transform="translate(-39.086 -9.866)"/>
        <path id="path12116" d="M222.314 54.1h-.064a.14.14 0 0 1 .017.019h.064a.14.14 0 0 1-.017-.019" class="cls-8" transform="translate(-39.156 -9.945)"/>
        <path id="path12118" d="M219.727 55v.271c.092.032.181.067.264.1V55.1c-.082-.032-.17-.067-.264-.1" class="cls-7" transform="translate(-38.022 -10.348)"/>
        <path id="path12120" d="M221.075 53.75h-.232l-.045.028.009.054c.032.037.064.075.1.112h.129l-.084-.1h.1l.1.116h.129l-.172-.2-.037-.017m-1.464.572l-.043.006-.022.039v.372l.032.047c.118.041.228.082.331.123V54.8c-.084-.03-.172-.064-.264-.1v-.271c.095.034.183.069.264.1v-.1a.133.133 0 0 1-.026-.011c-.086-.034-.174-.067-.273-.1" class="cls-7" transform="translate(-37.941 -9.787)"/>
        <path id="path12122" d="M221.31 54.1h-.129l.017.019h.129a.146.146 0 0 0-.017-.019m-1.15.479a.13.13 0 0 0 .026.011l-.026-.009" class="cls-8" transform="translate(-38.217 -9.945)"/>
        <path id="path12126" d="M243.2 40.59h-7.95v2.7h1.013c.531 0 .608.243.608.638v6.09c0 .471-.288.574-.628.574h-.993v2.691h7.95v-2.688h-.974c-.385 0-.626-.153-.626-.589V43.93c0-.479.146-.638.608-.638h.991v-2.7" class="cls-5" transform="translate(-45.002 -3.87)"/>
        <path id="path12130" d="M257.875 40.242c-5 0-7.09 3.622-7.09 6.288 0 4.011 2.584 6.823 7.5 6.823 6.828 0 7.144-4.947 7.148-5.271.009-.684.028-1.634.028-1.634h-6.094v2.339h1.767a2.064 2.064 0 0 1-2.339 1.894c-.935 0-3.074-.329-3.074-4.207 0-2.294 1.331-3.53 3.046-3.53a3.409 3.409 0 0 1 3.1 1.954h2.833v-4.464h-2.816v.954a6 6 0 0 0-4.011-1.146" class="cls-5" transform="translate(-51.988 -3.713)"/>
        <path id="path12134" d="M288.336 40.59h-4.9s-3.319 8.994-3.476 9.377a.905.905 0 0 1-.957.628h-.703v2.691h5.985v-2.56h-.828c-.357 0-.436-.275-.318-.658.138-.443.378-1.139.378-1.139h3.639s.2.63.387 1.2c.14.434-.318.593-.591.593h-.707v2.56h7.21v-2.687h-.722c-.544 0-.709-.486-1.036-1.27-.269-.643-3.358-8.734-3.358-8.734m-4.233 6.6l1.249-3.732h.041l1.2 3.732H284.1" class="cls-5" transform="translate(-64.359 -3.87)"/>
        <path id="path12138" d="M316.635 40.59h-8.683v2.7h.858c.537 0 .608.264.608.636v6.032c0 .267-.041.632-.634.632h-.832v2.691h7.648v-2.686h-.78c-.533 0-.6-.295-.6-.613v-2.051h1.709l3.128 5.355h4.8v-2.691h-.879c-.49 0-.57-.234-.817-.561s-1.767-2.7-1.767-2.7a3.147 3.147 0 0 0 2.229-2.99 3.547 3.547 0 0 0-2.827-3.429 18.637 18.637 0 0 0-3.158-.329m-2.414 5.146v-2.61h1.89a1.342 1.342 0 0 1 1.531 1.333c0 .847-.634 1.281-1.685 1.281h-1.735" class="cls-5" transform="translate(-77.694 -3.87)"/>
        <path id="path12142" d="M343.8 40.242h-.1c-5.286.022-7.206 3.575-7.206 6.423 0 3.792 2.668 6.688 7.2 6.688 4.033 0 7.208-2.191 7.229-6.481v-.086c-.021-4.069-3.025-6.524-7.126-6.544m.039 10.439c-1.172 0-2.4-.7-2.4-4.235 0-2.18.834-3.534 2.266-3.534 1.352 0 2.341.9 2.341 3.781 0 3.115-1.028 3.988-2.2 3.988" class="cls-5" transform="translate(-90.531 -3.713)"/>
        <g id="use12146" transform="translate(185.702 44.964)">
            <path id="path1662" d="M16.865-25.16c.679-5.306.069-9.648-7.008-9.648-6.432 0-8.685 3.216-8.685 8.367s2.253 8.358 8.685 8.358a22.691 22.691 0 0 0 6.432-.8l-.645-4.342a16.351 16.351 0 0 1-4.987.645c-2.115 0-3.534-.972-3.7-2.58zM9.53-30.629c1.771 0 2.1.808 1.935 2.1H6.959a2.259 2.259 0 0 1 2.571-2.1zm5.67-10.293h-5.154l-1.608 4.506h4.188zm0 0" class="cls-9" transform="translate(-1.172 40.922)"/>
        </g>
        <g id="use12148" transform="translate(201.941 46.898)">
            <path id="path1665" d="M2.513-21.352c0 3.182 1.445 4.85 5.469 4.85a24.392 24.392 0 0 0 3.7-.318L11.2-21a7.4 7.4 0 0 1-1.29.155c-1.281 0-1.926-.507-1.926-1.479v-6.724h3.534V-32.9H7.982v-4.506H3.158L2.513-32.9l-1.935.318v3.534h1.935zm0 0" class="cls-9" transform="translate(-.578 37.406)"/>
        </g>
        <g id="use12150" transform="translate(213.522 51.404)">
            <path id="path1668" d="M.578-24.722h1.608v6.432c0 3.225 1.617 5.469 4.833 5.469a6.035 6.035 0 0 0 4.755-2.244h.069v1.926h7.077v-4.506h-1.608v-11.574h-7.077v4.5h1.608v6.759a5.316 5.316 0 0 1-2.253.645c-1.126 0-1.935-.645-1.935-2.253v-9.648H.578zm0 0" class="cls-9" transform="translate(-.578 29.219)"/>
        </g>
        <g id="use12154" transform="translate(232.345 44.964)">
            <path id="path1671" d="M9.53-36.416h1.617v3.379h-.069a4.959 4.959 0 0 0-3.792-1.771c-4.506 0-6.114 3.861-6.114 8.367s1.281 8.358 5.787 8.358a5.511 5.511 0 0 0 4.119-1.926h.069v1.609h7.077v-4.506h-1.617v-18.016H9.53zm-2.571 9.975c0-2.253.482-3.861 2.253-3.861a3.17 3.17 0 0 1 1.935.645v6.432a3.17 3.17 0 0 1-1.935.645c-1.772 0-2.253-1.608-2.253-3.861zm0 0" class="cls-9" transform="translate(-1.172 40.922)"/>
        </g>
        <g id="use12158" transform="translate(250.322 44.964)">
            <path id="path1674" d="M.578-29.984h1.608v7.077H.578v4.507h8.685v-4.506H7.655v-11.575H.578zm1.608-10.938v4.822h5.469v-4.824zm0 0" class="cls-9" transform="translate(-.578 40.922)"/>
        </g>
        <g id="use12162" transform="translate(259.653 51.077)">
            <path id="path1677" d="M6.344-24.025v-1.221c.447-.026.868-.06 1.29-.06 1.574 0 2.571.095 2.571 1.281v.645H7.789c-3.216 0-6.914 1.29-6.914 5.314a4.824 4.824 0 0 0 5.151 4.979 5.048 5.048 0 0 0 4.119-1.926h.06v1.608h7.077v-4.506h-1.608v-6.432c0-4.506-2.416-5.469-6.759-5.469A38.341 38.341 0 0 0 1.838-29v4.979zm3.856 6.113a4.329 4.329 0 0 1-2.253.645 1.458 1.458 0 0 1-1.608-1.445c0-1.453 1.2-1.453 2.158-1.453h1.7zm0 0" class="cls-9" transform="translate(-.875 29.813)"/>
        </g>
        <g id="use12166" transform="translate(276.989 51.077)">
            <path id="path1680" d="M10.553-13.406h8.367v-4.506h-1.608v-6.432c0-3.216-1.608-5.469-4.824-5.469a6.048 6.048 0 0 0-4.764 2.253h-.069v-1.926H.578v4.5h1.608v7.077H.578v4.506h8.367v-4.506h-1.29v-6.75a5.2 5.2 0 0 1 2.253-.645c1.29 0 1.935.645 1.935 2.253v5.142h-1.29zm0 0" class="cls-9" transform="translate(-.578 29.813)"/>
        </g>
        <g id="use12170" transform="translate(294.649 46.898)">
            <path id="path1665-2" d="M2.513-21.352c0 3.182 1.445 4.85 5.469 4.85a24.392 24.392 0 0 0 3.7-.318L11.2-21a7.4 7.4 0 0 1-1.29.155c-1.281 0-1.926-.507-1.926-1.479v-6.724h3.534V-32.9H7.982v-4.506H3.158L2.513-32.9l-1.935.318v3.534h1.935zm0 0" class="cls-9" transform="translate(-.578 37.406)"/>
        </g>
        <path id="path12174" d="M201.549 35.078c0 .215.019.436.043.654a18.517 18.517 0 0 0 .4 1.92l-.015.047h-.009v.015a.086.086 0 0 0-.019-.011h-.024a1.4 1.4 0 0 1-.428-.288c.03.082.069.185.118.307.368.92 1.283 2.846 2.644 3.523l.026.056-.047.037h-.112a3.264 3.264 0 0 1-.9-.189 15.3 15.3 0 0 0 3.459 2.206l.028.045-.032.041a1 1 0 0 1-.357.047 2.984 2.984 0 0 1-.533-.056c.06.039.131.082.213.131.252.155.6.359.989.572V41.48c0-.383-.064-.664-.591-.664h-1.06v-.759a10.417 10.417 0 0 1-3.259-4.426c-.2-.191-.355-.35-.466-.475-.024-.028-.047-.054-.069-.077m.712.716c.034.08.08.174.131.286a9.9 9.9 0 0 0 2.952 3.7v-1.67h.3a11.572 11.572 0 0 1-3.074-2.04c-.112-.1-.215-.189-.312-.277" class="cls-5" transform="translate(-29.828 -1.391)"/>
        <path id="path12178" fill="#f8c3af" d="M208.783 40.59h-.3v1.67a6.08 6.08 0 0 0 .727.445 11.573 11.573 0 0 1 3.725 2.878l.009.024.009.131v-1.8a4.585 4.585 0 0 0-.254-.5l-.006.011-.056-.024a7.1 7.1 0 0 0-1.161-1.574c-.1-.1-.211-.2-.325-.3-.062-.052-.125-.1-.187-.146-.286-.209-.518-.368-.7-.488a5.3 5.3 0 0 0-.654-.329l.03.2-.015.043-.045.011-.019-.006c0 .011-.006.015-.015.015h-.006a7.018 7.018 0 0 1-.746-.271m-.3 1.943v.759h1.06c.527 0 .591.284.591.666v2.657a10.3 10.3 0 0 0 2.823 1.137v-1.954l-.03.045-.056-.021c-.127-.206-1-1.44-4-3.053a3.659 3.659 0 0 1-.387-.236" transform="translate(-32.964 -3.87)"/>
        <path id="path12180" d="M201.748 35.5c.064.067.138.138.217.215l.026.011-.243-.226m-.447.075a9.012 9.012 0 0 0 .185 1.258c.1.469.2.8.2.806l-.015.049-.052.006a.668.668 0 0 0 .056.039l.056.03a16.966 16.966 0 0 1-.426-2.188m.714.172s0 .013.009.021c.224.211.5.458.828.724-.295-.254-.585-.516-.836-.746m-.838 1.55l.034.12.009-.024.049.006c-.032-.037-.064-.071-.092-.1m3.285.344a9.563 9.563 0 0 0 1.129.561c.09.039.174.071.249.1h.107c-.32-.127-.944-.385-1.485-.662" class="cls-11" transform="translate(-29.68 -1.579)"/>
        <path id="path12182" d="M209.756 40.59h-.107c.183.071.322.118.4.144l-.017-.116-.006.045-.052.011s-.082-.03-.217-.084" class="cls-11" transform="translate(-33.49 -3.87)"/>
        <path id="path12184" d="M201.449 39.7a7.868 7.868 0 0 0 1.346 2.535 5.827 5.827 0 0 0 .705.735c.062.054.116.1.161.133a6.6 6.6 0 0 1-1.933-2.739c-.118-.26-.211-.488-.279-.664m2.351 3.5l.015.045-.041.03a.5.5 0 0 0 .056.009l.105.015c-.041-.028-.086-.06-.135-.1" class="cls-3" transform="translate(-29.803 -3.467)"/>
        <path id="path12186" d="M201.957 40.9a6.583 6.583 0 0 0 1.933 2.739c.084.064.131.095.131.095v.011c.049.039.095.071.135.1l.075.009a6.8 6.8 0 0 1-2.279-2.952" class="cls-4" transform="translate(-30.031 -4.01)"/>
        <path id="path12188" d="M210.07 40.07l.144.286-.013-.092.011-.039.039-.017a1.024 1.024 0 0 1 .35.148h.045c-.062-.034-.125-.067-.181-.095-.172-.088-.31-.153-.4-.191" class="cls-11" transform="translate(-33.679 -3.636)"/>
        <path id="path12190" d="M210.766 40.59h-.045a10.944 10.944 0 0 1 1.124.744 6.414 6.414 0 0 1 1.6 1.862v-.011a6.744 6.744 0 0 0-1.6-1.928 11.14 11.14 0 0 0-1.079-.666m-.432 0v.009-.009" class="cls-11" transform="translate(-33.797 -3.87)"/>
        <path id="path12192" d="M203.934 45.7a7.729 7.729 0 0 0 2.027 1.6c.193.114.38.219.55.31a14.262 14.262 0 0 1-2.186-1.539 2.2 2.2 0 0 1-.211-.213l-.039-.043h.009v-.056h.013l-.168-.058m2.451 2.287l.135.1.069.011v-.015l.056-.028a3.2 3.2 0 0 0 .778.114h.071l-.1-.054-.026.021a7.807 7.807 0 0 1-.982-.15m.421.31a14.342 14.342 0 0 0 1.281.8v-.03c-.4-.215-.83-.469-1.281-.765" class="cls-3" transform="translate(-30.92 -6.165)"/>
        <path id="path12196" d="M211.48 51.8v.03a14.184 14.184 0 0 0 1.406.675c.447.187.823.316 1.086.4.168.052.288.086.355.1v-.107h-.026v.067a11.939 11.939 0 0 1-2.821-1.165" class="cls-4" transform="translate(-34.313 -8.913)"/>
        <path id="path12198" d="M204.191 45.9l.039.043c-.019-.021-.028-.034-.03-.037h-.011m.249.256a14.412 14.412 0 0 0 2.186 1.539c.17.092.322.17.451.234.262.131.426.2.426.2l.028.056-.024.017c.037.021.069.039.1.054.049 0 .092-.006.129-.011a16.008 16.008 0 0 1-3.293-2.092m2.195 2.023c.095.071.191.138.286.2.451.3.881.55 1.281.767v-.034c-.849-.46-1.483-.881-1.485-.881l-.013-.045-.069-.011" class="cls-4" transform="translate(-31.036 -6.257)"/>
        <path id="path12202" d="M211.48 51.742v.034a11.938 11.938 0 0 0 2.823 1.157v-.067a10.17 10.17 0 0 1-2.823-1.124" class="cls-12" transform="translate(-34.313 -8.884)"/>
        <path id="path12204" d="M204.727 45.961a2.523 2.523 0 0 0 .258.08c-.077-.021-.168-.049-.258-.08" class="cls-3" transform="translate(-31.277 -6.285)"/>
        <path id="path12208" d="M201.114 34.43l-.03.041q-.013.139-.013.29a10.188 10.188 0 0 0 .363 2.3 2.255 2.255 0 0 1-.241-.236c-.112-.127-.2-.241-.2-.241l-.06-.013-.026.054a7.47 7.47 0 0 0 2.4 4.143c-.105-.03-.236-.071-.359-.112-.254-.084-.492-.166-.492-.166l-.056.015v.058a10.046 10.046 0 0 0 3.336 2.384c-.129-.019-.277-.043-.415-.069-.258-.047-.479-.095-.482-.095l-.054.026.015.058a13.556 13.556 0 0 0 1.926 1.268v-.112a14.341 14.341 0 0 1-1.281-.8l-.314-.211a.128.128 0 0 1 .028 0l-.135-.1a7.808 7.808 0 0 0 .982.15l.026-.021c-.193-.107-.514-.288-.881-.509-.17-.09-.357-.2-.55-.31a7.729 7.729 0 0 1-2.027-1.6c.047.017.105.037.168.056h-.013v.056a4.866 4.866 0 0 0 1.139.3s-.071-.041-.176-.114c-.034 0-.069-.009-.105-.015l-.056-.009.041-.03-.015-.045c-.043-.032-.088-.067-.135-.105s-.1-.077-.161-.133a5.826 5.826 0 0 1-.705-.735 7.869 7.869 0 0 1-1.346-2.535c.069.176.161.4.279.664a8.4 8.4 0 0 1-.329-1.058s.08.232.531.479h.015a13.282 13.282 0 0 1-.378-1.971c-.006-.049-.015-.1-.022-.146-.032-.247-.052-.432-.06-.552l.039.047v-.028s.191.219.525.55a.113.113 0 0 0-.009-.024l.03-.06.017.009c-.08-.077-.153-.148-.215-.215l.241.226.019.009a.036.036 0 0 0 0 .011c.252.23.542.492.838.746-.331-.267-.606-.514-.83-.724.015.037.041.105.082.2.1.092.206.193.32.3a17.477 17.477 0 0 0 1.535 1.176 9.235 9.235 0 0 0 1.621.864h.258c-.075-.03-.159-.062-.249-.1a9.562 9.562 0 0 1-1.129-.561c.542.277 1.165.535 1.488.662h.267l-.144-.286c.088.039.226.1.4.191.056.028.116.06.181.095h.2a7.72 7.72 0 0 0-.866-.428l-.054.011-.006.056.155.31c-.157-.062-.456-.181-.8-.331a8.767 8.767 0 0 1-1.434-.752 20.674 20.674 0 0 1-1.681-1.412c-.509-.464-.884-.832-.884-.832l-.052-.011m.381 2.782l.052-.006.015-.049s-.1-.338-.2-.806a9.344 9.344 0 0 1-.185-1.258 16.97 16.97 0 0 0 .426 2.188l-.056-.03a.672.672 0 0 1-.056-.039m-.406-.277l-.032-.123c.028.034.06.069.092.105l-.052-.006-.009.024m2.18 3.921a2.519 2.519 0 0 1-.258-.08c.09.028.181.058.258.08m2.866-3.184l-.039.017-.011.039.013.092h.024c0-.011.006-.019.015-.019h.006l.043.017h.011l-.006-.032.08.032h.215a1.024 1.024 0 0 0-.35-.148m0 .082" class="cls-11" transform="translate(-29.56 -1.1)"/>
        <path id="path12212" d="M210.45 40.59h-.2a11.136 11.136 0 0 1 1.079.666 6.7 6.7 0 0 1 1.593 1.928v.011a6.414 6.414 0 0 0-1.6-1.862 10.945 10.945 0 0 0-1.124-.744h-.215l.116.058c.107.056.26.144.464.277a6.258 6.258 0 0 1 .89.634c.112.095.221.193.325.3a7.49 7.49 0 0 1 1.251 1.62v-.094l-.017-.22.017.03a7 7 0 0 0-1.653-2.019c-.342-.239-.66-.434-.931-.587m-.535 0h-.01l.011.006v-.004m-.075 0h-.024v.009-.009h-.269c.135.054.217.084.217.084l.052-.011.006-.045.017.116c-.077-.026-.217-.073-.4-.144h-.258c.359.15.617.234.686.256a.428.428 0 0 0-.011-.129.432.432 0 0 1-.015-.127m.606 6.2v.11a12.611 12.611 0 0 0 2.881 1.169l.041-.009.019-.037v-.213l-.041-.049c-.028 0-.054-.006-.082-.013v.1h.026v.107c-.067-.017-.187-.049-.355-.1-.262-.082-.636-.209-1.086-.4a14.184 14.184 0 0 1-1.406-.675" class="cls-11" transform="translate(-33.279 -3.87)"/>
        <path id="path12214" d="M201.586 35.027v.028c.019.024.043.049.067.077.112.125.269.286.466.475a.176.176 0 0 0-.011-.03c-.335-.331-.525-.55-.525-.55m.043.681a13.227 13.227 0 0 0 .378 1.969h.009l.015-.047a18.63 18.63 0 0 1-.4-1.92m.66.043c0 .006.006.013.009.019.1.088.2.181.312.277-.116-.1-.221-.2-.32-.3" class="cls-4" transform="translate(-29.864 -1.368)"/>
        <path id="path12218" d="M211.7 41.2c.185.12.417.279.7.488.064.047.127.095.189.146a6.259 6.259 0 0 0-.89-.634m1.215.931a7.08 7.08 0 0 1 1.161 1.576l.056.024.009-.011a7.371 7.371 0 0 0-1.225-1.589" class="cls-12" transform="translate(-34.414 -4.144)"/>
        <path id="path12220" d="M204.262 45.977a2.2 2.2 0 0 0 .211.213c-.077-.073-.148-.144-.211-.213m2.526 2.2l-.056.028v.015a9.522 9.522 0 0 0 1.006.125s-.039-.019-.105-.056h-.073a3.18 3.18 0 0 1-.776-.114" class="cls-3" transform="translate(-31.068 -6.292)"/>
        <path id="path12222" d="M201.359 38.981a8.4 8.4 0 0 0 .329 1.058 6.8 6.8 0 0 0 2.279 2.952l-.075-.009c.105.073.172.11.176.114h.112l.047-.037-.026-.056c-1.361-.677-2.277-2.6-2.644-3.523-.049-.123-.088-.226-.118-.307a1.4 1.4 0 0 0 .428.288h.024c-.451-.247-.531-.479-.531-.479m4.979.868c-.009 0-.013.006-.015.017h.064a.357.357 0 0 1-.043-.017h-.006" class="cls-4" transform="translate(-29.762 -3.146)"/>
        <path id="path12224" d="M210.442 40.59h-.064a.433.433 0 0 0 .015.127.427.427 0 0 1 .011.129l.019.006.045-.011.015-.043-.03-.2-.011-.006" class="cls-11" transform="translate(-33.817 -3.87)"/>
        <path id="path12226" d="M204.9 45.879c.047.039.092.073.135.105v-.011s-.047-.03-.131-.095m-.692.015a.238.238 0 0 0 .028.037c.062.069.133.142.211.213a16.009 16.009 0 0 0 3.293 2.092c-.037 0-.08.009-.129.011l.105.058a9.531 9.531 0 0 1-1.006-.127l.013.045s.636.421 1.485.881v-.112c-.393-.213-.737-.417-.989-.572-.082-.049-.153-.092-.213-.131a2.984 2.984 0 0 0 .533.056 1.078 1.078 0 0 0 .359-.045l.03-.043-.028-.047a15.253 15.253 0 0 1-3.459-2.2 3.249 3.249 0 0 0 .9.189 4.8 4.8 0 0 1-1.137-.3" class="cls-4" transform="translate(-31.045 -6.248)"/>
        <path id="path12230" d="M211.48 51.539v.112a10.17 10.17 0 0 0 2.823 1.124v-.1a10.3 10.3 0 0 1-2.823-1.137" class="cls-12" transform="translate(-34.313 -8.793)"/>
        <path id="path12232" d="M208.6 49.16c.368.221.688.4.881.509l.024-.017-.028-.056s-.163-.071-.424-.2c-.131-.064-.284-.142-.454-.234m-.019.477c.105.073.211.144.314.213-.095-.069-.191-.135-.286-.206l-.028-.006" class="cls-4" transform="translate(-33.01 -7.723)"/>
        <path id="path12234" d="M206.773 42.426a6.4 6.4 0 0 0 .939.817V43.2a7.4 7.4 0 0 1-.939-.778" class="cls-13" transform="translate(-32.197 -4.695)"/>
        <path id="path12238" d="M208.48 43.84v.039a4.384 4.384 0 0 0 .434.269 12.648 12.648 0 0 1 3.854 2.84 11.968 11.968 0 0 0-3.605-2.734 5.886 5.886 0 0 1-.684-.413" class="cls-11" transform="translate(-32.964 -5.331)"/>
        <path id="path12242" fill="#c55c47" d="M216.6 49.945v.06zm0 0" transform="translate(-36.617 -8.076)"/>
        <path id="path12246" d="M202.559 36.082a10.417 10.417 0 0 0 3.259 4.426v-.118a6.4 6.4 0 0 1-.939-.817 7.4 7.4 0 0 0 .939.778v-.118a9.909 9.909 0 0 1-2.952-3.7c-.052-.112-.1-.206-.131-.286l-.12-.112-.056-.052" class="cls-13" transform="translate(-30.302 -1.843)"/>
        <path id="path12250" d="M208.48 43.625v.118a6.2 6.2 0 0 0 .684.413 11.934 11.934 0 0 1 3.605 2.737 12.6 12.6 0 0 0-3.854-2.842 4.438 4.438 0 0 1-.434-.269v.118a4.522 4.522 0 0 0 .387.234c2.995 1.612 3.872 2.846 4 3.053l.056.021.03-.045V47.1l-.009-.129-.009-.026a11.584 11.584 0 0 0-3.723-2.878 5.783 5.783 0 0 1-.729-.445M212.908 47.158" class="cls-11" transform="translate(-32.964 -5.234)"/>
        <path id="path12254" d="M202.609 35.887c.019.017.039.034.058.054 0-.009-.006-.017-.009-.021s-.015-.015-.024-.021l-.026-.011" class="cls-15" transform="translate(-30.324 -1.755)"/>
        <path id="path12258" d="M202.553 35.871l-.03.06a.1.1 0 0 1 .009.024l.178.174c-.039-.092-.067-.161-.082-.2l-.058-.054-.017-.009m.043.019c.009.006.015.015.024.021s0-.009 0-.011l-.019-.009" class="cls-15" transform="translate(-30.286 -1.748)"/>
        <path id="path12262" fill="#bf4f3d" d="M202.539 36.027c0 .011.006.019.011.03l.056.052.12.112a.083.083 0 0 0-.009-.019c-.062-.062-.123-.118-.178-.174" transform="translate(-30.293 -1.818)"/>
        <path id="path12264" d="M203.55 37.439l-.05-.759zm0 0" class="cls-11" transform="translate(-30.725 -2.111)"/>
        <path id="path12266" d="M203.55 37.439l-.05-.759" class="cls-17" transform="translate(-30.725 -2.111)"/>
        <path id="path12268" d="M204.425 38.621l-.1-1.172zm0 0" class="cls-11" transform="translate(-31.097 -2.457)"/>
        <path id="path12270" d="M204.425 38.621l-.1-1.172" class="cls-17" transform="translate(-31.097 -2.457)"/>
        <path id="path12272" d="M205.306 39.657l-.123-1.477zm0 0" class="cls-11" transform="translate(-31.482 -2.786)"/>
        <path id="path12274" d="M205.306 39.657l-.123-1.477" class="cls-17" transform="translate(-31.482 -2.786)"/>
        <path id="path12276" d="M206.182 40.461l-.146-1.664zm0 0" class="cls-11" transform="translate(-31.865 -3.063)"/>
        <path id="path12278" d="M206.179 40.461l-.144-1.664" class="cls-17" transform="translate(-31.865 -3.063)"/>
        <path id="path12280" d="M208.722 42.33l-.163-2.139zm0 0" class="cls-11" transform="translate(-33 -3.69)"/>
        <path id="path12282" d="M208.722 42.33l-.163-2.139" class="cls-17" transform="translate(-33 -3.69)"/>
        <path id="path12284" d="M207.035 41.2l-.153-1.87zm0 0" class="cls-11" transform="translate(-32.246 -3.304)"/>
        <path id="path12286" d="M207.035 41.2l-.153-1.87" class="cls-17" transform="translate(-32.246 -3.304)"/>
        <path id="path12288" d="M207.885 41.866l-.166-2.139zm0 0" class="cls-11" transform="translate(-32.622 -3.481)"/>
        <path id="path12290" d="M207.885 41.866l-.166-2.139" class="cls-17" transform="translate(-32.622 -3.481)"/>
        <path id="path12292" d="M209.547 42.768l-.163-2.139zm0 0" class="cls-11" transform="translate(-33.371 -3.887)"/>
        <path id="path12294" d="M209.547 42.768l-.163-2.139" class="cls-17" transform="translate(-33.371 -3.887)"/>
        <path id="path12296" d="M210.372 43.2l-.181-2.262zm0 0" class="cls-11" transform="translate(-33.734 -4.026)"/>
        <path id="path12298" d="M210.372 43.2l-.181-2.262" class="cls-17" transform="translate(-33.734 -4.026)"/>
        <path id="path12300" d="M211.187 43.35l-.215-2.679zm0 0" class="cls-11" transform="translate(-34.085 -3.907)"/>
        <path id="path12302" d="M211.187 43.352l-.215-2.676" class="cls-17" transform="translate(-34.085 -3.908)"/>
        <path id="path12304" d="M212.028 43.885l-.224-2.78zm0 0" class="cls-11" transform="translate(-34.459 -4.101)"/>
        <path id="path12306" d="M212.028 43.885l-.224-2.78" class="cls-17" transform="translate(-34.459 -4.101)"/>
        <path id="path12308" d="M212.867 44.443l-.226-2.818zm0 0" class="cls-11" transform="translate(-34.835 -4.335)"/>
        <path id="path12310" d="M212.867 44.443l-.226-2.818" class="cls-17" transform="translate(-34.835 -4.335)"/>
        <path id="path12312" d="M213.7 45.159l-.221-2.616zm0 0" class="cls-11" transform="translate(-35.213 -4.748)"/>
        <path id="path12314" d="M213.7 45.384l-.222-2.841" class="cls-18" transform="translate(-35.213 -4.973)"/>
        <path id="path12316" d="M214.576 45.96l-.228-2.569zm0 0" class="cls-11" transform="translate(-35.603 -5.129)"/>
        <path id="path12318" d="M214.576 46.082l-.228-2.691" class="cls-18" transform="translate(-35.603 -5.252)"/>
        <path id="path12320" d="M215.437 46.8l-.215-2.507zm0 0" class="cls-11" transform="translate(-35.996 -5.535)"/>
        <path id="path12322" d="M215.437 46.8l-.215-2.507" class="cls-18" transform="translate(-35.996 -5.535)"/>
        <path id="path12324" fill="#9e1419" d="M216.323 48.009l-.2-2.322zm0 0" transform="translate(-36.4 -6.162)"/>
        <path id="path12326" d="M216.325 47.949l-.251-2.521" class="cls-18" transform="translate(-36.402 -6.101)"/>
    </g>
</svg>
