<svg xmlns="http://www.w3.org/2000/svg" width="24" height="24.001" viewBox="0 0 24 24.001">
    <g fill="#283c8c">
        <path d="M21.833 8a6.5 6.5 0 1 0 6.5 6.5 6.507 6.507 0 0 0-6.5-6.5zm2.206 8.707a1 1 0 0 1-1.414 0l-1.5-1.5a1 1 0 0 1-.292-.708V12a1 1 0 0 1 2 0v2.086l1.207 1.207a1 1 0 0 1 0 1.414z" opacity="0.6" transform="translate(-290 -226) translate(285.667 218)"/>
        <path d="M30 22h-1v-.76a8.53 8.53 0 0 1-2 .63V22H12v-9a1 1 0 0 1 1-1h4.14a8.025 8.025 0 0 1 .619-2H13a3.009 3.009 0 0 0-3 3v9H9a1 1 0 0 0 0 2h6.16l-2.1 5.65a1 1 0 1 0 1.879.7L17.291 24H18.5v4a1 1 0 1 0 2 0v-4h1.21l2.35 6.349a1 1 0 1 0 1.879-.7L23.841 24H30a1 1 0 1 0 0-2z" transform="translate(-290 -226) translate(282 219)"/>
    </g>
</svg>
