<svg xmlns="http://www.w3.org/2000/svg" width="18.534" height="21.182" viewBox="0 0 18.534 21.182">
    <path d="M12.3 10.061a1.084 1.084 0 1 1-1.08-1.176 1.128 1.128 0 0 1 1.08 1.176zM7.35 8.886a1.18 1.18 0 0 0 0 2.351 1.128 1.128 0 0 0 1.08-1.176 1.122 1.122 0 0 0-1.08-1.175zm11.184-6.7v19c-2.668-2.358-1.815-1.577-4.914-4.459l.561 1.959H2.171A2.176 2.176 0 0 1 0 16.5V2.182A2.176 2.176 0 0 1 2.171 0h14.192a2.176 2.176 0 0 1 2.171 2.182zm-3.018 10.04a14.183 14.183 0 0 0-1.525-6.174 5.237 5.237 0 0 0-2.976-1.112l-.148.169A7.048 7.048 0 0 1 13.5 6.45a9 9 0 0 0-7.911-.307c-.392.18-.625.307-.625.307a7.145 7.145 0 0 1 2.789-1.388l-.106-.127a5.237 5.237 0 0 0-2.976 1.112 14.183 14.183 0 0 0-1.525 6.174 3.84 3.84 0 0 0 3.23 1.61s.392-.477.71-.879A3.294 3.294 0 0 1 5.232 11.7c.156.109.413.25.434.265a7.72 7.72 0 0 0 6.609.371 6.06 6.06 0 0 0 1.218-.625 3.342 3.342 0 0 1-1.917 1.26c.318.4.7.858.7.858a3.871 3.871 0 0 0 3.24-1.607z" opacity="0.6"/>
</svg>
