<svg xmlns="http://www.w3.org/2000/svg" width="19" height="19" viewBox="0 0 19 19">
    <path d="M16.964 2.25H2.036A2.036 2.036 0 0 0 0 4.286v14.928a2.036 2.036 0 0 0 2.036 2.036h14.928A2.036 2.036 0 0 0 19 19.214V4.286a2.036 2.036 0 0 0-2.036-2.036zM14.89 8.985c.008.119.008.242.008.36a7.86 7.86 0 0 1-7.914 7.914 7.877 7.877 0 0 1-4.271-1.247 5.86 5.86 0 0 0 .67.034 5.577 5.577 0 0 0 3.452-1.187 2.785 2.785 0 0 1-2.6-1.93 3 3 0 0 0 1.255-.051 2.782 2.782 0 0 1-2.227-2.731v-.034a2.78 2.78 0 0 0 1.255.352 2.776 2.776 0 0 1-1.235-2.316 2.747 2.747 0 0 1 .377-1.4 7.9 7.9 0 0 0 5.734 2.906 2.787 2.787 0 0 1 4.746-2.54 5.45 5.45 0 0 0 1.764-.67 2.774 2.774 0 0 1-1.221 1.531 5.535 5.535 0 0 0 1.6-.433 5.855 5.855 0 0 1-1.393 1.442z" opacity="0.6" transform="translate(0 -2.25)"/>
</svg>
