<svg xmlns="http://www.w3.org/2000/svg" width="19" height="19" viewBox="0 0 19 19">
    <path d="M17.643 2.25H1.353A1.363 1.363 0 0 0 0 3.62v16.26a1.363 1.363 0 0 0 1.353 1.37h16.29A1.367 1.367 0 0 0 19 19.88V3.62a1.367 1.367 0 0 0-1.357-1.37zM5.742 18.536H2.926V9.468h2.82v9.067zM4.334 8.23A1.633 1.633 0 1 1 5.967 6.6a1.634 1.634 0 0 1-1.633 1.63zM16.3 18.536h-2.818v-4.411c0-1.052-.021-2.4-1.463-2.4-1.467 0-1.692 1.145-1.692 2.328v4.487H7.511V9.468h2.7v1.238h.038a2.966 2.966 0 0 1 2.668-1.463c2.85 0 3.38 1.879 3.38 4.322z" opacity="0.6" transform="translate(0 -2.25)"/>
</svg>
