<svg xmlns="http://www.w3.org/2000/svg" width="33.49" height="33.472" viewBox="0 0 33.49 33.472">
    <defs>
        <linearGradient id="nw539mrxga" x1=".326" x2=".654" y1="-.08" y2="1.016" gradientUnits="objectBoundingBox">
            <stop offset="0" stop-color="#4367dc"/>
            <stop offset=".043" stop-color="#4c62d6"/>
            <stop offset=".114" stop-color="#6654c7"/>
            <stop offset=".205" stop-color="#8f3dae"/>
            <stop offset=".234" stop-color="#9e35a5"/>
            <stop offset=".451" stop-color="#d42f7f"/>
            <stop offset=".824" stop-color="#d73578"/>
        </linearGradient>
        <linearGradient id="on6scsallb" x1=".739" x2=".227" y1=".099" y2=".959" gradientUnits="objectBoundingBox">
            <stop offset=".33" stop-color="#d42f7f"/>
            <stop offset="1" stop-color="#f7772e"/>
        </linearGradient>
        <linearGradient id="b1k40e770c" x1=".624" x2=".301" y1=".206" y2=".975" gradientUnits="objectBoundingBox">
            <stop offset="0" stop-color="#9e35a5" stop-opacity="0"/>
            <stop offset=".451" stop-color="#d42f7f" stop-opacity=".502"/>
            <stop offset=".752" stop-color="#f7772e"/>
            <stop offset="1" stop-color="#fef780"/>
        </linearGradient>
    </defs>
    <g transform="translate(-.066 -.079)">
        <path fill="url(#nw539mrxga)" d="M33.463 9.915a12.354 12.354 0 0 0-.78-4.065 8.251 8.251 0 0 0-1.927-2.964A8.131 8.131 0 0 0 27.792.96a12.354 12.354 0 0 0-4.064-.78c-1.789-.083-2.358-.1-6.9-.1s-5.12.018-6.9.1a12.354 12.354 0 0 0-4.065.78A8.251 8.251 0 0 0 2.9 2.886 8.131 8.131 0 0 0 .973 5.85a12.354 12.354 0 0 0-.78 4.065c-.083 1.789-.1 2.358-.1 6.9s.018 5.12.1 6.9a12.354 12.354 0 0 0 .78 4.065A8.251 8.251 0 0 0 2.9 30.743a8.131 8.131 0 0 0 2.963 1.927 12.355 12.355 0 0 0 4.065.78c1.789.083 2.358.1 6.9.1s5.12-.018 6.9-.1a12.354 12.354 0 0 0 4.065-.78 8.251 8.251 0 0 0 2.964-1.927 8.131 8.131 0 0 0 1.927-2.964 12.354 12.354 0 0 0 .78-4.065c.083-1.789.1-2.358.1-6.9s-.019-5.119-.101-6.899zm-3.01 13.662a9.213 9.213 0 0 1-.578 3.11 5.2 5.2 0 0 1-1.257 1.927 5.318 5.318 0 0 1-1.927 1.257 9.213 9.213 0 0 1-3.11.578c-1.762.083-2.294.1-6.762.1s-5-.018-6.762-.1a9.213 9.213 0 0 1-3.11-.578 5.2 5.2 0 0 1-1.927-1.257 5.317 5.317 0 0 1-1.257-1.927 9.214 9.214 0 0 1-.578-3.11c-.083-1.762-.1-2.294-.1-6.762s.018-5 .1-6.762a9.213 9.213 0 0 1 .578-3.11 5.2 5.2 0 0 1 1.256-1.928 5.316 5.316 0 0 1 1.927-1.257 9.213 9.213 0 0 1 3.11-.578c1.762-.083 2.294-.1 6.762-.1s5 .018 6.762.1a9.214 9.214 0 0 1 3.11.578 5.2 5.2 0 0 1 1.927 1.257 5.317 5.317 0 0 1 1.257 1.927 9.213 9.213 0 0 1 .578 3.11c.083 1.762.1 2.294.1 6.762s-.026 5.001-.099 6.763z" transform="translate(-.008)"/>
        <path fill="url(#on6scsallb)" d="M20.309 11.712a8.6 8.6 0 1 0 8.6 8.6 8.6 8.6 0 0 0-8.6-8.6zm0 14.176a5.579 5.579 0 1 1 5.579-5.579 5.576 5.576 0 0 1-5.579 5.578z" transform="translate(-3.498 -3.494)"/>
        <circle cx="2.009" cy="2.009" r="2.009" fill="#bc30a0" transform="translate(23.738 5.868)"/>
        <path fill="url(#b1k40e770c)" d="M.066 16.815c0 4.551.018 5.12.1 6.9a12.354 12.354 0 0 0 .78 4.065 8.251 8.251 0 0 0 1.927 2.964 8.131 8.131 0 0 0 2.964 1.926 12.354 12.354 0 0 0 4.065.78c1.789.083 2.358.1 6.9.1s5.12-.018 6.9-.1a12.354 12.354 0 0 0 4.065-.78 8.251 8.251 0 0 0 2.964-1.927 8.131 8.131 0 0 0 1.927-2.964 12.354 12.354 0 0 0 .78-4.065c.083-1.789.1-2.358.1-6.9s-.018-5.12-.1-6.9a12.354 12.354 0 0 0-.78-4.065 8.251 8.251 0 0 0-1.928-2.963A8.131 8.131 0 0 0 27.766.96 12.354 12.354 0 0 0 23.7.18c-1.789-.083-2.358-.1-6.9-.1s-5.118.02-6.9.1a12.354 12.354 0 0 0-4.063.78 8.251 8.251 0 0 0-2.964 1.926A8.131 8.131 0 0 0 .946 5.85a12.354 12.354 0 0 0-.78 4.065c-.082 1.78-.1 2.349-.1 6.9zm3.019 0c0-4.468.018-5 .1-6.762a9.213 9.213 0 0 1 .578-3.11A5.2 5.2 0 0 1 5.02 5.015a5.316 5.316 0 0 1 1.927-1.257 9.213 9.213 0 0 1 3.11-.578c1.762-.083 2.294-.1 6.762-.1s5 .018 6.762.1a9.214 9.214 0 0 1 3.11.578 5.2 5.2 0 0 1 1.927 1.257 5.317 5.317 0 0 1 1.257 1.927 9.213 9.213 0 0 1 .578 3.11c.083 1.762.1 2.294.1 6.762s-.018 5-.1 6.762a9.213 9.213 0 0 1-.578 3.11 5.2 5.2 0 0 1-1.257 1.927 5.318 5.318 0 0 1-1.927 1.257 9.213 9.213 0 0 1-3.11.578c-1.762.083-2.294.1-6.762.1s-5-.018-6.762-.1a9.213 9.213 0 0 1-3.11-.578 5.2 5.2 0 0 1-1.927-1.256 5.317 5.317 0 0 1-1.257-1.927 9.214 9.214 0 0 1-.578-3.11c-.085-1.762-.101-2.294-.101-6.762z"/>
    </g>
</svg>
