<svg xmlns="http://www.w3.org/2000/svg" width="57" height="33.471" viewBox="0 0 57 33.471">
    <path fill="#fff" d="M0 0H57V19H0z"/>
    <path d="M45.374 570.66c-.031-.013-.033-.047-.007-.123.033-.1.049-.1.177-.086s.151 0 .2-.065c.093-.133.021-.23-.148-.2-.13.024-.132.023-.107-.077.08-.317.087-.3-.15-.347a1.4 1.4 0 0 1-.76-.445 1.55 1.55 0 0 1-.389-1.26 1.373 1.373 0 0 1 .131-.6 1.658 1.658 0 0 1 1.76-.867 3.62 3.62 0 0 1 .519.07l.185.048.011.342.011.342h-.112c-.066 0-.112-.019-.112-.047 0-.1-.226-.318-.386-.379a1.271 1.271 0 0 0-.808.036 1.25 1.25 0 0 0-.528 1.456 1.343 1.343 0 0 0 .377.721.863.863 0 0 0 .683.281.687.687 0 0 0 .664-.381c.093-.175.126-.2.215-.14.042.026.042.087 0 .368l-.048.336-.169.058a2.374 2.374 0 0 1-.473.081c-.289.021-.3.027-.3.109 0 .066.02.087.084.087a.283.283 0 0 1 .266.22.446.446 0 0 1-.206.428 1.243 1.243 0 0 1-.576.03zm-21.98-.155a2.907 2.907 0 0 1-.927-.478l-.287-.209-.443-.023a1.448 1.448 0 0 1-.981-.313 1.719 1.719 0 0 1-.048-2.46 1.851 1.851 0 0 1 2.055-.227 1.672 1.672 0 0 1 .173 2.61 1.161 1.161 0 0 1-.268.207 6.234 6.234 0 0 0 1.047.573 1.3 1.3 0 0 0 .848.037c.175-.062.2-.054.234.058.017.065-.013.093-.189.175a2.13 2.13 0 0 1-1.212.05zm-1.083-1.142a1.4 1.4 0 0 0 .23-2.019.9.9 0 0 0-1.6.18 1.568 1.568 0 0 0 .61 1.87.893.893 0 0 0 .762-.031zm-19.416.383c-.17-.074-.356-.3-.65-.8-.452-.768-.537-.881-.663-.881h-.11v.416c0 .759.078 1.018.317 1.078a.1.1 0 0 1 .089.114v.092H.364v-.087c0-.066.028-.1.116-.12a.436.436 0 0 0 .194-.137c.076-.1.078-.138.078-1.539s0-1.438-.078-1.539a.436.436 0 0 0-.194-.143c-.085-.024-.116-.055-.116-.114 0-.081 0-.081.938-.105.994-.026 1.213-.007 1.494.129a.951.951 0 0 1 .449.791 1.138 1.138 0 0 1-.618.939l-.184.092.407.61c.479.718.63.91.771.983s.145.217.021.25a2.076 2.076 0 0 1-.748-.028zm-.924-2.059a.72.72 0 0 0 .288-1.184.674.674 0 0 0-.6-.2l-.183.025v1.4h.175a1.469 1.469 0 0 0 .319-.041zm8.512 2.059a1.129 1.129 0 0 1-.494-.334c-.184-.241-.2-.367-.205-1.347 0-1.024-.022-1.136-.21-1.224-.075-.035-.12-.083-.12-.129 0-.071.024-.074.627-.074.627 0 .628 0 .628.083 0 .056-.022.083-.067.083a.293.293 0 0 0-.157.1l-.09.1v1c0 .945 0 1.012.077 1.15a.62.62 0 0 0 .626.308.618.618 0 0 0 .6-.4c.1-.2.1-.215.1-1.113 0-.8-.007-.918-.064-1.006a.32.32 0 0 0-.157-.122c-.057-.014-.092-.049-.092-.093 0-.065.034-.07.5-.07s.5 0 .5.07c0 .044-.034.078-.091.093-.17.043-.184.122-.2 1.189l-.019 1-.111.217a1 1 0 0 1-.618.515 2.289 2.289 0 0 1-.957.005zm14.408 0a1.125 1.125 0 0 1-.5-.339c-.174-.228-.2-.4-.2-1.362 0-1-.022-1.117-.21-1.2-.075-.035-.12-.083-.12-.129 0-.071.024-.074.627-.074.621 0 .628 0 .628.081a.083.083 0 0 1-.079.092.31.31 0 0 0-.157.116c-.073.1-.078.159-.09.968-.014.995.014 1.2.182 1.377a.737.737 0 0 0 1.118-.154 3.017 3.017 0 0 0 .128-1.319c-.015-.828-.039-.931-.235-.98-.057-.014-.092-.049-.092-.093 0-.065.034-.07.5-.07s.5 0 .5.069c0 .042-.043.087-.108.114a.294.294 0 0 0-.136.106c-.016.034-.038.511-.049 1.062l-.021 1-.111.217a1 1 0 0 1-.618.515 2.289 2.289 0 0 1-.958.003zm11.694 0c-.148-.064-.323-.283-.6-.742-.351-.592-.391-.646-.482-.646s-.083.007-.083.463c0 .552.046.708.22.743.087.018.112.042.112.11v.088H34.5v-.088c0-.068.025-.093.112-.11.21-.042.225-.142.213-1.428L34.814 567l-.09-.1a.293.293 0 0 0-.157-.1.064.064 0 0 1-.067-.071c0-.061.037-.074.271-.1.149-.014.561-.019.914-.011.575.013.66.023.8.1a.748.748 0 0 1 .382.7.865.865 0 0 1-.489.749c-.1.057-.166.115-.144.128a5.915 5.915 0 0 1 .363.512c.35.527.545.765.626.765s.065.172-.007.2a1.475 1.475 0 0 1-.628-.03zm-.683-1.738a.583.583 0 0 0 .13-.966.516.516 0 0 0-.475-.133l-.133.016v1.137h.187a.78.78 0 0 0 .291-.054zm16.445 1.732a1.433 1.433 0 0 1-.216-.069 2.984 2.984 0 0 1-.06-.368l-.045-.354h.1c.057 0 .1.014.1.031a.941.941 0 0 0 .383.447c.38.184.836.011.836-.317 0-.215-.1-.344-.461-.567-.5-.313-.692-.479-.792-.679a1.07 1.07 0 0 1-.042-.738 1.018 1.018 0 0 1 .477-.46 2.194 2.194 0 0 1 1.067 0l.194.068v.659h-.107c-.083 0-.112-.02-.13-.092a.66.66 0 0 0-.4-.392c-.443-.119-.8.336-.52.666a4.087 4.087 0 0 0 .536.412c.468.317.64.49.7.7a.818.818 0 0 1-.54 1.033 2.257 2.257 0 0 1-1.081.018zm-48.4-.078c0-.065.021-.085.09-.085a.24.24 0 0 0 .166-.1c.074-.094.077-.14.077-1.258a7.281 7.281 0 0 0-.043-1.242.29.29 0 0 0-.225-.172c-.044 0-.065-.031-.065-.094v-.092h2.217v.781l-.1-.012c-.073-.009-.107-.043-.139-.138-.073-.221-.194-.277-.634-.293l-.386-.014V568l.3-.017c.324-.019.487-.1.509-.245.009-.059.038-.079.111-.079h.1v.96h-.1c-.082 0-.1-.017-.1-.087 0-.165-.123-.226-.484-.24l-.329-.013v.519c0 .625.006.634.428.634s.633-.105.741-.36c.055-.129.183-.166.222-.064a1.83 1.83 0 0 1-.157.652l-.055.107-1.07-.008-1.07-.009v-.085zm2.845.012c0-.068.025-.093.109-.11.195-.039.2-.094.217-1.28.013-1.236 0-1.347-.2-1.441-.084-.039-.12-.081-.12-.142v-.087l.84.015c.909.016.983.031 1.229.238a.846.846 0 0 1 .158 1.018 1.013 1.013 0 0 1-.877.495l-.231.024-.057-.143-.057-.143.137-.02a.751.751 0 0 0 .462-.269.437.437 0 0 0 .075-.3.565.565 0 0 0-.56-.609l-.2-.017.012 1.233c.013 1.345.019 1.383.224 1.425.076.016.1.043.1.109v.088H6.792v-.088zm6.133-.014c0-.057.022-.083.07-.083a.317.317 0 0 0 .157-.071l.087-.071.011-1.145c.013-1.282 0-1.379-.214-1.459-.067-.025-.111-.069-.111-.108 0-.06.051-.067.563-.075 1.078-.018 1.3-.006 1.479.079a.573.573 0 0 1 .352.528 1.319 1.319 0 0 1-.007.3.751.751 0 0 1-.4.41l-.176.082.149.045a.8.8 0 0 1 .536.879.774.774 0 0 1-.521.683c-.177.081-.224.085-1.081.086h-.9v-.083zm1.629-.278a.544.544 0 0 0 .242-.555.654.654 0 0 0-.727-.617h-.226l.012.557c.011.534.016.56.1.628a.6.6 0 0 0 .6-.013zm-.153-1.535a.451.451 0 0 0 .323-.48c-.032-.289-.265-.45-.653-.45h-.223v1h.194a1.237 1.237 0 0 0 .359-.065zm1.516 1.815c0-.06.025-.084.1-.092a.3.3 0 0 0 .175-.116c.075-.1.078-.144.078-1.238a4.835 4.835 0 0 0-.052-1.226.306.306 0 0 0-.234-.184c-.042 0-.065-.03-.065-.084 0-.083 0-.083.665-.083s.665 0 .665.083c0 .058-.022.083-.072.083a.36.36 0 0 0-.175.089l-.1.089-.011 1.165-.011 1.165.095.062c.075.049.155.058.384.045.352-.02.516-.107.614-.325.065-.145.134-.18.231-.118.037.023.031.091-.028.32a1.844 1.844 0 0 1-.131.378l-.057.087-1.032-.011-1.032-.011zm2.586.011c0-.068.025-.093.112-.11.2-.041.22-.142.22-1.38 0-1.029 0-1.108-.073-1.219a.343.343 0 0 0-.166-.143c-.064-.016-.094-.049-.094-.1 0-.078.011-.079.628-.079s.628 0 .628.079c0 .053-.03.087-.092.1a.32.32 0 0 0-.157.122c-.059.089-.065.212-.065 1.228 0 1.254.015 1.355.208 1.394.081.016.106.042.106.109v.088H18.5zm8.83-.007c0-.061.028-.087.112-.1.2-.041.22-.141.22-1.384 0-1.089 0-1.106-.084-1.23a.329.329 0 0 0-.166-.137c-.059-.009-.082-.037-.082-.1v-.09h2.18v.388c0 .384 0 .388-.088.388-.071 0-.093-.024-.112-.128-.041-.22-.192-.293-.634-.31l-.374-.014-.024.175a5.161 5.161 0 0 0-.024.526v.35l.314-.02c.346-.022.483-.082.52-.231a.1.1 0 0 1 .111-.092h.088v.961h-.09c-.063 0-.093-.021-.094-.065 0-.183-.179-.268-.554-.268h-.3l.013.52c.015.63.012.625.455.625.392 0 .6-.094.7-.323.054-.116.095-.157.155-.157a.14.14 0 0 1 .107.04 2.007 2.007 0 0 1-.2.722c-.044.044-.232.052-1.1.045l-1.049-.008v-.081zm4.064.009c0-.061.034-.1.117-.139a.581.581 0 0 0 .194-.157c.074-.1.077-.146.077-1.5 0-1.566 0-1.585-.258-1.669-.1-.033-.13-.063-.13-.132v-.089h2.586v.924h-.111c-.09 0-.111-.015-.111-.083a.508.508 0 0 0-.287-.387 1.965 1.965 0 0 0-.553-.076l-.416-.017v1.265h.3c.406 0 .545-.053.631-.229.055-.113.088-.138.175-.138h.108v1.113l-.119-.012c-.081-.008-.125-.035-.139-.086-.059-.217-.285-.314-.734-.314H32.5l.015.656c.017.748.049.858.27.938.1.035.13.068.13.132v.085H31.4v-.086zm5.911-.007c0-.068.02-.092.073-.092.113 0 .242-.23.524-.932.376-.94.733-1.9.733-1.964 0-.046.038-.059.175-.059h.175l.5 1.277c.541 1.387.641 1.6.767 1.658a.133.133 0 0 1 .083.12c0 .084 0 .084-.628.084h-.628v-.088c0-.068.025-.093.11-.11.159-.032.168-.139.045-.5l-.106-.314h-.873l-.088.259c-.111.326-.1.549.016.566.06.009.083.037.083.1v.09h-.961v-.092zm1.7-1.294a6.142 6.142 0 0 0-.292-.794.392.392 0 0 0-.084.157l-.154.406-.095.249h.317a1.3 1.3 0 0 0 .307-.018zm1.589 1.3c0-.066.025-.093.1-.109.2-.041.209-.093.224-1.3.016-1.246 0-1.351-.214-1.432-.067-.025-.111-.069-.111-.108 0-.059.042-.066.416-.066h.416l.24.3c.132.167.473.579.757.915s.555.661.6.721l.085.11-.012-.835c-.013-.909-.034-1-.232-1.053-.057-.014-.092-.049-.092-.093 0-.065.034-.07.5-.07s.5 0 .5.071a.083.083 0 0 1-.079.083.31.31 0 0 0-.157.116c-.075.1-.078.149-.089 1.469l-.011 1.364h-.161c-.146 0-.173-.015-.283-.157-.1-.126-1.663-2.064-1.723-2.133-.009-.01-.009.4 0 .905.018 1.03.04 1.153.217 1.189.082.016.107.042.107.109v.088h-1v-.088zm6.465 0c0-.055.021-.092.052-.092.073 0 .21-.173.308-.39.136-.3.768-1.933.877-2.263l.1-.307.165.011.165.011.49 1.256c.27.691.52 1.314.556 1.385.083.162.2.3.267.3.028 0 .049.04.049.092v.092h-1.256v-.092c0-.064.02-.092.067-.092.179 0 .2-.156.06-.563l-.1-.286H48l-.079.249c-.149.471-.141.6.033.6.049 0 .069.027.069.092v.092h-.961zm1.568-1.653c-.07-.208-.137-.4-.149-.434s-.087.108-.183.351c-.089.224-.162.419-.163.434a.891.891 0 0 0 .31.028h.312zm1.684 1.653c0-.072.019-.092.087-.092a.249.249 0 0 0 .157-.078c.066-.072.071-.157.081-1.228.006-.633 0-1.188-.01-1.233a.347.347 0 0 0-.248-.232c-.045 0-.067-.028-.067-.083 0-.083 0-.083.628-.083.6 0 .628 0 .628.074 0 .046-.04.092-.107.121a.31.31 0 0 0-.145.148 11.839 11.839 0 0 0-.051 1.917c.023.434.04.537.1.6a.23.23 0 0 0 .137.076c.048 0 .068.027.068.092v.092h-1.26v-.092zm4.138-.007c0-.066.021-.086.09-.086a.24.24 0 0 0 .166-.1c.074-.094.077-.14.077-1.258a7.283 7.283 0 0 0-.043-1.242.29.29 0 0 0-.225-.172c-.044 0-.065-.031-.065-.094v-.092h2.217v.781l-.1-.012c-.073-.009-.107-.043-.139-.138-.073-.221-.194-.277-.634-.293l-.386-.014v1.043h.231c.321 0 .477-.063.545-.21.041-.087.08-.119.148-.12h.092v.96h-.1c-.082 0-.1-.017-.1-.087 0-.165-.123-.226-.484-.24l-.329-.013v.519c0 .625.006.634.428.634s.633-.105.741-.36c.055-.129.183-.166.222-.064a1.83 1.83 0 0 1-.157.652l-.055.107-1.07-.008-1.07-.008v-.086zm-49.5-3.371l-.09-.069.22-.336a1.244 1.244 0 0 1 .272-.336 1.616 1.616 0 0 1 .513.11 7.242 7.242 0 0 1-.787.7.355.355 0 0 1-.127-.07zm-4.699-2.558h56.266v.333H.253v-.333zm21.414-.756a.6.6 0 0 1-.408-.676.563.563 0 0 1 .348-.431l.175-.081-.106-.061a.2.2 0 0 1-.106-.134.82.82 0 0 1 .338-.337c.016 0-.007-.061-.052-.137a.721.721 0 0 1 .315-.966c.191-.1.256-.1.925-.06.385.025.4.029.379.1a.684.684 0 0 0-.022.107c0 .015-.065.028-.145.028h-.144l.019.215c.042.469-.291.79-.829.8-.279 0-.415.064-.306.134a3.536 3.536 0 0 0 .4.147c.612.2.725.3.7.616a.888.888 0 0 1-.677.734 1.648 1.648 0 0 1-.804.002zm.823-.228c.3-.15.43-.434.266-.583a1.546 1.546 0 0 0-.715-.229.59.59 0 0 0-.446.582c.06.307.505.422.895.23zm.1-1.672a.548.548 0 0 0 .161-.72c-.207-.264-.6.03-.606.451a.257.257 0 0 0 .1.249c.125.107.192.111.343.019zm1.4.857a.327.327 0 0 1-.268-.334 1.726 1.726 0 0 1 .829-1.445 1.587 1.587 0 0 1 1.032-.026c.028.01.007.136-.066.4a3.172 3.172 0 0 0-.178 1.1c.031.058.053.062.151.028s.121-.029.147.011c.053.084.021.116-.19.188-.284.1-.414.078-.456-.066l-.034-.114-.151.085a1.369 1.369 0 0 1-.816.174zm.639-.332a.759.759 0 0 0 .249-.175 5.634 5.634 0 0 0 .259-.952c.024-.132.021-.137-.113-.174-.248-.068-.5.112-.7.505-.209.412-.261.779-.125.874.094.065.151.055.429-.078zm17.492.321a.3.3 0 0 1-.27-.265 1.556 1.556 0 0 1 .361-1.1 1.137 1.137 0 0 1 1.215-.487 1.151 1.151 0 0 1 .279.066 2.566 2.566 0 0 1-.1.524 4.612 4.612 0 0 0-.135.739l-.007.24.157-.007c.141-.006.157 0 .157.077s-.035.095-.213.149c-.294.089-.43.07-.445-.062-.006-.056-.018-.1-.027-.1s-.1.04-.215.088a2.267 2.267 0 0 1-.608.167c-.018.002-.084-.013-.15-.028zm.619-.316a.937.937 0 0 0 .226-.152 3.417 3.417 0 0 0 .3-1c.02-.113.014-.121-.126-.159a.324.324 0 0 0-.276.022 1.5 1.5 0 0 0-.588.954c-.112.446.032.551.463.336zm-40.066.232a4.635 4.635 0 0 1 .146-.764c.18-.738.179-.8-.019-.741-.1.028-.109.023-.109-.053s.034-.094.212-.146a2.034 2.034 0 0 1 .342-.07c.122-.008.13 0 .141.115a4.7 4.7 0 0 1-.142.75 3.986 3.986 0 0 0-.132.684c.017.046.056.052.191.032.161-.024.168-.021.157.059s-.055.1-.215.148a1.608 1.608 0 0 1-.378.066c-.152 0-.177-.009-.195-.081zm1.42.015l-.084-.068.286-1.257c.157-.692.281-1.305.274-1.363-.012-.109-.026-.114-.169-.071-.071.022-.083.012-.083-.068 0-.108.13-.16.49-.2.206-.021.212-.019.212.068 0 .049-.058.353-.129.675s-.129.608-.129.634.041.03.16-.023c.411-.182.77-.172.9.024a1.322 1.322 0 0 1-.138 1.05 1.706 1.706 0 0 1-.57.594 1.793 1.793 0 0 1-1.019 0zm.935-.234a1.7 1.7 0 0 0 .45-.965c.058-.392-.2-.47-.615-.185a.531.531 0 0 0-.194.247 5.588 5.588 0 0 0-.2.876c0 .155.358.173.563.027zm1.411.189c-.1-.1-.108-.134-.106-.379a1.384 1.384 0 0 1 .848-1.335.616.616 0 0 1 .6.073c.083.071.1.116.1.267 0 .38-.347.669-.846.7a.7.7 0 0 0-.289.059.525.525 0 0 0 .014.367c.092.175.224.179.541.017.2-.1.238-.111.267-.065.065.1.035.136-.252.27a1.012 1.012 0 0 1-.529.135c-.221 0-.25-.01-.349-.113zm.662-.887c.314-.087.522-.423.361-.584-.1-.1-.2-.1-.326.011a1.5 1.5 0 0 0-.323.53c-.021.07-.011.083.06.083a1.108 1.108 0 0 0 .226-.04zm1.243.988c0-.006.066-.293.148-.637a6.161 6.161 0 0 0 .148-.787v-.162l-.148.024c-.131.021-.148.015-.148-.05 0-.081.119-.143.419-.218.205-.051.283-.016.283.128v.087l.131-.089c.231-.157.372-.185.539-.11.08.036.141.084.134.106-.1.354-.157.465-.239.465s-.086-.019-.086-.125c0-.269-.234-.271-.4 0a3.422 3.422 0 0 0-.3 1.046.686.686 0 0 1-.087.283 2.111 2.111 0 0 1-.391.042zm1.853-.036c-.041-.049-.018-.182.193-1.143l.087-.4h-.125c-.069 0-.125-.009-.125-.021 0-.058.083-.164.128-.164.09 0 .263-.175.336-.339.081-.184.113-.213.234-.214.079 0 .085.011.064.12-.013.066-.034.182-.046.259l-.022.139h.171c.175 0 .2.028.149.163-.016.042-.072.058-.2.058-.205 0-.172-.074-.336.735-.12.594-.112.649.088.592.167-.048.18-.044.167.049-.009.063-.056.1-.2.145-.224.078-.509.088-.561.022zm1.49-.048c-.27-.292-.075-1.121.356-1.508a1.107 1.107 0 0 1 .629-.28.7.7 0 0 1 .4.187.652.652 0 0 1-.035.5 1 1 0 0 1-.857.42h-.217v.2c0 .378.157.445.571.241a.918.918 0 0 1 .256-.1.252.252 0 0 1 .029.09c.01.059-.041.1-.26.212a.9.9 0 0 1-.528.139c-.227 0-.265-.01-.344-.1zm.65-.907a.612.612 0 0 0 .391-.32c.05-.119.048-.137-.017-.225-.1-.137-.2-.137-.354 0a1.358 1.358 0 0 0-.319.551c0 .052.142.05.3 0zm13.875.979c-.052-.052-.018-.27.159-1.024.241-1.025.371-1.629.371-1.727 0-.07-.015-.077-.129-.058s-.129.013-.129-.068.092-.133.459-.2c.19-.036.243-.012.243.11 0 .055-.125.64-.277 1.3s-.277 1.254-.277 1.323v.125l.169-.023c.159-.022.168-.018.157.059s-.058.1-.215.145a.948.948 0 0 1-.53.043zm1.393-.02c-.045-.073-.019-.233.138-.851a4.458 4.458 0 0 0 .135-.648c-.015-.066-.024-.068-.185-.03-.086.02-.1.012-.1-.053 0-.088.158-.166.445-.221.205-.039.294-.019.294.066 0 .032-.075.372-.167.755a4.676 4.676 0 0 0-.143.737c.015.024.088.031.188.017.153-.021.163-.017.152.059s-.058.1-.215.145c-.24.075-.5.086-.541.023zm1.365-.016a.731.731 0 0 1 .022-.268c.082-.372.263-1.224.263-1.242s-.051-.017-.114-.017c-.16 0-.13-.1.058-.2a.611.611 0 0 0 .27-.307c.106-.2.136-.231.226-.231h.1l-.05.231c-.027.127-.05.243-.051.259s.082.028.183.028c.193 0 .2 0 .161.138-.019.073-.046.083-.213.083h-.191l-.124.623a4.143 4.143 0 0 0-.1.681c.018.047.046.051.144.023.169-.049.178-.046.178.052 0 .075-.03.1-.215.148-.285.08-.518.079-.548-.002zm1.521-.022c-.092-.079-.108-.123-.121-.329a1.529 1.529 0 0 1 .5-1.231c.349-.266.73-.3.944-.088.1.1.108.127.092.294a.823.823 0 0 1-.866.656c-.3.015-.332.051-.273.312.064.283.181.312.55.137.245-.116.3-.116.3 0s-.443.308-.76.325c-.236.013-.272.005-.367-.077zm.794-.987c.23-.117.329-.379.2-.524-.165-.182-.471.057-.622.487l-.056.158.167-.023a1.182 1.182 0 0 0 .31-.099zm8.83 1.057c0-.005.066-.292.148-.635a6.162 6.162 0 0 0 .148-.787v-.162l-.148.024c-.131.021-.148.015-.148-.049 0-.09.065-.126.364-.2.26-.067.338-.041.338.113v.087l.131-.089c.23-.156.372-.185.537-.11a.4.4 0 0 1 .144.087c0 .012-.037.126-.083.253-.068.191-.1.231-.166.231s-.083-.02-.083-.125c0-.253-.217-.271-.379-.033a2.258 2.258 0 0 0-.287.9 3.355 3.355 0 0 1-.105.448 1.47 1.47 0 0 1-.41.056zm4.261-.044a2.973 2.973 0 0 1 .147-.958l.121-.554-.1-.012c-.124-.014-.145-.137-.03-.173a.681.681 0 0 0 .352-.358c.081-.184.113-.213.234-.214.079 0 .085.011.064.12-.013.066-.034.182-.046.259l-.022.139h.171c.175 0 .2.028.149.163-.016.042-.072.058-.2.058-.205 0-.172-.074-.336.735-.12.594-.112.649.088.592.167-.048.18-.044.167.049-.009.063-.056.1-.2.145-.246.082-.531.087-.56.01zm1.491-.038c-.28-.28-.086-1.117.349-1.509a1.107 1.107 0 0 1 .629-.28.7.7 0 0 1 .4.187.652.652 0 0 1-.035.5 1 1 0 0 1-.862.42h-.221l.016.227c.026.36.158.409.563.209a.918.918 0 0 1 .256-.1.252.252 0 0 1 .029.09c.01.059-.041.1-.26.212a.9.9 0 0 1-.521.139c-.218 0-.26-.012-.344-.1zm.774-.963c.258-.128.374-.426.213-.548-.107-.081-.185-.067-.327.057a1.334 1.334 0 0 0-.317.554c.001.061.256.023.431-.064zm1.121 1.027c0-.016.067-.315.15-.666a5.052 5.052 0 0 0 .139-.755c-.011-.11-.02-.117-.146-.11-.106.006-.139-.008-.153-.063s.017-.084.172-.141a2.445 2.445 0 0 1 .329-.1c.143-.026.141-.028.23.189a1.8 1.8 0 0 0 .219-.1c.255-.128.3-.132.452-.038l.117.071-.08.242c-.067.2-.094.242-.163.243s-.083-.019-.083-.121c0-.322-.306-.258-.474.1a4.672 4.672 0 0 0-.185.687c-.06.288-.115.529-.122.535a1.077 1.077 0 0 1-.4.026zm1.847 0c0-.017.059-.261.132-.544a4.283 4.283 0 0 0 .139-.773l.007-.259-.134.01c-.105.008-.138 0-.152-.059s.016-.08.171-.127c.336-.1.415-.11.48-.045a.243.243 0 0 1 .06.15c0 .049.007.09.015.09s.118-.049.244-.108a1.337 1.337 0 0 1 .81-.152c.077.041.082.062.06.232-.014.1-.073.388-.133.634s-.113.505-.118.577c-.01.129-.01.129.145.126.106 0 .162.014.177.052.029.076-.006.1-.237.169-.263.077-.5.078-.534 0a4.44 4.44 0 0 1 .125-.716c.163-.726.172-.808.095-.838s-.362.108-.531.26c-.139.125-.157.164-.242.531-.051.217-.1.476-.118.574s-.045.184-.068.191a.935.935 0 0 1-.393.028zm2.534-.029a4.657 4.657 0 0 1 .147-.761 5.359 5.359 0 0 0 .15-.75c-.015-.039-.048-.042-.141-.015-.067.019-.126.035-.131.035a.2.2 0 0 1-.009-.086c0-.071.033-.1.194-.144.438-.132.573-.11.529.088l-.169.712a4.2 4.2 0 0 0-.129.679c.016.041.06.048.189.031.158-.022.167-.018.156.059-.024.157-.73.294-.786.151zm1.394 0a2.875 2.875 0 0 1 .15-.882c.16-.709.157-.647.024-.647-.162 0-.135-.1.053-.2a.6.6 0 0 0 .262-.3c.095-.18.136-.224.22-.234.112-.013.113 0 .034.391l-.024.12h.193c.161 0 .19.01.171.058a.375.375 0 0 0-.022.111c0 .039-.052.052-.2.052h-.2l-.122.621a4.03 4.03 0 0 0-.1.681c.019.049.045.054.145.025.169-.049.178-.046.178.052 0 .075-.03.1-.215.148-.285.083-.516.083-.547.004zm1.519-.026c-.106-.091-.108-.1-.108-.458a1.022 1.022 0 0 1 .14-.648 1.116 1.116 0 0 1 .652-.621c.524-.2.9.137.669.592a.962.962 0 0 1-.837.444c-.214 0-.228.006-.251.1a.5.5 0 0 0 .082.392c.084.1.228.079.486-.054.192-.1.235-.11.263-.065.065.1.033.143-.214.263a1.168 1.168 0 0 1-.511.135c-.237.013-.272.006-.369-.079zm.8-.995c.25-.14.333-.416.16-.53a.193.193 0 0 0-.194-.026.915.915 0 0 0-.393.51l-.059.174.17-.023a1.073 1.073 0 0 0 .321-.104zM0 561.827a.112.112 0 0 1 .086-.078c.11-.02.206-.117.28-.285a13.894 13.894 0 0 0 .414-2.084c.007-.273.006-.276-.112-.351-.229-.146-.168-.168.47-.168.505 0 .591.008.591.056s-.046.066-.112.079c-.236.047-.325.28-.547 1.424-.208 1.069-.206 1.049-.112 1.142.071.071.11.077.4.063.387-.02.527-.085.663-.309.107-.176.111-.179.187-.131.042.027.041.061-.01.212a2.272 2.272 0 0 1-.144.328l-.084.148-.99.01c-.927.009-.989.006-.977-.055zm18.687.011c0-.029.062-.083.139-.12a.463.463 0 0 0 .22-.234 12.952 12.952 0 0 0 .432-2.123c0-.251 0-.259-.114-.332-.248-.158-.192-.168.934-.168 1.033 0 1.055 0 1.032.073-.013.04-.044.185-.069.323-.039.212-.058.252-.127.262s-.081-.006-.081-.086c0-.245-.146-.314-.663-.314h-.357l-.1.471c-.056.259-.111.5-.12.536-.016.058.015.065.308.064.368 0 .476-.04.584-.211.1-.153.221-.165.192-.019l-.086.443c-.052.269-.079.342-.128.342s-.07-.04-.084-.109a.251.251 0 0 0-.106-.154 1.918 1.918 0 0 0-.713-.026 6.614 6.614 0 0 0-.182.887c-.023.159-.017.179.07.235s.158.059.418.046c.386-.019.522-.081.681-.306.069-.1.134-.153.164-.142.072.028.063.094-.046.354-.162.387-.07.359-1.2.359-.831 0-.992-.008-.992-.052zm18.768 0c0-.029.054-.072.12-.094.233-.08.31-.29.544-1.486.2-1.03.2-1.195-.038-1.269-.042-.013-.069-.043-.061-.067a4.312 4.312 0 0 1 1.039-.053c1.007-.01 1.024-.009 1 .063-.013.04-.044.186-.069.324-.039.212-.058.252-.127.262s-.081-.006-.081-.1c0-.233-.18-.31-.681-.291l-.293.011-.1.48c-.056.264-.1.5-.1.526 0 .068.563.062.7-.008a.38.38 0 0 0 .15-.166c.029-.069.074-.113.116-.113.086 0 .087-.027-.01.471-.068.349-.092.416-.148.416a.064.064 0 0 1-.068-.068c0-.172-.345-.3-.665-.247l-.141.024-.075.413c-.132.728-.127.794.074.877.221.091.093.126-.5.137-.485.009-.579 0-.579-.043zm-21.672-.795a.606.606 0 0 1-.31-.5.569.569 0 0 1 .548-.555.517.517 0 0 1 .56.553.539.539 0 0 1-.8.5zm18.8.017a.7.7 0 0 1-.22-.188.427.427 0 0 1-.1-.33.515.515 0 0 1 .557-.542.424.424 0 0 1 .338.11.546.546 0 0 1 .091.791.554.554 0 0 1-.661.161zM12.5 559.749c-.073-.08-.078-.072.342-.55l.142-.161.21.047a.551.551 0 0 1 .21.072 9.631 9.631 0 0 1-.822.665.307.307 0 0 1-.083-.073zm18.8 0l-.082-.066.279-.318a2.3 2.3 0 0 1 .31-.318 1.132 1.132 0 0 1 .4.114c-.009.025-.7.578-.786.632-.026.007-.08-.008-.121-.044zm24.559 0l-.089-.067.289-.318a2.529 2.529 0 0 1 .318-.318 1.515 1.515 0 0 1 .4.108c0 .02-.7.583-.79.637-.024.014-.087-.005-.132-.042zm-52.725-.19c-.15-.15 0-.439.223-.439a.214.214 0 0 1 .239.241.271.271 0 0 1-.462.2zm24.932.026a.311.311 0 0 1 .009-.392.261.261 0 0 1 .443.152.3.3 0 0 1-.455.241zm24.534-.025c-.153-.153 0-.439.23-.439a.242.242 0 0 1 .164.427.276.276 0 0 1-.394.012zm-32.368-1.06c-.056-.063-.043-.086.224-.376l.284-.309.211.047a.591.591 0 0 1 .209.069 6.659 6.659 0 0 1-.81.62.142.142 0 0 1-.119-.051z" transform="translate(0 -537.21)"/>
    <path fill="#e2011c" d="M880.1 19.211l.086-.223a4.854 4.854 0 0 1 .516-1.047 3.794 3.794 0 0 1 .953-.984 1.892 1.892 0 0 1 .985-.133c.344.03 1.4.2 1.828.3a2.567 2.567 0 0 0 1.024.015 1.192 1.192 0 0 0 .808-1.539c-.127-.249-.105-.314.2-.609a1.913 1.913 0 0 0 .278-.3 1.116 1.116 0 0 0-.264-.5.315.315 0 0 1-.146-.07l-.086-.069.183-.094c.25-.128.436-.327.436-.467a.99.99 0 0 0-.117-.33.677.677 0 0 1-.087-.584c.046-.086.125-.122.515-.235.327-.095.446-.191.492-.4a.657.657 0 0 0-.087-.507c-.087-.174-.655-1.044-.82-1.257a4.125 4.125 0 0 1-.573-1.044.924.924 0 0 1-.022-.615 4.945 4.945 0 0 0-.3-2.463 8.906 8.906 0 0 0-.407-1.228c-.146-.29-.126-.358.173-.6a1.964 1.964 0 0 0 .3-.279.511.511 0 0 0-.182-.586c-.109-.058-.169-.018-.279.185-.084.154-.116.183-.206.183-.146 0-.171-.061-.078-.187.108-.147.1-.17-.07-.193-.127-.017-.195-.067-.471-.348a3.212 3.212 0 0 0-1.115-.779c-.227-.1-.307-.154-.223-.139s.323.032.559.044c.685.034.852-.056 1.012-.55.109-.335.16-.49-.088-.724L883.911 0h20.495v19.211z" transform="translate(-847.585)"/>
    <path fill="#003189" d="M15.038 19.211a2.83 2.83 0 0 1-.287-.031 5.719 5.719 0 0 1 .922-.593c.247-.15.348-.231.314-.249a2.949 2.949 0 0 0-.479-.052 1.131 1.131 0 0 0-.554.033 6.257 6.257 0 0 1-.615.186c-.667.175-.892.3-1.106.592l-.08.115H0V0h26.1l-.51.33a4.927 4.927 0 0 0-.719.427 4.264 4.264 0 0 0-1.065 1.482.494.494 0 0 1-.244.31 3.1 3.1 0 0 0-.733.8 16.909 16.909 0 0 0-1.015 1.792c-.18.448-.163.789.1 2.129.117.59.243 1.189.281 1.331a3.754 3.754 0 0 1 .092.536 1.428 1.428 0 0 0 .2.665.827.827 0 0 1 .079.231.156.156 0 0 0 .074.111.176.176 0 0 1 .074.139c0 .064.084.186.269.389a3.111 3.111 0 0 1 .729 1.037c0 .113-.166.142-.433.076a2.065 2.065 0 0 1-.962-.627c-.168-.163-.3-.273-.3-.244a1.52 1.52 0 0 0 .255.337c.279.311.323.4.263.509s-.181.128-.355.08c-.2-.055-.318.022-.285.188.02.1.015.114-.043.092a2.874 2.874 0 0 0-.589-.12c-.205-.022-.22-.031-.344-.2a.486.486 0 0 0-.266-.219 15.794 15.794 0 0 0-1.891-.329 6.82 6.82 0 0 0-1.851-.066 1.721 1.721 0 0 0-.72.185c-.384.2-1.049.807-1.049.964 0 .074.147.048.314-.056a9.561 9.561 0 0 1 3.1-.792c.423-.016.4 0-.108.1-.14.025-.473.11-.739.189s-.725.2-1.019.27-.627.16-.739.2l-.2.073h.314a7.618 7.618 0 0 1 4.166 1.16.906.906 0 0 0 .906.257 4.08 4.08 0 0 0 1.843-.68c.159-.132.289-.185.289-.116a4.339 4.339 0 0 1-.3.931c-.1.18-.107.205-.054.244.032.024.05.052.038.064s.014.032.056.045c.121.039.091.076-.1.125s-.338.133-.338.192c0 .019.026.035.058.035.095 0 .024.066-.1.094-.085.019-.1.034-.064.058s.038.033 0 .033-.046.038-.046.084-.035.1-.111.132c-.185.082-.133.126.12.1.127-.012.206-.012.175 0s-.238.106-.462.209-.514.225-.647.272c-.15.053-.245.108-.253.147-.013.062.057.06.231-.007.032-.012.058-.008.058.009a9.217 9.217 0 0 1-.855.494 8.892 8.892 0 0 0-.977.582.415.415 0 0 1-.192.12.153.153 0 0 0-.112.094c-.072.158-.057.177.114.147.254-.044.371-.041.387.008.009.027-.015.046-.057.046a.172.172 0 0 0-.117.053.25.25 0 0 1-.143.065.253.253 0 0 0-.173.129.343.343 0 0 1-.148.137c-.041.01.018.012.129 0a5.651 5.651 0 0 0 2.642-.525 6.366 6.366 0 0 0 1.591-1.157 1.545 1.545 0 0 1 .249-.226c.057 0 .026.207-.058.39a2.815 2.815 0 0 1-1.087 1.026 5.3 5.3 0 0 1-.765.443 9.644 9.644 0 0 1-1.367.284 6.89 6.89 0 0 0-3.083.884.7.7 0 0 1-.259.124.367.367 0 0 0-.186.1c-.2.171-.055.142.359-.072s.622-.253.288-.05a2.106 2.106 0 0 1-1.028.4h-1.644zm-2.174-2.143c.066-.028.286-.151.488-.274s.442-.257.534-.3l.573-.259a3.286 3.286 0 0 1 1.2-.347.458.458 0 0 0 .228.055c.156.011.183.021.119.044-.046.016-.083.044-.083.062 0 .067.346.047.491-.029a1.037 1.037 0 0 1 .286-.075c.125-.015.183-.039.183-.075s.032-.048.145-.029a5.081 5.081 0 0 0 1.389-.263 8.408 8.408 0 0 0 1.476-.492l.293-.134-.293-.188a10.212 10.212 0 0 0-3.009-1.179 3.638 3.638 0 0 1-.536-.176c-.025-.024-.012-.028.037-.01.157.056.277.067.277.025s-.119-.1-.353-.131c-.214-.029-.352-.093-.2-.094.23 0-.165-.147-.608-.224-.328-.057-.346-.069-.21-.135.119-.058.247-.276.214-.364s-.064-.067-.242.052a2.475 2.475 0 0 0-.831 1c-.1.223-.066.244.451.266.423.018.43.02.321.078a1.021 1.021 0 0 1-.272.084c-.3.046-.467.189-.318.272.044.025.027.046-.082.1s-.13.07-.072.1a.552.552 0 0 0 .236.024.289.289 0 0 1 .251.059l.082.073-.164.1a.756.756 0 0 0-.227.223 2.3 2.3 0 0 1-.275.345.99.99 0 0 0-.212.286 1.71 1.71 0 0 1-.379.363c-.56.448-.8.695-.8.813a.185.185 0 0 1-.087.156c-.175.115-.266.247-.17.247a.693.693 0 0 0 .159-.05zm4.322-.432a1.241 1.241 0 0 0 .356-.1l.1-.062-.178-.089-.178-.089-.178.072-.3.119c-.273.1-.308.242-.052.2l.427-.06zm-6.256-1.681a13.117 13.117 0 0 1 2.142-1.884c.251-.174.427-.274.436-.248.024.072.131.051.306-.06.2-.128.3-.257.552-.709a2.167 2.167 0 0 1 .734-.876c.176-.135.434-.337.575-.449.2-.161.251-.186.234-.123s0 .08.023.08a1.461 1.461 0 0 0 .493-.211c.022-.065-.38-.133-.677-.114a1.139 1.139 0 0 0-.592.194 8.342 8.342 0 0 0-2.064 1.665 7.5 7.5 0 0 1-1.444 1.228c-.086.041-.15.127-.254.337a11.863 11.863 0 0 1-.9 1.476c-.323.452-.393.608-.141.318.086-.1.348-.381.582-.625zM19.169 19a8.115 8.115 0 0 1 1.792-.251 2.569 2.569 0 0 0 1.347-.275c.15-.071.209-.083.23-.05.036.058.291-.081.787-.429.2-.143.491-.325.639-.4.223-.121.291-.141.4-.121s.148.008.295-.121a1.7 1.7 0 0 1 1.1-.523c.1 0 .139.015.139.059s.02.052.055.038c.1-.04.056.006-.209.2-.307.227-.277.3.035.08s.3-.209.3-.125c0 .048-.114.169-.323.344a11.966 11.966 0 0 0-1.329 1.3l-.46.494h-5.851l1.053-.22zm.009-7.526a.3.3 0 0 1 .129 0c.036.009.006.017-.065.017s-.1-.008-.064-.017z"/>
    <path fill="#7f7f7f" d="M959.021 208.64c-.161-.024-.078-.084.117-.084s.3-.075.3-.218c0-.067-.015-.078-.077-.058a.1.1 0 0 1-.128-.048.338.338 0 0 0-.231-.1c-.211-.028-.552-.232-.491-.293a.61.61 0 0 1 .241-.055c.193-.016.205-.023.244-.142a.188.188 0 0 1 .14-.148.518.518 0 0 0 .191-.108 4.005 4.005 0 0 1 .369-.266c.256-.167.415-.345.358-.4a2.425 2.425 0 0 0-.875-.1 5.082 5.082 0 0 0-1.044.22c-.224.086-.159.011.149-.172a4.1 4.1 0 0 1 1.659-.477 2.954 2.954 0 0 1 .815.193c.134.111-.012.5-.261.7l-.1.081.085.091.085.091-.087.071a.31.31 0 0 1-.146.071.412.412 0 0 0-.178.116c-.1.1-.114.129-.085.206a.2.2 0 0 1-.006.166.551.551 0 0 0-.016.273c.031.246-.014.334-.193.384a3.289 3.289 0 0 1-.835.006z" transform="translate(-922.609 -198.572)"/>
</svg>
