<svg xmlns="http://www.w3.org/2000/svg" width="18.3" height="24.3" viewBox="0 0 18.3 24.3">
    <defs>
        <style>
            .cls-1{fill:#283c8c;stroke:#283c8c;stroke-width:.3px}
        </style>
    </defs>
    <g id="money-tag" transform="translate(-2.85 .15)">
        <path id="Path_5912" d="M15.5 7h-7a1.5 1.5 0 0 1 0-3h7a1.5 1.5 0 0 1 0 3zm-7-2a.5.5 0 0 0 0 1h7a.5.5 0 0 0 0-1z" class="cls-1"/>
        <path id="Path_5913" d="M14.5 5a.5.5 0 0 1-.313-.891l2.774-2.219a.487.487 0 0 0 .16-.557.487.487 0 0 0-.472-.333h-9.3a.487.487 0 0 0-.472.334.486.486 0 0 0 .16.557L9.813 4.11a.5.5 0 0 1-.625.781L6.414 2.672A1.484 1.484 0 0 1 5.935 1a1.484 1.484 0 0 1 1.416-1h9.3a1.484 1.484 0 0 1 1.416 1 1.484 1.484 0 0 1-.479 1.669l-2.775 2.222A.505.505 0 0 1 14.5 5z" class="cls-1"/>
        <path id="Path_5914" d="M12.5 18.5H10a.5.5 0 0 1 0-1h2.5a1 1 0 0 0 0-2h-1a2 2 0 0 1 0-4H14a.5.5 0 0 1 0 1h-2.5a1 1 0 0 0 0 2h1a2 2 0 0 1 0 4z" class="cls-1"/>
        <path id="Path_5915" d="M12 20a.5.5 0 0 1-.5-.5V18a.5.5 0 0 1 1 0v1.5a.5.5 0 0 1-.5.5z" class="cls-1"/>
        <path id="Path_5916" d="M12 12.5a.5.5 0 0 1-.5-.5v-1.5a.5.5 0 0 1 1 0V12a.5.5 0 0 1-.5.5z" class="cls-1"/>
        <path id="Path_5917" d="M15.5 24h-7C4.7 24 3 20.735 3 17.5c0-4.643 2.451-9.45 5.827-11.432A.5.5 0 0 1 9.08 6h5.84a.5.5 0 0 1 .253.068C18.549 8.05 21 12.857 21 17.5c0 3.235-1.7 6.5-5.5 6.5zM9.218 7C6.188 8.854 4 13.243 4 17.5 4 20.037 5.179 23 8.5 23h7c3.321 0 4.5-2.963 4.5-5.5 0-4.257-2.188-8.646-5.218-10.5z" class="cls-1"/>
    </g>
</svg>
