<svg xmlns="http://www.w3.org/2000/svg" width="40.166" height="33.472" viewBox="0 0 40.166 33.472">
    <g>
        <path fill="#00aaec" fill-rule="evenodd" d="M340.166 167.962a16.088 16.088 0 0 1-4.732 1.33 8.432 8.432 0 0 0 3.624-4.673 16.249 16.249 0 0 1-5.237 2.048 8.125 8.125 0 0 0-6.014-2.667 8.347 8.347 0 0 0-8.237 8.45 8.616 8.616 0 0 0 .213 1.924 23.2 23.2 0 0 1-16.987-8.832 8.6 8.6 0 0 0-1.115 4.253 8.506 8.506 0 0 0 3.666 7.033 8.091 8.091 0 0 1-3.735-1.054v.1a8.4 8.4 0 0 0 6.613 8.285 7.857 7.857 0 0 1-2.172.3 8.034 8.034 0 0 1-1.551-.15 8.272 8.272 0 0 0 7.7 5.865 16.271 16.271 0 0 1-10.234 3.619 16.566 16.566 0 0 1-1.966-.116 22.946 22.946 0 0 0 12.632 3.793c15.158 0 23.446-12.874 23.446-24.041 0-.367-.008-.735-.022-1.095a16.909 16.909 0 0 0 4.109-4.374" transform="translate(-300 -164)"/>
    </g>
</svg>
