<?xml version="1.0" encoding="UTF-8" standalone="no"?>
<!DOCTYPE svg PUBLIC "-//W3C//DTD SVG 1.1//EN" "http://www.w3.org/Graphics/SVG/1.1/DTD/svg11.dtd">
<svg width="100%" height="100%" viewBox="0 0 979 619" version="1.1" xmlns="http://www.w3.org/2000/svg" xmlns:xlink="http://www.w3.org/1999/xlink" xml:space="preserve" xmlns:serif="http://www.serif.com/" style="fill-rule:evenodd;clip-rule:evenodd;stroke-linejoin:round;stroke-miterlimit:2;">
    <g transform="matrix(1,0,0,1,0,-1031)">
        <g id="logo_white" transform="matrix(1,0,0,1,1750,693.656)">
            <rect x="-1750" y="338" width="979" height="618" style="fill:none;"/>
            <g transform="matrix(2.51881,0,0,2.51881,-4883.82,1012.81)">
                <g transform="matrix(1,0,0,1,1252.17,-260.785)">
                    <rect x="0" y="0" width="94.432" height="231.108" style="fill:rgb(207,2,45);"/>
                </g>
                <g transform="matrix(1,0,0,1,1325.39,-71.789)">
                    <path d="M0,-1.282C0,15.892 -13.427,29.881 -30.759,29.881C-48.099,29.881 -61.366,16.057 -61.366,-1.118C-61.366,-11.824 -56.408,-21.253 -47.46,-27.173C-44.583,-29.081 -41.231,-30.606 -37.79,-31.163L-37.79,-15.346C-43.861,-13.026 -48.099,-7.677 -48.099,-1.042C-48.099,8.544 -39.954,14.78 -30.849,14.78C-21.735,14.78 -13.269,8.544 -13.269,-1.118C-13.269,-7.759 -17.423,-12.702 -23.245,-15.346L-23.245,-31.163C-9.271,-27.728 0,-15.587 0,-1.282" style="fill:white;fill-rule:nonzero;"/>
                </g>
                <g transform="matrix(1,0,0,1,1324.26,-143.776)">
                    <path d="M0,32.599L-59.112,32.599L-59.112,17.497L-13.261,17.497L-13.261,0L0,0L0,32.599Z" style="fill:white;fill-rule:nonzero;"/>
                </g>
                <g transform="matrix(1,0,0,1,1325.39,-176.372)">
                    <path d="M0,-1.278C0,15.901 -13.427,29.879 -30.759,29.879C-48.099,29.879 -61.366,16.059 -61.366,-1.116C-61.366,-11.825 -56.408,-21.251 -47.46,-27.164C-44.583,-29.079 -41.231,-30.596 -37.79,-31.157L-37.79,-15.338C-43.861,-13.024 -48.099,-7.671 -48.099,-1.04C-48.099,8.551 -39.954,14.778 -30.849,14.778C-21.735,14.778 -13.269,8.551 -13.269,-1.116C-13.269,-7.75 -17.423,-12.705 -23.245,-15.338L-23.245,-31.157C-9.271,-27.723 0,-15.578 0,-1.278" style="fill:white;fill-rule:nonzero;"/>
                </g>
                <g transform="matrix(1,0,0,1,1278.4,-233.179)">
                    <path d="M0,3.364L10.074,3.364L10.074,-13.816L23.335,-13.816L23.335,3.364L45.859,3.364L45.859,17.822L-13.253,17.822L-13.253,-14.458L0,-14.458L0,3.364Z" style="fill:white;fill-rule:nonzero;"/>
                </g>
                <g transform="matrix(1,0,0,1,1385.67,-222.668)">
                    <path d="M0,-13.996C-2.118,-16.469 -4.673,-18.017 -8.039,-18.017C-14.072,-18.017 -18.677,-13.027 -18.677,-7.073C-18.677,-1.276 -14.072,4.025 -8.114,4.025C-5.102,4.025 -2.239,2.514 -0.309,0.233L4.839,0.233C2.134,4.989 -2.667,7.852 -8.159,7.852C-16.318,7.852 -22.847,0.97 -22.847,-7.114C-22.847,-15.311 -16.272,-21.848 -8.114,-21.848C-5.063,-21.848 -1.849,-20.841 0.623,-19.06C2.63,-17.629 3.832,-16.122 5.034,-13.996L0,-13.996Z" style="fill:white;fill-rule:nonzero;"/>
                </g>
                <g transform="matrix(1,0,0,1,1404.05,-218.487)">
                    <path d="M0,-15.201C-4.186,-15.201 -7.551,-11.799 -7.551,-7.621C-7.551,-3.44 -4.186,-0 0,-0C4.207,-0 7.535,-3.481 7.535,-7.659C7.535,-11.833 4.17,-15.201 0,-15.201M0,3.671C-6.311,3.671 -11.57,-1.396 -11.57,-7.733C-11.57,-14.041 -6.19,-18.872 0,-18.872C6.258,-18.872 11.555,-14 11.555,-7.659C11.555,-1.548 6.491,3.671 0,3.671" style="fill:white;fill-rule:nonzero;"/>
                </g>
                <g transform="matrix(1,0,0,1,1434.67,-237.359)">
                    <path d="M0,22.002L0,10.361C0,6.729 -1.074,3.671 -5.334,3.671C-9.278,3.671 -10.977,6.729 -10.977,10.323L-10.977,22.002L-15.004,22.002L-15.004,0.579L-11.247,0.579L-11.247,2.862L-11.172,2.862C-9.624,0.812 -7.385,0 -4.905,0C-1.855,0 1.007,1.199 2.675,3.827C3.719,5.454 4.02,7.423 4.02,9.316L4.02,22.002L0,22.002Z" style="fill:white;fill-rule:nonzero;"/>
                </g>
                <g transform="matrix(1,0,0,1,1449.59,-237.359)">
                    <path d="M0,22.543C-0.925,22.543 -1.856,22.348 -2.75,22.039C-5.921,20.92 -7.581,18.328 -7.581,14.963L-3.562,14.963C-3.403,17.168 -2.322,18.872 0.075,18.872C1.855,18.872 3.17,17.788 3.17,15.932C3.17,11.446 -6.611,13.764 -6.611,6.184C-6.611,2.514 -3.403,0 0.12,0C3.786,0 6.611,2.555 6.687,6.266L2.667,6.266C2.479,4.719 1.548,3.671 -0.075,3.671C-1.428,3.671 -2.592,4.522 -2.592,5.954C-2.592,7.852 -0.736,8.272 0.736,8.741C4.252,9.82 7.189,11.559 7.189,15.699C7.189,19.913 4.102,22.543 0,22.543" style="fill:white;fill-rule:nonzero;"/>
                </g>
                <g transform="matrix(1,0,0,1,1470.09,-218.487)">
                    <path d="M0,-15.201C-3.485,-15.201 -6.686,-12.456 -6.927,-8.936L6.919,-8.936C6.687,-12.456 3.479,-15.201 0,-15.201M10.826,-5.841L-6.927,-5.841C-6.115,-2.516 -3.403,-0 0.113,-0C2.63,-0 5.064,-1.358 6.221,-3.598L10.248,-3.598C8.625,0.772 4.644,3.671 -0.045,3.671C-6.146,3.671 -10.938,-1.625 -10.938,-7.621C-10.938,-13.808 -6.229,-18.872 0.038,-18.872C6.108,-18.872 10.938,-13.887 10.938,-7.854C10.938,-7.197 10.901,-6.501 10.826,-5.841" style="fill:white;fill-rule:nonzero;"/>
                </g>
                <g transform="matrix(1,0,0,1,1491.44,-220.266)">
                    <path d="M0,-12.184C-1.901,-11.218 -2.367,-8.742 -2.367,-6.808L-2.367,4.909L-6.387,4.909L-6.387,-16.514L-2.638,-16.514L-2.638,-14.58L-2.563,-14.58C-1.247,-16.435 0.721,-17.014 2.892,-17.093L2.892,-12.956C1.998,-12.956 0.766,-12.608 0,-12.184" style="fill:white;fill-rule:nonzero;"/>
                </g>
                <g transform="matrix(1,0,0,1,1508.21,-236.78)">
                    <path d="M0,21.423L-2.817,21.423L-11.33,0L-7.032,0L-1.421,15.312L-1.354,15.312L4.14,0L8.43,0L0,21.423Z" style="fill:white;fill-rule:nonzero;"/>
                </g>
                <g transform="matrix(1,0,0,1,1529.21,-218.487)">
                    <path d="M0,-15.201C-4.253,-15.201 -7.341,-11.72 -7.341,-7.542C-7.341,-3.522 -4.141,-0 -0.038,-0C4.139,-0 7.423,-3.406 7.423,-7.542C7.423,-11.833 4.372,-15.201 0,-15.201M7.347,3.13L7.347,-0.194L7.272,-0.194C5.77,2.398 2.945,3.671 0,3.671C-6.417,3.671 -11.375,-1.048 -11.375,-7.505C-11.375,-14 -6.499,-18.872 0,-18.872C2.862,-18.872 5.687,-17.715 7.272,-15.273L7.347,-15.273L7.347,-18.293L11.367,-18.293L11.367,3.13L7.347,3.13Z" style="fill:white;fill-rule:nonzero;"/>
                </g>
                <g transform="matrix(1,0,0,1,1550.43,-226.221)">
                    <path d="M0,-6.885L0,10.864L-4.02,10.864L-4.02,-6.885L-6.912,-6.885L-6.912,-10.559L-4.02,-10.559L-4.02,-17.749L0,-17.749L0,-10.559L3.523,-10.559L3.523,-6.885L0,-6.885Z" style="fill:white;fill-rule:nonzero;"/>
                </g>
                <g transform="matrix(1,0,0,1,1567.11,-218.487)">
                    <path d="M0,-15.201C-4.178,-15.201 -7.544,-11.799 -7.544,-7.621C-7.544,-3.44 -4.178,-0 0,-0C4.215,-0 7.543,-3.481 7.543,-7.659C7.543,-11.833 4.177,-15.201 0,-15.201M0,3.671C-6.312,3.671 -11.563,-1.396 -11.563,-7.733C-11.563,-14.041 -6.19,-18.872 0,-18.872C6.267,-18.872 11.563,-14 11.563,-7.659C11.563,-1.548 6.499,3.671 0,3.671" style="fill:white;fill-rule:nonzero;"/>
                </g>
                <g transform="matrix(1,0,0,1,1252.17,-429.651)">
                    <path d="M330.58,192.871L334.614,192.871L334.614,214.294L330.58,214.294L330.58,192.871ZM330.58,185.68L334.614,185.68L334.614,190.399L330.58,190.399L330.58,185.68Z" style="fill:white;fill-rule:nonzero;"/>
                </g>
                <g transform="matrix(1,0,0,1,1598.34,-220.266)">
                    <path d="M0,-12.184C-1.893,-11.218 -2.359,-8.742 -2.359,-6.808L-2.359,4.909L-6.37,4.909L-6.37,-16.514L-2.621,-16.514L-2.621,-14.58L-2.554,-14.58C-1.231,-16.435 0.738,-17.014 2.909,-17.093L2.909,-12.956C2.014,-12.956 0.781,-12.608 0,-12.184" style="fill:white;fill-rule:nonzero;"/>
                </g>
                <g transform="matrix(1,0,0,1,1613.9,-218.487)">
                    <path d="M0,-15.201C-3.486,-15.201 -6.693,-12.456 -6.92,-8.936L6.919,-8.936C6.679,-12.456 3.479,-15.201 0,-15.201M10.818,-5.841L-6.92,-5.841C-6.108,-2.516 -3.404,-0 0.104,-0C2.622,-0 5.063,-1.358 6.229,-3.598L10.239,-3.598C8.625,0.772 4.628,3.671 -0.038,3.671C-6.153,3.671 -10.947,-1.625 -10.947,-7.621C-10.947,-13.808 -6.229,-18.872 0.037,-18.872C6.108,-18.872 10.938,-13.887 10.938,-7.854C10.938,-7.197 10.894,-6.501 10.818,-5.841" style="fill:white;fill-rule:nonzero;"/>
                </g>
                <g transform="matrix(1,0,0,1,1364.41,-190.58)">
                    <path d="M0,28.614L0,0L4.178,0L4.178,24.786L14.109,24.786L14.109,28.614L0,28.614Z" style="fill:white;fill-rule:nonzero;"/>
                </g>
                <g transform="matrix(1,0,0,1,1252.17,-322.869)">
                    <path d="M128.931,139.479L132.957,139.479L132.957,160.903L128.931,160.903L128.931,139.479ZM128.931,132.289L132.957,132.289L132.957,137.008L128.931,137.008L128.931,132.289Z" style="fill:white;fill-rule:nonzero;"/>
                </g>
                <g transform="matrix(1,0,0,1,1401.72,-171.711)">
                    <path d="M0,-8.583C-4.132,-8.583 -7.303,-5.101 -7.303,-1.044C-7.303,3.134 -4.252,6.616 0,6.616C4.103,6.616 7.31,3.056 7.31,-0.965C7.31,-5.025 4.177,-8.583 0,-8.583M0.315,10.286C-2.592,10.286 -5.409,8.975 -7.152,6.649L-7.228,6.649L-7.228,9.745L-11.217,9.745L-11.217,-18.869L-7.189,-18.869L-7.189,-8.696L-7.115,-8.696C-5.38,-11.096 -2.668,-12.253 0.24,-12.253C6.416,-12.253 11.329,-7.073 11.329,-0.965C11.329,5.222 6.581,10.286 0.315,10.286" style="fill:white;fill-rule:nonzero;"/>
                </g>
                <g transform="matrix(1,0,0,1,1423.49,-166.874)">
                    <path d="M0,-12.18C-1.894,-11.215 -2.359,-8.739 -2.359,-6.804L-2.359,4.909L-6.386,4.909L-6.386,-16.515L-2.629,-16.515L-2.629,-14.58L-2.554,-14.58C-1.239,-16.436 0.736,-17.014 2.9,-17.089L2.9,-12.957C2.014,-12.957 0.774,-12.608 0,-12.18" style="fill:white;fill-rule:nonzero;"/>
                </g>
                <g transform="matrix(1,0,0,1,1439.04,-165.095)">
                    <path d="M0,-15.199C-3.479,-15.199 -6.694,-12.454 -6.92,-8.933L6.919,-8.933C6.686,-12.454 3.479,-15.199 0,-15.199M10.825,-5.838L-6.92,-5.838C-6.108,-2.517 -3.403,0 0.112,0C2.622,0 5.056,-1.356 6.228,-3.595L10.247,-3.595C8.625,0.77 4.635,3.67 -0.038,3.67C-6.153,3.67 -10.946,-1.627 -10.946,-7.622C-10.946,-13.809 -6.229,-18.869 0.037,-18.869C6.107,-18.869 10.946,-13.885 10.946,-7.855C10.946,-7.19 10.901,-6.499 10.825,-5.838" style="fill:white;fill-rule:nonzero;"/>
                </g>
                <g transform="matrix(1,0,0,1,1374.19,-117.519)">
                    <path d="M0,-8.579C-4.252,-8.579 -7.348,-5.1 -7.348,-0.931C-7.348,3.097 -4.14,6.612 -0.037,6.612C4.133,6.612 7.424,3.216 7.424,-0.931C7.424,-5.214 4.373,-8.579 0,-8.579M7.424,9.745L7.424,6.694L7.349,6.694C5.567,9.167 2.742,10.293 -0.232,10.293C-6.655,10.293 -11.366,5.501 -11.366,-0.886C-11.366,-7.309 -6.731,-12.261 -0.232,-12.261C2.472,-12.261 5.335,-11.208 7.032,-9.044L7.115,-9.044L7.115,-18.872L11.135,-18.872L11.135,9.745L7.424,9.745Z" style="fill:white;fill-rule:nonzero;"/>
                </g>
                <g transform="matrix(1,0,0,1,1405.78,-128.646)">
                    <path d="M0,20.872L0,18.552L-0.074,18.552C-1.307,20.639 -4.094,21.42 -6.371,21.42C-8.617,21.42 -10.789,20.759 -12.486,19.286C-14.846,17.243 -15.312,13.991 -15.312,11.053L-15.312,-0.548L-11.284,-0.548L-11.284,11.053C-11.284,14.839 -10.157,17.739 -5.95,17.739C-1.848,17.739 -0.345,14.643 -0.345,10.933L-0.345,-0.548L3.682,-0.548L3.682,20.872L0,20.872Z" style="fill:white;fill-rule:nonzero;"/>
                </g>
                <g transform="matrix(1,0,0,1,1447.78,-115.079)">
                    <path d="M0,-14.002C-2.126,-16.474 -4.681,-18.022 -8.039,-18.022C-14.079,-18.022 -18.678,-13.033 -18.678,-7.075C-18.678,-1.275 -14.079,4.021 -8.122,4.021C-5.102,4.021 -2.239,2.511 -0.308,0.227L4.839,0.227C2.126,4.984 -2.667,7.852 -8.159,7.852C-16.318,7.852 -22.854,0.971 -22.854,-7.121C-22.854,-15.316 -16.273,-21.854 -8.122,-21.854C-5.064,-21.854 -1.855,-20.847 0.616,-19.074C2.63,-17.631 3.832,-16.129 5.026,-14.002L0,-14.002Z" style="fill:white;fill-rule:nonzero;"/>
                </g>
                <g transform="matrix(1,0,0,1,1252.17,-214.489)">
                    <path d="M204.106,85.295L208.133,85.295L208.133,106.715L204.106,106.715L204.106,85.295ZM204.106,78.097L208.133,78.097L208.133,82.816L204.106,82.816L204.106,78.097Z" style="fill:white;fill-rule:nonzero;"/>
                </g>
                <g transform="matrix(1,0,0,1,1480.45,-129.78)">
                    <path d="M0,22.006L0,10.369C0,6.733 -1.082,3.682 -5.334,3.682C-9.278,3.682 -10.976,6.733 -10.976,10.33L-10.976,22.006L-15.003,22.006L-15.003,0.586L-11.254,0.586L-11.254,2.863L-11.172,2.863C-9.624,0.813 -7.385,0 -4.905,0C-1.855,0 1.007,1.202 2.668,3.832C3.712,5.455 4.02,7.431 4.02,9.33L4.02,22.006L0,22.006Z" style="fill:white;fill-rule:nonzero;"/>
                </g>
                <g transform="matrix(1,0,0,1,1496.69,-115.069)">
                    <path d="M0,-16.334L-1.623,-19.234L7.002,-24.177L8.7,-21.044L0,-16.334ZM2.78,-11.029C-0.699,-11.029 -3.914,-8.279 -4.14,-4.764L9.707,-4.764C9.467,-8.279 6.266,-11.029 2.78,-11.029M13.605,-1.684L-4.14,-1.684C-3.328,1.652 -0.616,4.162 2.9,4.162C5.409,4.162 7.852,2.81 9.008,0.57L13.027,0.57C11.405,4.943 7.423,7.843 2.742,7.843C-3.366,7.843 -8.159,2.539 -8.159,-3.457C-8.159,-9.647 -3.441,-14.711 2.824,-14.711C8.889,-14.711 13.726,-9.723 13.726,-3.682C13.726,-3.035 13.688,-2.33 13.605,-1.684" style="fill:white;fill-rule:nonzero;"/>
                </g>
                <g transform="matrix(1,0,0,1,1542.82,-129.78)">
                    <path d="M0,22.006L0,10.098C0,6.733 -1.119,3.682 -5.071,3.682C-9.241,3.682 -10.173,6.536 -10.173,10.052L-10.173,22.006L-14.191,22.006L-14.191,10.098C-14.191,8.475 -14.191,7.123 -15.078,5.695C-16.011,4.26 -17.407,3.682 -19.068,3.682C-23.2,3.682 -24.357,6.461 -24.357,10.052L-24.357,22.006L-28.385,22.006L-28.385,0.586L-24.665,0.586L-24.665,2.901L-24.598,2.901C-22.817,0.813 -21.27,0 -18.452,0C-15.936,0 -12.915,1.202 -11.796,3.6C-10.135,0.969 -7.844,0 -4.719,0C0.97,0 4.019,3.561 4.019,9.091L4.019,22.006L0,22.006Z" style="fill:white;fill-rule:nonzero;"/>
                </g>
                <g transform="matrix(1,0,0,1,1562.24,-110.908)">
                    <path d="M0,-15.19C-4.254,-15.19 -7.35,-11.711 -7.35,-7.542C-7.35,-3.514 -4.141,0.001 -0.046,0.001C4.13,0.001 7.422,-3.395 7.422,-7.542C7.422,-11.825 4.363,-15.19 0,-15.19M7.34,3.134L7.34,-0.194L7.264,-0.194C5.754,2.406 2.936,3.682 0,3.682C-6.425,3.682 -11.377,-1.044 -11.377,-7.497C-11.377,-13.989 -6.501,-18.872 0,-18.872C2.854,-18.872 5.687,-17.708 7.264,-15.272L7.34,-15.272L7.34,-18.286L11.366,-18.286L11.366,3.134L7.34,3.134Z" style="fill:white;fill-rule:nonzero;"/>
                </g>
                <g transform="matrix(1,0,0,1,1368.05,-71.4185)">
                    <path d="M0,3.869L0,16.235L-4.178,16.235L-4.178,-12.366L10.277,-12.366L10.277,-8.55L0,-8.55L0,0.037L10.277,0.037L10.277,3.869L0,3.869Z" style="fill:white;fill-rule:nonzero;"/>
                </g>
                <g transform="matrix(1,0,0,1,1388.96,-60.0973)">
                    <path d="M0,-12.17C-1.894,-11.209 -2.359,-8.73 -2.359,-6.799L-2.359,4.914L-6.379,4.914L-6.379,-16.498L-2.63,-16.498L-2.63,-14.574L-2.555,-14.574C-1.24,-16.43 0.736,-17.009 2.899,-17.084L2.899,-12.944C2.014,-12.944 0.773,-12.599 0,-12.17" style="fill:white;fill-rule:nonzero;"/>
                </g>
                <g transform="matrix(1,0,0,1,1404.89,-58.3157)">
                    <path d="M0,-15.185C-4.253,-15.185 -7.349,-11.713 -7.349,-7.536C-7.349,-3.509 -4.133,0 -0.038,0C4.139,0 7.423,-3.396 7.423,-7.536C7.423,-11.826 4.372,-15.185 0,-15.185M7.348,3.132L7.348,-0.188L7.272,-0.188C5.762,2.397 2.944,3.681 0,3.681C-6.417,3.681 -11.359,-1.037 -11.359,-7.498C-11.359,-13.991 -6.491,-18.866 0,-18.866C2.862,-18.866 5.687,-17.701 7.272,-15.267L7.348,-15.267L7.348,-18.28L11.367,-18.28L11.367,3.132L7.348,3.132Z" style="fill:white;fill-rule:nonzero;"/>
                </g>
                <g transform="matrix(1,0,0,1,1436.41,-77.1813)">
                    <path d="M0,21.998L0,10.368C0,6.731 -1.09,3.681 -5.342,3.681C-9.278,3.681 -10.983,6.731 -10.983,10.322L-10.983,21.998L-15.004,21.998L-15.004,0.586L-11.247,0.586L-11.247,2.862L-11.172,2.862C-9.624,0.811 -7.385,0 -4.906,0C-1.855,0 1,1.201 2.667,3.824C3.712,5.455 4.02,7.431 4.02,9.315L4.02,21.998L0,21.998Z" style="fill:white;fill-rule:nonzero;"/>
                </g>
                <g transform="matrix(1,0,0,1,1455.66,-68.1656)">
                    <path d="M0,13.494L-0.661,15.62C-0.309,15.581 -0.075,15.581 0.12,15.581C1.938,15.581 3.291,17.016 3.291,18.827C3.291,20.99 1.623,22.51 -0.496,22.51C-2.397,22.51 -3.907,21.224 -4.102,19.331L-2.044,19.331C-1.818,20.105 -1.277,20.526 -0.466,20.526C0.466,20.526 1.157,19.909 1.157,18.947C1.157,18.016 0.421,17.431 -0.466,17.431C-0.962,17.431 -1.428,17.634 -1.78,17.977L-3.096,16.739L-1.969,13.373C-7.498,12.599 -11.209,7.738 -11.209,2.238C-11.209,-4.027 -6.536,-9.016 -0.195,-9.016C4.447,-9.016 9.166,-5.883 10.323,-1.315L5.876,-1.315C4.681,-3.832 2.75,-5.335 -0.15,-5.335C-4.568,-5.335 -7.189,-1.976 -7.189,2.238C-7.189,6.304 -4.522,9.849 -0.232,9.849C2.51,9.849 4.718,8.392 5.846,5.914L10.323,5.914C8.775,10.473 4.794,13.418 0,13.494" style="fill:white;fill-rule:nonzero;"/>
                </g>
                <g transform="matrix(1,0,0,1,1480.07,-58.3157)">
                    <path d="M0,-15.185C-4.252,-15.185 -7.348,-11.713 -7.348,-7.536C-7.348,-3.509 -4.14,0 -0.045,0C4.133,0 7.423,-3.396 7.423,-7.536C7.423,-11.826 4.364,-15.185 0,-15.185M7.348,3.132L7.348,-0.188L7.266,-0.188C5.755,2.397 2.938,3.681 0,3.681C-6.424,3.681 -11.374,-1.037 -11.374,-7.498C-11.374,-13.991 -6.499,-18.866 0,-18.866C2.854,-18.866 5.68,-17.701 7.266,-15.267L7.348,-15.267L7.348,-18.28L11.375,-18.28L11.375,3.132L7.348,3.132Z" style="fill:white;fill-rule:nonzero;"/>
                </g>
                <g transform="matrix(1,0,0,1,1252.17,-109.292)">
                    <path d="M244.436,32.696L248.463,32.696L248.463,54.108L244.436,54.108L244.436,32.696ZM244.436,25.507L248.463,25.507L248.463,30.217L244.436,30.217L244.436,25.507Z" style="fill:white;fill-rule:nonzero;"/>
                </g>
                <g transform="matrix(1,0,0,1,1511.58,-77.1814)">
                    <path d="M0,22.547C-0.939,22.547 -1.863,22.352 -2.75,22.044C-5.92,20.916 -7.58,18.332 -7.58,14.966L-3.561,14.966C-3.403,17.168 -2.329,18.865 0.067,18.865C1.849,18.865 3.162,17.79 3.162,15.936C3.162,11.45 -6.618,13.764 -6.618,6.184C-6.618,2.51 -3.403,0 0.106,0C3.787,0 6.604,2.555 6.679,6.266L2.667,6.266C2.465,4.726 1.541,3.681 -0.083,3.681C-1.435,3.681 -2.6,4.523 -2.6,5.958C-2.6,7.852 -0.735,8.273 0.729,8.738C4.244,9.827 7.19,11.57 7.19,15.701C7.19,19.918 4.095,22.547 0,22.547" style="fill:white;fill-rule:nonzero;"/>
                </g>
            </g>
        </g>
    </g>
</svg>
