<svg xmlns="http://www.w3.org/2000/svg" xmlns:xlink="http://www.w3.org/1999/xlink" version="1.1"  x="0px" y="0px" width="32" height="32" viewBox="0 0 32 32" style="enable-background:new 0 0 32 32;" xml:space="preserve" preserveAspectRatio="none" viewbox="0 0 32 32">

<path id="2661094818_shock_x5F_color_focus" class="stshockcolor" d="M25.95,12l-3.45,1.89v7.959l-0.12,0.141c-0.66,0.75-2.6,2.51-6.38,2.51  c-3.79,0-5.72-1.76-6.38-2.51L9.5,21.85V13.89L6.05,12L16,6.57L25.95,12z" style="fill: rgb(222, 220, 217);" data-st="fill:#67DDE0;;"></path>
<path class="st0" d="M16,6L5,12l4,2.18V22c0,0,2,3,7,3s7-3,7-3v-7.82l3-1.63V20h1v-8L16,6z M22,21.66C21.47,22.27,19.65,24,16,24  c-3.65,0-5.47-1.73-6-2.34v-6.93L16,18l6-3.27V21.66z M16,16.86L7.09,12L16,7.14L24.91,12L16,16.86z" style="fill:#4D5152;;"></path>
</svg>