<svg xmlns="http://www.w3.org/2000/svg" xmlns:xlink="http://www.w3.org/1999/xlink" version="1.1"  x="0px" y="0px" width="32" height="32" viewBox="0 0 32 32" style="enable-background:new 0 0 32 32;" xml:space="preserve" preserveAspectRatio="none" viewbox="0 0 32 32">

<path id="2661094784_shock_x5F_color_focus" class="stshockcolor" d="M21.5,18c0,3.69-3.93,5.02-5.61,5.41L15.5,23.5l-0.39-0.09C13.43,23.02,9.5,21.69,9.5,18  c0-4.07,4.59-11.07,6-13.13C16.91,6.93,21.5,13.93,21.5,18z" style="fill-rule: evenodd; clip-rule: evenodd; fill: rgb(222, 220, 217);" data-st="fill-rule:evenodd;clip-rule:evenodd;fill:#75EA9C;;"></path>
<path class="st1" d="M15.5,4c0,0-6.5,9-6.5,14c0,4.15,4.47,5.54,6,5.9v3.6c0,0.28,0.22,0.5,0.5,0.5s0.5-0.22,0.5-0.5v-3.6  c1.53-0.36,6-1.75,6-5.9C22,13,15.5,4,15.5,4z M16,22.91V19.7l2.85-2.85c0.2-0.19,0.2-0.51,0-0.7c-0.189-0.2-0.51-0.2-0.699,0  L16,18.3v-3.6l1.85-1.85c0.2-0.19,0.2-0.51,0-0.7c-0.189-0.2-0.51-0.2-0.699,0L16,13.3v-2.8c0-0.28-0.22-0.5-0.5-0.5  S15,10.22,15,10.5v4.8l-1.15-1.15c-0.19-0.2-0.51-0.2-0.7,0c-0.2,0.19-0.2,0.51,0,0.7L15,16.7v3.6l-2.15-2.149  c-0.19-0.2-0.51-0.2-0.7,0c-0.2,0.189-0.2,0.51,0,0.699L15,21.7v1.21C13.5,22.54,9.96,21.31,9.96,18c0-3.63,3.85-9.77,5.54-12.3  c1.69,2.53,5.54,8.67,5.54,12.3C21.04,21.31,17.5,22.54,16,22.91z" style="fill-rule:evenodd;clip-rule:evenodd;fill:#4D5152;;"></path>
</svg>