<svg xmlns="http://www.w3.org/2000/svg" xmlns:xlink="http://www.w3.org/1999/xlink" version="1.1"  x="0px" y="0px" width="32" height="32" viewBox="0 0 32 32" style="enable-background:new 0 0 32 32;" xml:space="preserve" preserveAspectRatio="none" viewbox="0 0 32 32">

<path id="2661094795_shock_x5F_color_focus" class="stshockcolor" d="M7,28.5c-0.248-0.003-1.5-0.089-1.5-1.5V9C5.503,8.752,5.588,7.5,7,7.5h13  c0.248,0.003,1.5,0.088,1.5,1.5v18c-0.003,0.248-0.089,1.5-1.5,1.5H7z" style="fill: rgb(222, 220, 217);" data-st="fill:#FFFFFF;;"></path>
<rect x="8.5" y="10.5" class="st0" width="4" height="5" style="opacity:0.6;fill:#67DDE0;;"></rect>
<path class="st1" d="M8,25v1h8v-1H8z M8,21v1h8v-1H8z M8,23v1h5v-1H8z M8,19v1h5v-1H8z M14,15v1h5v-1H14z M14,13v1h5v-1H14z M14,11  v1h5v-1H14z M8,10v6h5v-6H8z M12,15H9v-4h3V15z M23.5,3H12v1h11.5C23.75,4,25,4.09,25,5.5V23h1V5.5C26,3.52,24.36,3,23.5,3z M21.5,5  H10v1h11.5C21.75,6,23,6.09,23,7.5V25h1V7.5C24,5.52,22.36,5,21.5,5z M14,16h5v-1h-5V16z M14,14h5v-1h-5V14z M14,11v1h5v-1H14z   M8,26h8v-1H8V26z M8,22h8v-1H8V22z M13,23H8v1h5V23z M13,19H8v1h5V19z M13,10H8v6h5V10z M12,15H9v-4h3V15z M20,7H7C5,7,5,9,5,9v18  c0,2,2,2,2,2h13c2,0,2-2,2-2V9C22,7,20,7,20,7z M21,26.99C20.99,27.45,20.81,28,20,28H7.01C6.55,27.99,6,27.81,6,27V9.01  C6.01,8.55,6.19,8,7,8h12.99C20.45,8.01,21,8.2,21,9V26.99z M14,16h5v-1h-5V16z M14,14h5v-1h-5V14z M14,12h5v-1h-5V12z M8,26h8v-1H8  V26z M8,22h8v-1H8V22z M13,23H8v1h5V23z M13,19H8v1h5V19z M13,10H8v6h5V10z M12,15H9v-4h3V15z" style="fill:#4D5152;;"></path>
</svg>