<svg xmlns="http://www.w3.org/2000/svg" xmlns:xlink="http://www.w3.org/1999/xlink" version="1.1" x="0px" y="0px" width="32" height="32" viewBox="0 0 32 32" style="enable-background:new 0 0 32 32;" xml:space="preserve" preserveAspectRatio="none" viewbox="0 0 32 32">

<polygon id="2661094868_shock_x5F_color_focus" class="stshockcolor" points="3.5,27.5 3.5,11.5 8.5,11.5 8.5,13.5 11.5,13.5 11.5,9.207 16,4.707 20.5,9.207   20.5,13.5 24.5,13.5 24.5,11.5 28.5,11.5 28.5,27.5 " style="fill: rgb(222, 220, 217);" data-st="fill:#AAAAAA;;"></polygon>
<path class="st3" d="M22.5,24.5v-3h4v3H22.5z M26.5,19.5v-3h-4v3H26.5z M18.5,11c0-1.378-1.121-2.5-2.5-2.5  c-1.378,0-2.5,1.122-2.5,2.5s1.122,2.5,2.5,2.5C17.379,13.5,18.5,12.378,18.5,11z M9.5,24.5v-3h-4v3H9.5z M9.5,19.5v-3h-4v3H9.5z" style="opacity:0.6;fill:#FFFFFF;enable-background:new    ;;"></path>
<path class="st2" d="M13.5,27.5V23c0-0.93,0.526-2.5,2.5-2.5c1.805,0,2.475,1.286,2.5,2.489V27.5H13.5z" style="opacity:0.6;fill:#4D5152;enable-background:new    ;;"></path>
<path class="st1" d="M5,16v4h5v-4H5z M9,19H6v-2h3V19z M5,21v4h5v-4H5z M9,24H6v-2h3V24z M22,16v4h5v-4H22z M26,19h-3v-2h3V19z   M22,21v4h5v-4H22z M26,24h-3v-2h3V24z M22,21v4h5v-4H22z M26,24h-3v-2h3V24z M22,16v4h5v-4H22z M26,19h-3v-2h3V19z M5,21v4h5v-4H5z   M9,24H6v-2h3V24z M5,16v4h5v-4H5z M9,19H6v-2h3V19z M5,16v4h5v-4H5z M9,19H6v-2h3V19z M5,21v4h5v-4H5z M9,24H6v-2h3V24z M22,16v4h5  v-4H22z M26,19h-3v-2h3V19z M22,21v4h5v-4H22z M26,24h-3v-2h3V24z M22,21v4h5v-4H22z M26,24h-3v-2h3V24z M22,16v4h5v-4H22z M26,19  h-3v-2h3V19z M5,21v4h5v-4H5z M9,24H6v-2h3V24z M5,16v4h5v-4H5z M9,19H6v-2h3V19z M5,16v4h5v-4H5z M9,19H6v-2h3V19z M5,21v4h5v-4H5z   M9,24H6v-2h3V24z M22,16v4h5v-4H22z M26,19h-3v-2h3V19z M22,21v4h5v-4H22z M26,24h-3v-2h3V24z M22,25h5v-4h-5V25z M23,22h3v2h-3V22  z M22,16v4h5v-4H22z M26,19h-3v-2h3V19z M5,25h5v-4H5V25z M6,22h3v2H6V22z M5,16v4h5v-4H5z M9,19H6v-2h3V19z M24,11v2h-3V9l-5-5  l-5,5v4H9v-2H3v17h26V11H24z M11,27H4V12h4v2h3V27z M18,27h-4v-4c0-0.33,0.1-2,2-2c1.83,0,1.99,1.54,2,2V27z M20,27h-1v-4  c0,0,0-3-3-3s-3,3-3,3v4h-1V9.41l4-4l4,4V27z M28,27h-7V14h4v-2h3V27z M22,25h5v-4h-5V25z M23,22h3v2h-3V22z M22,20h5v-4h-5V20z   M23,17h3v2h-3V17z M5,25h5v-4H5V25z M6,22h3v2H6V22z M5,20h5v-4H5V20z M6,17h3v2H6V17z M5,16v4h5v-4H5z M9,19H6v-2h3V19z M5,21v4h5  v-4H5z M9,24H6v-2h3V24z M22,16v4h5v-4H22z M26,19h-3v-2h3V19z M22,21v4h5v-4H22z M26,24h-3v-2h3V24z M22,21v4h5v-4H22z M26,24h-3  v-2h3V24z M22,16v4h5v-4H22z M26,19h-3v-2h3V19z M5,21v4h5v-4H5z M9,24H6v-2h3V24z M5,16v4h5v-4H5z M9,19H6v-2h3V19z M5,16v4h5v-4H5  z M9,19H6v-2h3V19z M5,21v4h5v-4H5z M9,24H6v-2h3V24z M22,16v4h5v-4H22z M26,19h-3v-2h3V19z M22,21v4h5v-4H22z M26,24h-3v-2h3V24z   M22,21v4h5v-4H22z M26,24h-3v-2h3V24z M22,16v4h5v-4H22z M26,19h-3v-2h3V19z M5,21v4h5v-4H5z M9,24H6v-2h3V24z M5,16v4h5v-4H5z   M9,19H6v-2h3V19z M5,16v4h5v-4H5z M9,19H6v-2h3V19z M5,21v4h5v-4H5z M9,24H6v-2h3V24z M22,16v4h5v-4H22z M26,19h-3v-2h3V19z M22,21  v4h5v-4H22z M26,24h-3v-2h3V24z M5,21v4h5v-4H5z M9,24H6v-2h3V24z M5,16v4h5v-4H5z M9,19H6v-2h3V19z M22,21v4h5v-4H22z M26,24h-3v-2  h3V24z M22,16v4h5v-4H22z M26,19h-3v-2h3V19z M16,8c-1.66,0-3,1.34-3,3s1.34,3,3,3s3-1.34,3-3S17.66,8,16,8z M16,13  c-1.1,0-2-0.9-2-2s0.9-2,2-2c1.1,0,2,0.9,2,2S17.1,13,16,13z" style="fill:#4D5152;;"></path>
</svg>